<svg width="100" height="40" viewBox="0 0 100 40" fill="none" xmlns="http://www.w3.org/2000/svg">
<path d="M51.8762 24.498C51.7131 24.498 51.5728 24.4563 51.4476 24.3766C51.3224 24.297 51.2617 24.1756 51.2617 24.0125V11.491C51.2617 11.2672 51.3224 11.1117 51.4476 11.0245C51.5728 10.9372 51.7131 10.8955 51.8762 10.8955C52.0241 10.8955 52.1569 10.9372 52.2745 11.0169C52.392 11.0965 52.502 11.2028 52.6007 11.3317C52.6993 11.4607 52.7865 11.6086 52.8624 11.7679L56.0637 17.9281L59.2461 11.7679C59.3447 11.6048 59.4433 11.4607 59.5344 11.3317C59.6254 11.2028 59.7354 11.0965 59.8606 11.0169C59.9857 10.9372 60.1147 10.8955 60.2512 10.8955C60.4257 10.8955 60.5699 10.941 60.6874 11.0245C60.805 11.1079 60.8657 11.2672 60.8657 11.491V24.0125C60.8657 24.1756 60.8012 24.297 60.6799 24.3766C60.5547 24.4563 60.4143 24.498 60.2512 24.498C60.1033 24.498 59.963 24.4563 59.834 24.3766C59.705 24.297 59.6406 24.1756 59.6406 24.0125V13.5546L56.553 19.3961C56.4772 19.544 56.3975 19.6503 56.3103 19.7109C56.223 19.7754 56.1358 19.8058 56.0485 19.8058C55.9727 19.8058 55.893 19.7754 55.8058 19.7109C55.7185 19.6503 55.6313 19.544 55.5441 19.3961L52.4945 13.5166V24.0125C52.4945 24.1756 52.43 24.297 52.301 24.3766C52.1721 24.4563 52.0317 24.498 51.8838 24.498H51.8762Z" fill="#2C4057" stroke="#2C4057" stroke-width="0.45" stroke-miterlimit="10"/>
<path d="M63.1176 28.8138C62.9545 28.8138 62.8217 28.772 62.7079 28.6924C62.5979 28.6127 62.541 28.4724 62.541 28.2751C62.541 28.1272 62.5714 27.9944 62.6321 27.8844C62.6927 27.7744 62.7951 27.7175 62.9317 27.7175C63.2276 27.7175 63.5158 27.6265 63.7889 27.4368C64.062 27.2509 64.3162 26.9854 64.5513 26.6478C64.7865 26.3102 64.9989 25.9233 65.1848 25.4947C65.3706 25.0661 65.5186 24.6109 65.6324 24.1253L62.5789 16.3454C62.5524 16.2696 62.541 16.2089 62.541 16.1596C62.541 16.0496 62.5827 15.9509 62.6624 15.8713C62.742 15.7916 62.8407 15.7234 62.9583 15.6665C63.0758 15.6096 63.1858 15.583 63.2845 15.583C63.3831 15.583 63.4741 15.6058 63.5538 15.6475C63.6334 15.693 63.6865 15.7575 63.7131 15.8447L66.262 22.6915L68.663 15.8447C68.7009 15.7575 68.7578 15.693 68.8299 15.6475C68.9058 15.6058 68.9854 15.583 69.0726 15.583C69.1713 15.583 69.2813 15.6096 69.3988 15.6589C69.5164 15.7082 69.6151 15.7765 69.6985 15.8637C69.7782 15.951 69.8199 16.0572 69.8199 16.1785C69.8199 16.243 69.8085 16.2961 69.7819 16.3454L66.8992 24.1443C66.7134 24.6412 66.5161 25.1609 66.3037 25.7071C66.0913 26.2533 65.8486 26.7578 65.5679 27.2244C65.2872 27.691 64.9496 28.0703 64.5551 28.37C64.1569 28.6658 63.6827 28.8176 63.1214 28.8176L63.1176 28.8138Z" fill="#2C4057" stroke="#2C4057" stroke-width="0.45" stroke-miterlimit="10"/>
<path d="M76.7369 24.6058C75.9442 24.6058 75.2538 24.4655 74.6697 24.1886C74.0856 23.9079 73.6342 23.521 73.3118 23.024C72.9894 22.5271 72.8301 21.9619 72.8301 21.3323C72.8301 21.0857 72.8832 20.9188 72.9894 20.8278C73.0956 20.7405 73.2473 20.6988 73.4445 20.6988C73.5925 20.6988 73.7328 20.7367 73.8618 20.8088C73.9908 20.8847 74.0552 21.0061 74.0552 21.1805C74.0666 21.6395 74.1804 22.0416 74.389 22.3906C74.6014 22.7396 74.9049 23.0051 75.2994 23.1909C75.6976 23.3768 76.1604 23.4679 76.6952 23.4679C77.5259 23.4679 78.1745 23.2365 78.641 22.7699C79.1076 22.3033 79.3389 21.5864 79.3389 20.6191V12.0237H76.7142C76.5776 12.0237 76.4676 11.9668 76.388 11.8454C76.3083 11.7278 76.2666 11.5951 76.2666 11.4471C76.2666 11.3106 76.3007 11.1816 76.369 11.064C76.4373 10.9464 76.5511 10.8857 76.7142 10.8857H80.0065C80.1431 10.8857 80.2682 10.9275 80.3896 11.0071C80.5072 11.0868 80.5641 11.2082 80.5641 11.3713V20.6191C80.5641 21.5864 80.3934 22.364 80.052 22.9444C79.7107 23.5285 79.2517 23.9496 78.6752 24.2113C78.0986 24.4731 77.45 24.602 76.7293 24.602L76.7369 24.6058Z" fill="#2C4057" stroke="#2C4057" stroke-width="0.45" stroke-miterlimit="10"/>
<path d="M86.392 24.6258C85.5992 24.6258 84.9165 24.5044 84.3437 24.2617C83.7748 24.0189 83.3348 23.742 83.0313 23.4234C82.7279 23.1085 82.5762 22.8354 82.5762 22.6154C82.5762 22.5168 82.6027 22.4106 82.6596 22.3006C82.7165 22.1906 82.7886 22.0995 82.872 22.0313C82.9593 21.963 83.0465 21.9289 83.1338 21.9289C83.2589 21.9289 83.3841 22.0047 83.5168 22.1602C83.6458 22.3158 83.8203 22.494 84.0365 22.6989C84.2527 22.9037 84.541 23.082 84.9013 23.2375C85.2616 23.393 85.732 23.4689 86.3161 23.4689C86.9002 23.4689 87.3933 23.3741 87.803 23.1806C88.2126 22.9872 88.5275 22.7027 88.7513 22.3233C88.975 21.944 89.085 21.4699 89.085 20.9009C89.085 20.3319 88.975 19.8274 88.7513 19.4671C88.5275 19.1067 88.2354 18.8108 87.8675 18.5756C87.4995 18.3405 87.1013 18.1432 86.6689 17.9801C86.2327 17.8208 85.7965 17.6501 85.3565 17.4794C84.9165 17.3049 84.5106 17.0925 84.1389 16.8384C83.7672 16.5842 83.4675 16.2504 83.2475 15.8331C83.0237 15.4197 82.9138 14.8886 82.9138 14.2438C82.9138 13.5989 83.0389 13.0186 83.2855 12.5786C83.532 12.1386 83.8544 11.7934 84.2451 11.5468C84.6358 11.3003 85.0606 11.122 85.5196 11.0158C85.9785 10.9096 86.4261 10.8564 86.8585 10.8564C87.2075 10.8564 87.564 10.883 87.9282 10.9399C88.2923 10.9968 88.6337 11.0727 88.9409 11.1713C89.2519 11.2699 89.5023 11.3913 89.6957 11.5354C89.8892 11.6796 89.984 11.8351 89.984 12.0096C89.984 12.0854 89.9612 12.1727 89.9195 12.2789C89.8778 12.3851 89.8171 12.4799 89.745 12.5672C89.6692 12.6544 89.5706 12.6962 89.4454 12.6962C89.3354 12.6962 89.1799 12.6393 88.9788 12.5217C88.7778 12.4041 88.5123 12.2865 88.1709 12.1689C87.8295 12.0513 87.3858 11.9944 86.8396 11.9944C86.392 11.9944 85.9634 12.0551 85.5461 12.1803C85.1289 12.3055 84.7913 12.5255 84.5334 12.8403C84.2755 13.1551 84.1427 13.5876 84.1427 14.1338C84.1427 14.6307 84.2565 15.029 84.4879 15.3324C84.7192 15.6359 85.0151 15.8825 85.3792 16.0683C85.7472 16.2542 86.1454 16.4249 86.5816 16.5804C87.014 16.7359 87.454 16.9104 87.894 17.1001C88.334 17.2935 88.7361 17.5325 89.104 17.8246C89.4681 18.1167 89.764 18.496 89.9878 18.9701C90.2116 19.4405 90.3216 20.0474 90.3216 20.7947C90.3216 21.6747 90.1547 22.3992 89.8171 22.9644C89.4833 23.5296 89.0206 23.9468 88.4326 24.22C87.8447 24.4931 87.1658 24.6296 86.3958 24.6296L86.392 24.6258Z" fill="#2C4057" stroke="#2C4057" stroke-width="0.45" stroke-miterlimit="10"/>
<path d="M95.5834 24.6258C94.7906 24.6258 94.1079 24.5044 93.5351 24.2617C92.9662 24.0189 92.5262 23.742 92.2227 23.4234C91.9193 23.1085 91.7676 22.8354 91.7676 22.6154C91.7676 22.5168 91.7941 22.4106 91.851 22.3006C91.9079 22.1906 91.98 22.0995 92.0634 22.0313C92.1507 21.963 92.2379 21.9289 92.3252 21.9289C92.4503 21.9289 92.5755 22.0047 92.7083 22.1602C92.8372 22.3158 93.0117 22.494 93.2279 22.6989C93.4441 22.9037 93.7324 23.082 94.0927 23.2375C94.4531 23.393 94.9234 23.4689 95.5075 23.4689C96.0917 23.4689 96.5847 23.3741 96.9944 23.1806C97.404 22.9872 97.7189 22.7027 97.9427 22.3233C98.1664 21.944 98.2764 21.4699 98.2764 20.9009C98.2764 20.3319 98.1664 19.8274 97.9427 19.4671C97.7189 19.1067 97.4268 18.8108 97.0589 18.5756C96.691 18.3405 96.2927 18.1432 95.8603 17.9801C95.4241 17.8208 94.9879 17.6501 94.5479 17.4794C94.1079 17.3049 93.702 17.0925 93.3303 16.8384C92.9586 16.5842 92.6589 16.2504 92.4389 15.8331C92.2152 15.4197 92.1052 14.8886 92.1052 14.2438C92.1052 13.5989 92.2303 13.0186 92.4769 12.5786C92.7234 12.1386 93.0458 11.7934 93.4365 11.5468C93.8272 11.3003 94.252 11.122 94.711 11.0158C95.1699 10.9096 95.6175 10.8564 96.0499 10.8564C96.3989 10.8564 96.7554 10.883 97.1196 10.9399C97.4837 10.9968 97.8251 11.0727 98.1323 11.1713C98.4433 11.2699 98.6937 11.3913 98.8871 11.5354C99.0806 11.6796 99.1754 11.8351 99.1754 12.0096C99.1754 12.0854 99.1526 12.1727 99.1109 12.2789C99.0692 12.3851 99.0085 12.4799 98.9364 12.5672C98.8606 12.6544 98.762 12.6962 98.6368 12.6962C98.5268 12.6962 98.3713 12.6393 98.1702 12.5217C97.9692 12.4041 97.7037 12.2865 97.3623 12.1689C97.0209 12.0513 96.5772 11.9944 96.031 11.9944C95.5834 11.9944 95.1548 12.0551 94.7375 12.1803C94.3203 12.3055 93.9827 12.5255 93.7248 12.8403C93.4631 13.1551 93.3341 13.5876 93.3341 14.1338C93.3341 14.6307 93.4479 15.029 93.6793 15.3324C93.9107 15.6359 94.2065 15.8825 94.5706 16.0683C94.9386 16.2542 95.3368 16.4249 95.773 16.5804C96.2054 16.7359 96.6454 16.9104 97.0854 17.1001C97.5254 17.2935 97.9275 17.5325 98.2954 17.8246C98.6595 18.1167 98.9554 18.496 99.1792 18.9701C99.403 19.4405 99.513 20.0474 99.513 20.7947C99.513 21.6747 99.3461 22.3992 99.0085 22.9644C98.6747 23.5296 98.212 23.9468 97.624 24.22C97.0361 24.4931 96.3572 24.6296 95.5872 24.6296L95.5834 24.6258Z" fill="#2C4057" stroke="#2C4057" stroke-width="0.45" stroke-miterlimit="10"/>
<path d="M44.293 1.88184V37.796" stroke="#2C4057" stroke-width="1.67" stroke-miterlimit="10" stroke-linecap="round"/>
<path d="M36.1273 4.28449C32.8766 6.17351 30.1077 9.09429 29.3415 12.8192C29.0457 14.3441 28.8939 16.9273 28.7384 18.547C28.7081 18.9187 28.6474 19.6736 28.6095 20.0491C28.3553 23.8385 25.6926 27.1652 22.5671 29.0163C17.3934 32.1722 11.3359 33.3899 5.44531 34.1371C11.9504 32.0584 21.5278 29.5625 25.2678 23.5389C26.2198 21.9836 26.5991 20.1743 26.7129 18.3649C26.9215 16.5821 27.0543 14.0938 27.5057 12.3716C28.6284 8.27875 32.0611 5.21003 36.0211 4.00758C36.1804 3.97344 36.2942 4.18586 36.1273 4.28449Z" fill="#2C4057"/>
<path d="M36.0654 4.18898C33.4026 4.85659 30.5768 5.1828 27.8079 4.89072C26.2831 4.69727 24.8228 4.2307 23.3624 4.80727C21.2611 5.56971 20.2559 8.00875 20.5404 10.1254C21.8718 21.7592 14.0353 31.3939 2.78516 33.5295C13.2009 29.4784 19.2546 22.2068 18.5832 10.7171C18.5301 10.1292 18.4808 9.52983 18.5377 8.94188C18.7122 5.93007 21.079 3.0586 24.2083 2.93722C26.0783 2.82342 27.7586 3.6731 29.5717 3.79828C31.673 4.02966 33.8464 4.01449 35.9971 3.84759C36.1867 3.82862 36.2929 4.1207 36.0616 4.19277L36.0654 4.18898Z" fill="#2C4057"/>
<path d="M21.9624 16.9307C22.8234 18.7021 23.764 20.6215 24.8564 22.2601C27.9819 26.9372 33.5843 32.4525 28.456 37.9413C25.6947 40.5776 21.473 40.2514 18.0896 39.3258C18.0062 39.3031 18.0328 39.1703 18.12 39.1817C19.5082 39.3486 20.9041 39.4434 22.2734 39.341C24.8792 39.2082 27.6633 38.093 28.6267 35.544C31.225 29.6835 19.1517 22.6091 21.9586 16.9307H21.9624Z" fill="#CEB793"/>
<path d="M16.8612 12.5499C14.8547 11.4992 14.7029 9.72779 13.2388 8.4874C12.1351 7.65669 10.6065 8.27878 9.60509 9.07535C9.33199 9.26122 9.11958 9.50778 8.892 9.76192C7.64788 11.1958 6.67306 12.8951 5.91825 14.6476C5.14826 16.4228 4.60585 18.3043 4.23793 20.2198C4.22655 20.2691 4.18103 20.3033 4.13172 20.2919C4.0862 20.2843 4.05207 20.2388 4.05965 20.1895C4.29482 18.2398 4.73102 16.309 5.36446 14.4276C6.10031 12.2958 7.0865 10.2171 8.56579 8.47982C9.14613 7.90704 9.78336 7.41013 10.5534 7.06874C13.5726 5.49835 18.2988 9.23846 16.865 12.5461L16.8612 12.5499Z" fill="#CEB793"/>
<path d="M4.16657 7.08673C4.10209 7.13604 4.03002 7.16639 3.95036 7.17397C3.87071 7.18914 3.80244 7.16259 3.75692 7.09811L0.566966 2.91798C0.494898 2.81936 0.468346 2.73211 0.498691 2.64866C0.525242 2.56521 0.570759 2.50452 0.63524 2.45521C0.703515 2.4021 0.77179 2.37176 0.840065 2.36038C0.90834 2.349 0.980408 2.35279 1.05627 2.37176C1.13213 2.39072 1.21937 2.42107 1.3142 2.47038L3.7683 3.61214L3.31313 0.941713C3.29796 0.835503 3.29037 0.740673 3.29417 0.661015C3.29417 0.581357 3.31313 0.509286 3.34348 0.448595C3.37382 0.387903 3.41934 0.331005 3.48382 0.281693C3.55589 0.228588 3.63175 0.198242 3.7152 0.198242C3.79864 0.198242 3.8745 0.243761 3.95036 0.342385L7.13652 4.52251C7.18583 4.587 7.19342 4.65527 7.16308 4.72735C7.13273 4.79942 7.07963 4.8639 7.01515 4.91321C6.94687 4.96632 6.8748 4.99666 6.79515 5.00804C6.7155 5.01942 6.65481 4.99287 6.6017 4.92839L4.06416 1.60173L4.4738 4.1356C4.48139 4.21147 4.4776 4.27216 4.46243 4.32147C4.44725 4.37078 4.4207 4.40872 4.38277 4.43906C4.35243 4.46182 4.3145 4.47699 4.26139 4.48079C4.20829 4.48837 4.1476 4.4732 4.07553 4.44285L1.72764 3.35041L4.28415 6.69982C4.33346 6.7643 4.34105 6.83258 4.3107 6.90465C4.28036 6.97672 4.23105 7.04121 4.16277 7.09431L4.16657 7.08673Z" fill="#2C4057"/>
<path d="M8.52048 6.21045C8.44083 6.24079 8.36497 6.24838 8.29669 6.23321C8.22842 6.21804 8.17152 6.15355 8.1298 6.04734C8.10325 5.97906 8.09187 5.91078 8.09566 5.8463C8.10325 5.78182 8.13739 5.7363 8.20187 5.70974C8.30807 5.66802 8.40669 5.59215 8.49014 5.48594C8.57359 5.37973 8.64186 5.24697 8.69496 5.08766C8.74807 4.92834 8.77841 4.75006 8.78979 4.55661C8.80117 4.36315 8.7822 4.16211 8.74048 3.94969L6.32431 1.43858C6.29776 1.41582 6.27879 1.39306 6.27121 1.36651C6.25224 1.3134 6.25224 1.25271 6.27879 1.19202C6.30534 1.13133 6.34328 1.07443 6.39638 1.02132C6.44948 0.972013 6.50258 0.93408 6.55569 0.911321C6.59362 0.896148 6.63913 0.892355 6.68465 0.892355C6.73017 0.896148 6.7681 0.918907 6.79844 0.960633L8.80117 3.14932L8.66083 0.224748C8.66083 0.175436 8.67221 0.133711 8.69876 0.099572C8.72531 0.065433 8.76324 0.0388805 8.80117 0.0237076C8.85048 0.00474152 8.91117 -0.00284491 8.98324 0.000948305C9.0553 0.000948305 9.12358 0.0199144 9.18427 0.0464669C9.24496 0.0730195 9.29047 0.114745 9.31323 0.175436C9.32461 0.205782 9.3284 0.232335 9.3284 0.255094L9.38909 3.7183C9.39668 3.94969 9.40047 4.19246 9.40047 4.44281C9.40047 4.69316 9.38151 4.93213 9.33978 5.16352C9.29806 5.39491 9.21082 5.60353 9.08565 5.78561C8.96048 5.97148 8.77083 6.11182 8.51669 6.21424L8.52048 6.21045Z" fill="#2C4057"/>
</svg>
