<svg width="100" height="40" viewBox="0 0 100 40" fill="none" xmlns="http://www.w3.org/2000/svg">
<path d="M51.8762 24.497C51.7131 24.497 51.5728 24.4553 51.4476 24.3756C51.3224 24.296 51.2617 24.1746 51.2617 24.0115V11.4901C51.2617 11.2663 51.3224 11.1107 51.4476 11.0235C51.5728 10.9363 51.7131 10.8945 51.8762 10.8945C52.0241 10.8945 52.1569 10.9363 52.2745 11.0159C52.392 11.0956 52.502 11.2018 52.6007 11.3308C52.6993 11.4597 52.7865 11.6077 52.8624 11.767L56.0637 17.9272L59.2461 11.767C59.3447 11.6039 59.4433 11.4597 59.5344 11.3308C59.6254 11.2018 59.7354 11.0956 59.8606 11.0159C59.9857 10.9363 60.1147 10.8945 60.2512 10.8945C60.4257 10.8945 60.5699 10.94 60.6874 11.0235C60.805 11.107 60.8657 11.2663 60.8657 11.4901V24.0115C60.8657 24.1746 60.8012 24.296 60.6799 24.3756C60.5547 24.4553 60.4143 24.497 60.2512 24.497C60.1033 24.497 59.963 24.4553 59.834 24.3756C59.705 24.296 59.6406 24.1746 59.6406 24.0115V13.5536L56.553 19.3951C56.4772 19.5431 56.3975 19.6493 56.3103 19.71C56.223 19.7745 56.1358 19.8048 56.0485 19.8048C55.9727 19.8048 55.893 19.7745 55.8058 19.71C55.7185 19.6493 55.6313 19.5431 55.5441 19.3951L52.4945 13.5156V24.0115C52.4945 24.1746 52.43 24.296 52.301 24.3756C52.1721 24.4553 52.0317 24.497 51.8838 24.497H51.8762Z" fill="white" stroke="white" stroke-width="0.45" stroke-miterlimit="10"/>
<path d="M63.1171 28.8128C62.954 28.8128 62.8212 28.7711 62.7074 28.6914C62.5974 28.6117 62.5405 28.4714 62.5405 28.2741C62.5405 28.1262 62.5709 27.9934 62.6316 27.8834C62.6923 27.7734 62.7947 27.7165 62.9312 27.7165C63.2271 27.7165 63.5153 27.6255 63.7884 27.4358C64.0615 27.25 64.3157 26.9844 64.5508 26.6469C64.786 26.3093 64.9984 25.9223 65.1843 25.4937C65.3701 25.0651 65.5181 24.6099 65.6319 24.1244L62.5785 16.3445C62.5519 16.2686 62.5405 16.2079 62.5405 16.1586C62.5405 16.0486 62.5823 15.95 62.6619 15.8703C62.7416 15.7907 62.8402 15.7224 62.9578 15.6655C63.0753 15.6086 63.1853 15.582 63.284 15.582C63.3826 15.582 63.4736 15.6048 63.5533 15.6465C63.6329 15.692 63.686 15.7565 63.7126 15.8438L66.2615 22.6905L68.6625 15.8438C68.7004 15.7565 68.7573 15.692 68.8294 15.6465C68.9053 15.6048 68.9849 15.582 69.0722 15.582C69.1708 15.582 69.2808 15.6086 69.3984 15.6579C69.5159 15.7072 69.6146 15.7755 69.698 15.8627C69.7777 15.95 69.8194 16.0562 69.8194 16.1776C69.8194 16.2421 69.808 16.2952 69.7815 16.3445L66.8987 24.1433C66.7129 24.6402 66.5156 25.1599 66.3032 25.7061C66.0908 26.2524 65.8481 26.7569 65.5674 27.2234C65.2867 27.69 64.9491 28.0693 64.5546 28.369C64.1564 28.6648 63.6822 28.8166 63.1209 28.8166L63.1171 28.8128Z" fill="white" stroke="white" stroke-width="0.45" stroke-miterlimit="10"/>
<path d="M76.7369 24.6029C75.9442 24.6029 75.2538 24.4625 74.6697 24.1856C74.0856 23.9049 73.6342 23.518 73.3118 23.0211C72.9894 22.5242 72.8301 21.959 72.8301 21.3293C72.8301 21.0828 72.8832 20.9159 72.9894 20.8248C73.0956 20.7376 73.2473 20.6959 73.4445 20.6959C73.5925 20.6959 73.7328 20.7338 73.8618 20.8059C73.9908 20.8817 74.0552 21.0031 74.0552 21.1776C74.0666 21.6366 74.1804 22.0387 74.389 22.3876C74.6014 22.7366 74.9049 23.0021 75.2994 23.188C75.6976 23.3739 76.1604 23.4649 76.6952 23.4649C77.5259 23.4649 78.1745 23.2335 78.641 22.767C79.1076 22.3004 79.3389 21.5835 79.3389 20.6162V12.0208H76.7142C76.5776 12.0208 76.4676 11.9639 76.388 11.8425C76.3083 11.7249 76.2666 11.5921 76.2666 11.4442C76.2666 11.3077 76.3007 11.1787 76.369 11.0611C76.4373 10.9435 76.5511 10.8828 76.7142 10.8828H80.0065C80.1431 10.8828 80.2682 10.9245 80.3896 11.0042C80.5072 11.0839 80.5641 11.2052 80.5641 11.3683V20.6162C80.5641 21.5835 80.3934 22.3611 80.052 22.9415C79.7107 23.5256 79.2517 23.9467 78.6752 24.2084C78.0986 24.4701 77.45 24.5991 76.7293 24.5991L76.7369 24.6029Z" fill="white" stroke="white" stroke-width="0.45" stroke-miterlimit="10"/>
<path d="M86.3915 24.6249C85.5987 24.6249 84.916 24.5035 84.3432 24.2607C83.7743 24.0179 83.3343 23.741 83.0308 23.4224C82.7274 23.1076 82.5757 22.8345 82.5757 22.6144C82.5757 22.5158 82.6022 22.4096 82.6591 22.2996C82.716 22.1896 82.7881 22.0986 82.8715 22.0303C82.9588 21.962 83.046 21.9279 83.1333 21.9279C83.2584 21.9279 83.3836 22.0037 83.5164 22.1593C83.6453 22.3148 83.8198 22.4931 84.036 22.6979C84.2522 22.9027 84.5405 23.081 84.9008 23.2365C85.2612 23.3921 85.7315 23.4679 86.3156 23.4679C86.8998 23.4679 87.3929 23.3731 87.8025 23.1796C88.2122 22.9862 88.527 22.7017 88.7508 22.3224C88.9746 21.943 89.0846 21.4689 89.0846 20.8999C89.0846 20.3309 88.9746 19.8264 88.7508 19.4661C88.527 19.1057 88.2349 18.8098 87.867 18.5747C87.4991 18.3395 87.1008 18.1422 86.6684 17.9791C86.2322 17.8198 85.796 17.6491 85.356 17.4784C84.916 17.3039 84.5101 17.0915 84.1384 16.8374C83.7667 16.5832 83.467 16.2494 83.247 15.8322C83.0233 15.4187 82.9133 14.8877 82.9133 14.2428C82.9133 13.598 83.0384 13.0176 83.285 12.5776C83.5315 12.1376 83.8539 11.7924 84.2446 11.5458C84.6353 11.2993 85.0601 11.121 85.5191 11.0148C85.978 10.9086 86.4256 10.8555 86.858 10.8555C87.207 10.8555 87.5635 10.882 87.9277 10.9389C88.2918 10.9958 88.6332 11.0717 88.9404 11.1703C89.2514 11.2689 89.5018 11.3903 89.6952 11.5345C89.8887 11.6786 89.9835 11.8341 89.9835 12.0086C89.9835 12.0845 89.9607 12.1717 89.919 12.2779C89.8773 12.3841 89.8166 12.479 89.7445 12.5662C89.6687 12.6535 89.5701 12.6952 89.4449 12.6952C89.3349 12.6952 89.1794 12.6383 88.9783 12.5207C88.7773 12.4031 88.5118 12.2855 88.1704 12.1679C87.8291 12.0503 87.3853 11.9934 86.8391 11.9934C86.3915 11.9934 85.9629 12.0541 85.5456 12.1793C85.1284 12.3045 84.7908 12.5245 84.5329 12.8393C84.275 13.1542 84.1422 13.5866 84.1422 14.1328C84.1422 14.6297 84.256 15.028 84.4874 15.3315C84.7188 15.6349 85.0146 15.8815 85.3787 16.0674C85.7467 16.2532 86.1449 16.4239 86.5811 16.5794C87.0135 16.735 87.4535 16.9094 87.8935 17.0991C88.3335 17.2926 88.7356 17.5315 89.1035 17.8236C89.4676 18.1157 89.7635 18.495 89.9873 18.9692C90.2111 19.4395 90.3211 20.0464 90.3211 20.7937C90.3211 21.6737 90.1542 22.3982 89.8166 22.9634C89.4828 23.5286 89.0201 23.9459 88.4321 24.219C87.8442 24.4921 87.1653 24.6286 86.3953 24.6286L86.3915 24.6249Z" fill="white" stroke="white" stroke-width="0.45" stroke-miterlimit="10"/>
<path d="M95.5839 24.6249C94.7911 24.6249 94.1084 24.5035 93.5356 24.2607C92.9667 24.0179 92.5267 23.741 92.2232 23.4224C91.9198 23.1076 91.7681 22.8345 91.7681 22.6144C91.7681 22.5158 91.7946 22.4096 91.8515 22.2996C91.9084 22.1896 91.9805 22.0986 92.0639 22.0303C92.1512 21.962 92.2384 21.9279 92.3256 21.9279C92.4508 21.9279 92.576 22.0037 92.7087 22.1593C92.8377 22.3148 93.0122 22.4931 93.2284 22.6979C93.4446 22.9027 93.7329 23.081 94.0932 23.2365C94.4535 23.3921 94.9239 23.4679 95.508 23.4679C96.0921 23.4679 96.5852 23.3731 96.9949 23.1796C97.4045 22.9862 97.7194 22.7017 97.9431 22.3224C98.1669 21.943 98.2769 21.4689 98.2769 20.8999C98.2769 20.3309 98.1669 19.8264 97.9431 19.4661C97.7194 19.1057 97.4273 18.8098 97.0594 18.5747C96.6914 18.3395 96.2932 18.1422 95.8608 17.9791C95.4246 17.8198 94.9884 17.6491 94.5484 17.4784C94.1084 17.3039 93.7025 17.0915 93.3308 16.8374C92.9591 16.5832 92.6594 16.2494 92.4394 15.8322C92.2156 15.4187 92.1056 14.8877 92.1056 14.2428C92.1056 13.598 92.2308 13.0176 92.4774 12.5776C92.7239 12.1376 93.0463 11.7924 93.437 11.5458C93.8277 11.2993 94.2525 11.121 94.7115 11.0148C95.1704 10.9086 95.618 10.8555 96.0504 10.8555C96.3994 10.8555 96.7559 10.882 97.1201 10.9389C97.4842 10.9958 97.8256 11.0717 98.1328 11.1703C98.4438 11.2689 98.6942 11.3903 98.8876 11.5345C99.0811 11.6786 99.1759 11.8341 99.1759 12.0086C99.1759 12.0845 99.1531 12.1717 99.1114 12.2779C99.0697 12.3841 99.009 12.479 98.9369 12.5662C98.8611 12.6535 98.7625 12.6952 98.6373 12.6952C98.5273 12.6952 98.3718 12.6383 98.1707 12.5207C97.9697 12.4031 97.7042 12.2855 97.3628 12.1679C97.0214 12.0503 96.5777 11.9934 96.0315 11.9934C95.5839 11.9934 95.1553 12.0541 94.738 12.1793C94.3208 12.3045 93.9832 12.5245 93.7253 12.8393C93.4636 13.1542 93.3346 13.5866 93.3346 14.1328C93.3346 14.6297 93.4484 15.028 93.6798 15.3315C93.9111 15.6349 94.207 15.8815 94.5711 16.0674C94.9391 16.2532 95.3373 16.4239 95.7735 16.5794C96.2059 16.735 96.6459 16.9094 97.0859 17.0991C97.5259 17.2926 97.928 17.5315 98.2959 17.8236C98.66 18.1157 98.9559 18.495 99.1797 18.9692C99.4035 19.4395 99.5135 20.0464 99.5135 20.7937C99.5135 21.6737 99.3466 22.3982 99.009 22.9634C98.6752 23.5286 98.2125 23.9459 97.6245 24.219C97.0366 24.4921 96.3577 24.6286 95.5877 24.6286L95.5839 24.6249Z" fill="white" stroke="white" stroke-width="0.45" stroke-miterlimit="10"/>
<path d="M44.2939 1.88281V37.797" stroke="white" stroke-width="1.67" stroke-miterlimit="10" stroke-linecap="round"/>
<path d="M36.1273 4.28449C32.8766 6.17351 30.1077 9.09429 29.3415 12.8192C29.0457 14.3441 28.8939 16.9273 28.7384 18.547C28.7081 18.9187 28.6474 19.6736 28.6095 20.0491C28.3553 23.8385 25.6926 27.1652 22.5671 29.0163C17.3934 32.1722 11.3359 33.3899 5.44531 34.1371C11.9504 32.0584 21.5278 29.5625 25.2678 23.5389C26.2198 21.9836 26.5991 20.1743 26.7129 18.3649C26.9215 16.5821 27.0543 14.0938 27.5057 12.3716C28.6284 8.27875 32.0611 5.21003 36.0211 4.00758C36.1804 3.97344 36.2942 4.18586 36.1273 4.28449Z" fill="white"/>
<path d="M36.0663 4.188C33.4036 4.85561 30.5778 5.18183 27.8089 4.88975C26.2841 4.69629 24.8237 4.22973 23.3634 4.8063C21.2621 5.56873 20.2569 8.00777 20.5414 10.1244C21.8727 21.7582 14.0363 31.393 2.78613 33.5286C13.2018 29.4774 19.2555 22.2058 18.5842 10.7161C18.5311 10.1282 18.4818 9.52885 18.5387 8.94091C18.7131 5.92909 21.08 3.05762 24.2093 2.93624C26.0792 2.82244 27.7596 3.67212 29.5726 3.7973C31.674 4.02869 33.8474 4.01351 35.9981 3.84661C36.1877 3.82765 36.2939 4.11972 36.0625 4.1918L36.0663 4.188Z" fill="white"/>
<path d="M21.9628 16.9297C22.8239 18.7011 23.7645 20.6205 24.8569 22.2592C27.9824 26.9362 33.5847 32.4515 28.4565 37.9403C25.6952 40.5766 21.4735 40.2504 18.0901 39.3249C18.0067 39.3021 18.0332 39.1693 18.1205 39.1807C19.5087 39.3476 20.9046 39.4424 22.2739 39.34C24.8797 39.2073 27.6638 38.0921 28.6272 35.543C31.2255 29.6825 19.1522 22.6081 21.959 16.9297H21.9628Z" fill="#CEB793"/>
<path d="M16.8617 12.5499C14.8552 11.4992 14.7034 9.72779 13.2393 8.4874C12.1355 7.65669 10.6069 8.27878 9.60558 9.07535C9.33248 9.26122 9.12007 9.50778 8.89248 9.76192C7.64836 11.1958 6.67355 12.8951 5.91873 14.6476C5.14875 16.4228 4.60634 18.3043 4.23841 20.2198C4.22703 20.2691 4.18152 20.3033 4.13221 20.2919C4.08669 20.2843 4.05255 20.2388 4.06014 20.1895C4.29531 18.2398 4.73151 16.309 5.36495 14.4276C6.1008 12.2958 7.08699 10.2171 8.56628 8.47982C9.14662 7.90704 9.78385 7.41013 10.5538 7.06874C13.5731 5.49835 18.2992 9.23846 16.8655 12.5461L16.8617 12.5499Z" fill="#CEB793"/>
<path d="M4.16706 7.0877C4.10257 7.13702 4.03051 7.16736 3.95085 7.17495C3.8712 7.19012 3.80292 7.16357 3.75741 7.09908L0.567454 2.91896C0.495386 2.82033 0.468835 2.73309 0.499179 2.64964C0.52573 2.56619 0.571247 2.5055 0.635729 2.45618C0.704004 2.40308 0.772278 2.37273 0.840553 2.36135C0.908828 2.34997 0.980896 2.35377 1.05676 2.37273C1.13262 2.3917 1.21986 2.42204 1.31468 2.47136L3.76879 3.61312L3.31362 0.94269C3.29845 0.83648 3.29086 0.741649 3.29466 0.661991C3.29466 0.582334 3.31362 0.510263 3.34396 0.449571C3.37431 0.38888 3.41983 0.331981 3.48431 0.28267C3.55638 0.229565 3.63224 0.199219 3.71568 0.199219C3.79913 0.199219 3.87499 0.244737 3.95085 0.343361L7.13701 4.52349C7.18632 4.58797 7.19391 4.65625 7.16356 4.72832C7.13322 4.80039 7.08012 4.86488 7.01563 4.91419C6.94736 4.9673 6.87529 4.99764 6.79564 5.00902C6.71598 5.0204 6.6553 4.99385 6.60219 4.92936L4.06464 1.60271L4.47429 4.13658C4.48188 4.21244 4.47809 4.27314 4.46291 4.32245C4.44774 4.37176 4.42119 4.40969 4.38326 4.44004C4.35292 4.4628 4.31499 4.47797 4.26188 4.48176C4.20878 4.48935 4.14809 4.47418 4.07602 4.44383L1.72813 3.35138L4.28464 6.7008C4.33395 6.76528 4.34154 6.83356 4.31119 6.90563C4.28085 6.9777 4.23154 7.04219 4.16326 7.09529L4.16706 7.0877Z" fill="white"/>
<path d="M8.52097 6.21045C8.44132 6.24079 8.36546 6.24838 8.29718 6.23321C8.22891 6.21804 8.17201 6.15355 8.13029 6.04734C8.10374 5.97906 8.09236 5.91078 8.09615 5.8463C8.10374 5.78182 8.13787 5.7363 8.20236 5.70974C8.30856 5.66802 8.40718 5.59215 8.49063 5.48594C8.57408 5.37973 8.64235 5.24697 8.69545 5.08766C8.74856 4.92834 8.7789 4.75006 8.79028 4.55661C8.80166 4.36315 8.78269 4.16211 8.74097 3.94969L6.3248 1.43858C6.29825 1.41582 6.27928 1.39306 6.2717 1.36651C6.25273 1.3134 6.25273 1.25271 6.27928 1.19202C6.30583 1.13133 6.34376 1.07443 6.39687 1.02132C6.44997 0.972013 6.50307 0.93408 6.55617 0.911321C6.5941 0.896148 6.63962 0.892355 6.68514 0.892355C6.73065 0.896148 6.76858 0.918907 6.79893 0.960633L8.80166 3.14932L8.66132 0.224748C8.66132 0.175436 8.67269 0.133711 8.69925 0.099572C8.7258 0.065433 8.76373 0.0388805 8.80166 0.0237076C8.85097 0.00474152 8.91166 -0.00284491 8.98372 0.000948305C9.05579 0.000948305 9.12407 0.0199144 9.18476 0.0464669C9.24544 0.0730195 9.29096 0.114745 9.31372 0.175436C9.3251 0.205782 9.32889 0.232335 9.32889 0.255094L9.38958 3.7183C9.39717 3.94969 9.40096 4.19246 9.40096 4.44281C9.40096 4.69316 9.38199 4.93213 9.34027 5.16352C9.29855 5.39491 9.21131 5.60353 9.08614 5.78561C8.96097 5.97148 8.77131 6.11182 8.51718 6.21424L8.52097 6.21045Z" fill="white"/>
</svg>
