<svg width="1920" height="7174" viewBox="0 0 1920 7174" fill="none" xmlns="http://www.w3.org/2000/svg">
<g clip-path="url(#clip0_4394_22208)">
<g opacity="0.05">
<path d="M2345.81 4839C2102.47 4980.35 1895.19 5198.91 1837.84 5477.64C1815.69 5591.75 1804.33 5785.05 1792.69 5906.25C1790.42 5934.06 1785.88 5990.55 1783.04 6018.65C1764.01 6302.21 1564.68 6551.14 1330.72 6689.65C943.418 6925.81 489.962 7016.93 49 7072.84C535.961 6917.3 1252.92 6730.53 1532.88 6279.78C1604.15 6163.41 1632.55 6028.02 1641.06 5892.62C1656.68 5759.22 1666.62 5573.01 1700.41 5444.15C1784.46 5137.88 2041.42 4908.25 2337.86 4818.27C2349.78 4815.72 2358.3 4831.62 2345.81 4839Z" fill="#DEEDFF"/>
<path d="M2337.81 4959C2094.47 5100.35 1887.19 5318.91 1829.84 5597.64C1807.69 5711.75 1796.33 5905.05 1784.69 6026.25C1782.42 6054.06 1777.88 6110.55 1775.04 6138.65C1756.01 6422.21 1556.68 6671.14 1322.72 6809.66C935.418 7045.81 481.962 7136.93 41 7192.84" stroke="#DEEDFF" stroke-width="8"/>
<path d="M2281.81 4690C2038.47 4831.35 1831.19 5049.91 1773.84 5328.65C1751.69 5442.75 1740.33 5636.05 1728.69 5757.25C1726.42 5785.07 1721.88 5841.55 1719.04 5869.65C1700.01 6153.21 1500.68 6402.14 1266.72 6540.66C879.418 6776.82 425.962 6867.93 -15 6923.85" stroke="#DEEDFF" stroke-width="8"/>
</g>
</g>
<g clip-path="url(#clip1_4394_22208)">
<g opacity="0.05">
<path d="M690.896 3617.5C447.557 3758.85 240.279 3977.41 182.923 4256.14C160.775 4370.25 149.418 4563.55 137.776 4684.75C135.505 4712.56 130.961 4769.05 128.122 4797.15C109.098 5080.71 -90.2296 5329.64 -324.198 5468.15C-711.496 5704.31 -1164.95 5795.43 -1605.91 5851.34C-1118.95 5695.8 -401.998 5509.03 -122.031 5058.28C-50.7616 4941.91 -22.3674 4806.52 -13.8492 4671.12C1.76766 4537.72 11.7058 4351.51 45.4949 4222.65C129.542 3916.38 386.51 3686.75 682.946 3596.77C694.871 3594.22 703.389 3610.12 690.896 3617.5Z" fill="#DEEDFF"/>
<path d="M691 3599C469.36 3748.59 280.566 3979.88 228.324 4274.86C208.151 4395.61 197.806 4600.17 187.203 4728.43C185.134 4757.87 180.996 4817.65 178.409 4847.38C161.082 5147.47 -20.4714 5410.9 -233.577 5557.49C-586.338 5807.4 -999.359 5903.82 -1401 5963" stroke="#DEEDFF" stroke-width="8" stroke-linecap="round"/>
<path d="M686.31 3610.45C486.983 3660.41 275.446 3684.82 68.1675 3662.96C-45.9773 3648.49 -155.295 3613.57 -264.613 3656.72C-421.917 3713.77 -497.161 3896.28 -475.866 4054.67C-376.202 4925.21 -962.827 5646.18 -1805 5805.98C-1025.29 5502.84 -572.122 4958.71 -622.38 4098.95C-626.355 4054.95 -630.047 4010.1 -625.787 3966.11C-612.726 3740.74 -435.546 3525.87 -201.294 3516.78C-61.3101 3508.27 64.4763 3571.85 200.201 3581.22C357.505 3598.53 520.204 3597.39 681.199 3584.9C695.396 3583.49 703.347 3605.34 686.026 3610.73L686.31 3610.45Z" fill="#DEEDFF"/>
<path d="M-201 3447.62C-61.0946 3429.99 64.6215 3561.61 200.27 3581C357.486 3616.84 520.095 3614.49 681 3588.64" stroke="#DEEDFF" stroke-width="8" stroke-linecap="round"/>
</g>
</g>
<g clip-path="url(#clip2_4394_22208)">
<path fill-rule="evenodd" clip-rule="evenodd" d="M-559.394 2972.99C-560.262 2973.05 -561.131 2973.12 -561.999 2973.18L-562.062 2973.11C-561.172 2973.07 -560.283 2973.03 -559.394 2972.99ZM1308.55 1740.7C1164.25 2064.17 934.633 2340.55 608.188 2556.7C474.541 2647.36 333.768 2729.53 184.197 2791.23C-52.5345 2887.85 -303.996 2953.71 -559.394 2972.99C-231.105 2957.69 94.5314 2881.95 401.901 2764.95C1002.91 2542.25 1452.57 2024.53 1608.14 1404.55C1663.9 1193.79 1688.37 974.71 1692.68 757.161C1692.81 749.385 1692.89 730.026 1692.98 710.449C1693.08 689.499 1693.17 668.3 1693.31 660.781C1696.15 586.346 1708.29 512.064 1725.26 439.152C1726.39 434.26 1727.57 429.397 1728.79 424.562C1775.65 346.922 1831.86 284.88 1886.14 236.595C1941.02 187.782 1993.88 153.065 2033 130.561C2052.55 119.311 2068.67 111.119 2079.87 105.75C2085.47 103.065 2089.84 101.086 2092.8 99.784C2094.27 99.1328 2095.4 98.6507 2096.15 98.3341C2096.53 98.1758 2096.81 98.0588 2096.99 97.9828L2097.19 97.8993L2097.24 97.8804L2097.25 97.8767L2097.07 97.4349L2094.99 92.3168C2092.74 86.7567 2092.73 86.7584 2092.73 86.7606L2092.71 86.7683L2092.64 86.7952L2092.4 86.895C2092.19 86.982 2091.88 87.1101 2091.48 87.2799C2090.68 87.6194 2089.5 88.1253 2087.96 88.8013C2084.89 90.1532 2080.4 92.1858 2074.68 94.929C2063.24 100.415 2046.85 108.745 2027.01 120.159C1987.34 142.983 1933.78 178.164 1878.17 227.629C1831.2 269.414 1782.74 321.416 1739.96 384.789C1796.36 203.247 1915.59 64.3885 2083.74 -32.822C2089.89 -36.0344 2099.58 -41.4206 2109.08 -46.7027C2117.04 -51.1251 2124.86 -55.4745 2130.37 -58.4141L2095.18 -52.4021L2077.47 -49.2024C2037.37 -39.8466 1994.18 -27.889 1956.15 -11.7717C1693.63 91.7522 1507.37 365.483 1497.96 647.792C1497.63 658.557 1497.81 676.979 1498.05 687.381C1500.34 777.168 1498.12 870.395 1492.82 959.752C1476.95 1199.07 1431.42 1423.94 1353.49 1631.21C1213.51 1910.85 995.833 2196.78 647.501 2448.72L647.459 2448.75L647.418 2448.78L651.018 2453.58C647.418 2448.78 647.417 2448.78 647.415 2448.79L647.402 2448.79L647.346 2448.84L647.114 2449.01L646.762 2449.27L646.179 2449.7C645.347 2450.32 644.101 2451.24 642.452 2452.44C639.153 2454.85 634.244 2458.4 627.82 2462.96C614.971 2472.08 596.062 2485.23 571.86 2501.31C523.452 2533.48 453.881 2577.39 369.27 2624.32C199.984 2718.21 -29.223 2824.01 -269.439 2872.2L-267.079 2883.96C-25.1605 2835.44 205.271 2729 375.09 2634.81C460.031 2587.7 529.878 2543.62 578.502 2511.31C602.815 2495.15 621.825 2481.93 634.765 2472.75C641.236 2468.16 646.189 2464.57 649.53 2462.13C651.2 2460.91 652.467 2459.98 653.319 2459.35L654.037 2458.82L654.284 2458.63L654.53 2458.45L654.534 2458.44L654.578 2458.41C961.585 2236.35 1167.62 1987.97 1308.55 1740.7Z" fill="#DEEDFF" fill-opacity="0.06"/>
</g>
<defs>
<clipPath id="clip0_4394_22208">
<rect width="1920" height="2242.46" fill="white" transform="translate(0 4931.54)"/>
</clipPath>
<clipPath id="clip1_4394_22208">
<rect width="1920" height="2101" fill="white" transform="translate(0 3345)"/>
</clipPath>
<clipPath id="clip2_4394_22208">
<rect width="1920" height="2971" fill="white"/>
</clipPath>
</defs>
</svg>
