<svg width="339" height="376" viewBox="0 0 339 376" fill="none" xmlns="http://www.w3.org/2000/svg">
<g clip-path="url(#clip0_1540_10231)">
<path d="M338.127 13.4437C305.161 32.606 277.078 62.2879 269.316 100.089C266.307 115.584 264.781 141.818 263.211 158.23C262.469 205.503 240.055 240.336 200.635 264.474C148.132 296.513 86.7336 308.866 26.9922 316.461C93.2311 295.247 189.864 270.192 228.02 208.908C237.701 192.976 241.495 174.992 242.672 156.397C244.809 138.195 246.073 113.227 250.739 95.5491C262.121 54.0381 296.962 22.8284 337.081 10.6501C338.738 10.3009 339.828 12.5271 338.127 13.4437Z" fill="white"/>
<path d="M337.517 12.441C313.228 18.5956 287.805 21.6947 262.426 20.3416C249.039 20.1234 235.695 15.1036 222.744 16.3695C198.629 17.6353 179.922 38.4127 179.748 62.2891C194.138 187.564 122.405 284.947 0 310.264C98.2899 272.376 161.433 203.104 160.822 94.7646C160.779 77.1737 156.985 59.3646 163.526 42.3848C171.55 17.3298 195.882 0.131708 221.872 0.000758193C239.315 -0.217491 254.621 7.29029 271.715 8.42518C292.995 10.7823 315.016 10.6077 336.82 8.94898C338.869 8.73073 339.698 11.8735 337.474 12.441H337.517Z" fill="white"/>
<path d="M194.489 141.82C199.983 152.776 207.135 168.185 213.283 178.573C227.107 203.192 244.942 224.362 260.64 248.239C272.458 266.79 283.796 290.012 281.005 313.452C277.909 336.673 262.821 358.804 241.323 368.101C213.719 380.28 183.151 376.657 155.243 369.149C154.414 368.887 154.632 367.577 155.548 367.708C169.633 369.411 183.805 370.371 197.672 369.323C224.098 367.97 252.312 356.665 262.123 330.781C288.418 271.024 166.144 199.962 194.532 141.82H194.489Z" fill="#CEB793"/>
<path d="M142.768 97.3384C122.404 86.6441 120.834 68.5294 105.833 56.0019C93.231 46.7918 76.704 55.5654 65.8895 64.5573C48.2723 77.1285 38.5044 98.0368 30.4371 117.897C23.3728 136.318 18.4452 155.655 14.695 175.21C14.6078 175.734 14.1281 176.039 13.6048 175.952C13.1251 175.864 12.8199 175.428 12.8635 174.948C15.2619 155.087 19.0993 135.357 24.7246 115.933C31.6145 94.1083 40.3795 71.323 58.5199 55.9583C72.5614 41.7721 94.0596 32.0818 113.465 42.0776C133.742 51.5496 152.667 73.8984 142.768 97.382V97.3384Z" fill="#CEB793"/>
</g>
<defs>
<clipPath id="clip0_1540_10231">
<rect width="339" height="376" fill="white"/>
</clipPath>
</defs>
</svg>
