<svg width="26" height="29" viewBox="0 0 26 29" fill="none" xmlns="http://www.w3.org/2000/svg">
<path d="M25.5785 1.47525C23.514 1.99273 21.3613 2.23594 19.2319 2.01343C18.0621 1.86336 16.9339 1.5063 15.816 1.94874C14.2002 2.53349 13.4273 4.40158 13.6478 6.02646C14.6152 15.0254 8.76133 22.2442 0 23.97C8.14405 20.8108 12.7685 15.1315 12.1175 6.17911C11.8063 3.66418 13.4532 0.856862 16.1117 0.55155C17.4526 0.32386 18.6976 0.913785 19.9892 1.08973C21.8074 1.36399 23.667 1.34588 25.5318 1.21133C25.6071 1.20357 25.6771 1.25791 25.6823 1.33553C25.6875 1.4028 25.6434 1.45972 25.5811 1.47525H25.5785Z" fill="white"/>
<path d="M25.6263 1.55007C23.1287 2.99901 20.9993 5.2371 20.4105 8.09357C20.1589 9.47524 20.0785 11.0484 19.9489 12.4844L19.9048 13.0484C19.827 14.4844 19.4535 15.9282 18.6858 17.1572C15.4644 22.1845 7.55901 23.7291 2.04492 24.4355C7.04806 22.8391 14.401 20.9296 17.2826 16.3111C18.0166 15.1183 18.2967 13.7315 18.3875 12.3446C18.5638 10.8155 18.6287 9.25531 19.0022 7.74945C19.8659 4.61354 22.5036 2.25902 25.5459 1.33532C25.6678 1.30945 25.7586 1.46987 25.6263 1.54749V1.55007Z" fill="white"/>
<path d="M14.7419 11.2452C15.5173 12.8494 16.3629 14.5312 17.4081 15.9775C19.828 19.3825 23.4487 23.3723 19.732 27.3517C18.4949 28.5755 16.643 28.9791 14.9908 28.9248C13.886 28.8937 12.807 28.6997 11.7644 28.4099C11.7358 28.4021 11.7177 28.3711 11.7254 28.34C11.7332 28.3142 11.7592 28.2961 11.7851 28.2986C12.8537 28.428 13.9249 28.5005 14.9779 28.4228C16.9802 28.3219 19.1199 27.4655 19.8617 25.512C21.8744 21.0902 12.5554 15.504 14.7367 11.24L14.7419 11.2452Z" fill="#CEB793"/>
<path d="M10.8226 7.88665C8.82806 6.98883 8.84362 3.78306 6.34334 4.60326C5.72865 4.82577 5.12953 5.23717 4.69639 5.74688C3.73933 6.84652 2.98977 8.14798 2.41139 9.49083C1.82003 10.8518 1.40245 12.2956 1.11975 13.7652C1.11197 13.804 1.07565 13.8273 1.03675 13.8195C1.00044 13.8118 0.977095 13.7781 0.979688 13.7419C1.15865 12.2464 1.49582 10.7664 1.98343 9.32524C2.54884 7.6926 3.30619 6.09877 4.4448 4.76626C4.89091 4.32641 5.3811 3.94865 5.97246 3.68215C8.31452 2.47125 11.9301 5.37688 10.8226 7.88147V7.88665Z" fill="#CEB793"/>
</svg>
