<svg width="98" height="31" viewBox="0 0 98 31" fill="none" xmlns="http://www.w3.org/2000/svg">
<path d="M39.0248 13.7952C38.5709 13.7952 38.1741 13.715 37.8343 13.5546C37.4919 13.3942 37.2274 13.1717 37.0354 12.8819C36.8435 12.5947 36.7476 12.2609 36.7476 11.8857C36.7476 11.7201 36.7865 11.6063 36.8617 11.5468C36.9395 11.4873 37.0458 11.4588 37.1859 11.4588C37.2974 11.4588 37.396 11.4821 37.4842 11.5261C37.5723 11.5701 37.619 11.6503 37.6242 11.7615C37.632 11.997 37.6865 12.2117 37.7928 12.4032C37.8965 12.5947 38.0496 12.7422 38.2519 12.8456C38.4542 12.9491 38.7006 13.0009 38.9937 13.0009C39.432 13.0009 39.7717 12.8819 40.013 12.6412C40.2542 12.4006 40.3735 12.028 40.3735 11.5209V6.90242H39.0144C38.9158 6.90242 38.8406 6.86102 38.7888 6.77823C38.7369 6.69543 38.7109 6.60228 38.7109 6.4962C38.7109 6.40564 38.7343 6.31767 38.7784 6.23488C38.8225 6.15208 38.9029 6.11068 39.0144 6.11068H40.8533C40.957 6.11068 41.0504 6.13655 41.1308 6.1883C41.2112 6.24005 41.2501 6.31767 41.2501 6.42376V11.5209C41.2501 12.0694 41.1516 12.5119 40.9519 12.8456C40.7521 13.1794 40.485 13.42 40.1478 13.5701C39.8106 13.7202 39.4346 13.7952 39.0248 13.7952Z" fill="white"/>
<path d="M44.3894 13.816C44.0211 13.816 43.6788 13.7229 43.3649 13.534C43.0511 13.3451 42.8021 13.0967 42.6128 12.7888C42.426 12.4783 42.3301 12.1471 42.3301 11.7927V10.7293C42.3301 10.3748 42.4235 10.0462 42.6076 9.74347C42.7917 9.44074 43.0407 9.19494 43.3546 9.00865C43.6684 8.81977 44.0134 8.72662 44.3894 8.72662C44.7655 8.72662 45.1001 8.81718 45.4139 8.9983C45.7278 9.17942 45.9793 9.42004 46.1713 9.72277C46.3632 10.0255 46.4592 10.3593 46.4592 10.7293V11.7927C46.4592 12.1394 46.3632 12.468 46.1713 12.7785C45.9793 13.089 45.7278 13.3373 45.4139 13.5288C45.1001 13.7203 44.7577 13.816 44.3894 13.816ZM44.3894 13.0346C44.6125 13.0346 44.8148 12.9751 44.9963 12.8587C45.1779 12.7397 45.3231 12.587 45.4295 12.3955C45.5384 12.2041 45.5903 12.0048 45.5903 11.7953V10.7318C45.5903 10.5223 45.5358 10.3256 45.4295 10.1419C45.3206 9.95822 45.1753 9.80556 44.9963 9.68913C44.8148 9.57011 44.6125 9.51319 44.3894 9.51319C44.1664 9.51319 43.9667 9.5727 43.7877 9.68913C43.6113 9.80815 43.4661 9.95822 43.3598 10.1419C43.2508 10.3256 43.199 10.5223 43.199 10.7318V11.7953C43.199 12.0048 43.2508 12.2041 43.3546 12.3955C43.4583 12.587 43.6036 12.7422 43.7877 12.8587C43.9719 12.9777 44.1716 13.0346 44.3894 13.0346Z" fill="white"/>
<path d="M49.5303 13.815C49.1464 13.815 48.7989 13.7219 48.4851 13.533C48.1712 13.3441 47.9222 13.0983 47.7329 12.793C47.5462 12.4877 47.4502 12.1617 47.4502 11.8124V9.1008C47.4502 9.02318 47.4943 8.95332 47.5799 8.88605C47.6655 8.81878 47.7692 8.78773 47.8885 8.78773C48.0078 8.78773 48.109 8.82136 48.192 8.88605C48.275 8.95332 48.3165 9.02318 48.3165 9.1008V11.8124C48.3165 12.022 48.3709 12.2186 48.4773 12.4023C48.5862 12.586 48.7289 12.7387 48.9104 12.8551C49.092 12.9741 49.2943 13.031 49.5173 13.031C49.7404 13.031 49.9427 12.9715 50.1242 12.8551C50.3058 12.7361 50.4485 12.586 50.5522 12.4023C50.6559 12.2186 50.7078 12.022 50.7078 11.8124V9.09045C50.7078 9.00765 50.7519 8.93521 50.8427 8.8757C50.9335 8.81619 51.0346 8.78773 51.1461 8.78773C51.2784 8.78773 51.3822 8.81619 51.46 8.8757C51.5378 8.93521 51.5741 9.00507 51.5741 9.09045V11.8124C51.5741 12.1669 51.4807 12.4955 51.2966 12.7982C51.1124 13.1009 50.8634 13.3467 50.5496 13.533C50.2358 13.7219 49.8934 13.815 49.5251 13.815H49.5303Z" fill="white"/>
<path d="M53.1853 13.7332C53.066 13.7332 52.9674 13.6995 52.887 13.6349C52.8066 13.5676 52.7651 13.4977 52.7651 13.4201V9.09399C52.7651 9.00344 52.8066 8.93099 52.887 8.87406C52.9674 8.81973 53.066 8.79127 53.1853 8.79127C53.3046 8.79127 53.4006 8.81973 53.4784 8.87406C53.5536 8.93099 53.5925 9.00344 53.5925 9.09399V9.58301C53.6703 9.43812 53.7741 9.30098 53.9063 9.17161C54.0386 9.04224 54.1942 8.93616 54.3706 8.85337C54.547 8.77057 54.7441 8.72917 54.962 8.72917H55.3173C55.4081 8.72917 55.4859 8.76798 55.5533 8.84302C55.6207 8.91805 55.6519 9.01378 55.6519 9.12504C55.6519 9.22854 55.6181 9.3191 55.5533 9.39672C55.4859 9.47434 55.4081 9.51056 55.3173 9.51056H54.962C54.7389 9.51056 54.5262 9.57266 54.3239 9.69944C54.1216 9.82364 53.9556 9.99958 53.8259 10.2273C53.6963 10.4524 53.634 10.7266 53.634 11.0449V13.4227C53.634 13.5003 53.5899 13.5702 53.5043 13.6374C53.4187 13.7047 53.3098 13.7358 53.1853 13.7358V13.7332Z" fill="white"/>
<path d="M56.7718 13.7332C56.6474 13.7332 56.5436 13.6996 56.4632 13.6349C56.3828 13.5676 56.3413 13.4978 56.3413 13.4201V9.09404C56.3413 9.00348 56.3828 8.93103 56.4632 8.87411C56.5436 8.81977 56.6448 8.79131 56.7718 8.79131C56.8834 8.79131 56.9768 8.81977 57.0546 8.87411C57.1298 8.93103 57.1687 9.00348 57.1687 9.09404V9.52095C57.2802 9.31914 57.454 9.13802 57.6926 8.97243C57.9286 8.80942 58.2217 8.72662 58.5718 8.72662C58.922 8.72662 59.2125 8.81977 59.4926 9.00348C59.7701 9.18718 59.9932 9.4304 60.1617 9.72794C60.3277 10.0281 60.4133 10.3619 60.4133 10.7293V13.4201C60.4133 13.5236 60.3692 13.6038 60.2785 13.6556C60.1877 13.7073 60.0865 13.7332 59.975 13.7332C59.8713 13.7332 59.7727 13.7073 59.6819 13.6556C59.5911 13.6038 59.5471 13.5262 59.5471 13.4201V10.7293C59.5471 10.5274 59.4926 10.3334 59.3862 10.1445C59.2773 9.95563 59.1347 9.80298 58.9531 9.68655C58.7716 9.56753 58.5744 9.5106 58.3566 9.5106C58.1672 9.5106 57.9883 9.56235 57.8119 9.66067C57.6381 9.76158 57.4955 9.9013 57.3839 10.0772C57.2724 10.2532 57.218 10.4705 57.218 10.7293V13.4201C57.218 13.4978 57.1739 13.5676 57.0883 13.6349C57.0027 13.7022 56.8989 13.7332 56.7796 13.7332H56.7718Z" fill="white"/>
<path d="M62.6775 13.816C62.2859 13.816 61.9539 13.7022 61.679 13.4771C61.4041 13.252 61.2666 12.9027 61.2666 12.4292C61.2666 12.0462 61.3704 11.7487 61.5804 11.5365C61.7905 11.3244 62.0758 11.1795 62.4415 11.0993C62.8072 11.0191 63.23 10.9802 63.7098 10.9802H64.213V10.7603C64.213 10.5507 64.1741 10.3489 64.0989 10.1497C64.021 9.95046 63.9017 9.78745 63.7383 9.66067C63.5749 9.5313 63.3493 9.46921 63.064 9.46921C62.8202 9.46921 62.6257 9.49249 62.483 9.54165C62.3404 9.59081 62.2263 9.63997 62.1433 9.69172C62.0603 9.74347 61.9876 9.76934 61.9228 9.76934C61.819 9.76934 61.7386 9.7176 61.6816 9.61927C61.6245 9.51837 61.5986 9.42263 61.5986 9.33207C61.5986 9.22082 61.6738 9.11991 61.8294 9.02935C61.9824 8.93879 62.1744 8.86634 62.4052 8.80942C62.636 8.7525 62.8617 8.72662 63.0847 8.72662C63.5724 8.72662 63.964 8.82495 64.2545 9.019C64.5476 9.21305 64.7577 9.46403 64.8873 9.76934C65.017 10.0747 65.0819 10.4007 65.0819 10.75V13.4201C65.0819 13.5029 65.0404 13.5754 64.9625 13.6401C64.8821 13.7022 64.781 13.7332 64.6539 13.7332C64.5424 13.7332 64.449 13.7022 64.3712 13.6401C64.2934 13.578 64.2571 13.5055 64.2571 13.4201V13.0036C64.0755 13.2132 63.8577 13.3994 63.5983 13.5676C63.3389 13.7332 63.0329 13.8186 62.6775 13.8186V13.816ZM62.9499 13.1174C63.1522 13.1174 63.3493 13.0631 63.5412 12.9518C63.7332 12.8406 63.894 12.7008 64.0211 12.5353C64.1481 12.3697 64.2156 12.2092 64.2156 12.0566V11.5132H63.8499C63.5568 11.5132 63.2793 11.5314 63.0199 11.565C62.7605 11.5986 62.5479 11.6737 62.3871 11.7901C62.2263 11.9039 62.1459 12.0876 62.1459 12.336C62.1459 12.6077 62.2211 12.8043 62.3767 12.9311C62.5323 13.0579 62.7216 13.12 62.9525 13.12L62.9499 13.1174Z" fill="white"/>
<path d="M66.7834 13.7329C66.6589 13.7329 66.5552 13.6992 66.4748 13.6346C66.3944 13.5699 66.3555 13.4974 66.3555 13.4198V6.11044C66.3555 6.01988 66.397 5.94744 66.4748 5.89051C66.5526 5.83359 66.6589 5.80772 66.7834 5.80772C66.9027 5.80772 67.0039 5.83618 67.0921 5.89051C67.1802 5.94485 67.2217 6.01988 67.2217 6.11044V13.4198C67.2217 13.4974 67.1776 13.5673 67.0921 13.6346C67.0039 13.7018 66.9027 13.7329 66.7834 13.7329Z" fill="white"/>
<path d="M72.5836 13.815C72.1375 13.815 71.7485 13.7477 71.4139 13.6106C71.0793 13.4734 70.8225 13.3156 70.641 13.1319C70.4594 12.9482 70.3687 12.7826 70.3687 12.6377C70.3687 12.5679 70.3868 12.498 70.4257 12.423C70.4646 12.3505 70.5139 12.2884 70.5736 12.2341C70.6332 12.1823 70.6929 12.1565 70.7551 12.1565C70.8381 12.1565 70.9211 12.1979 71.0015 12.2807C71.0819 12.3635 71.1831 12.4644 71.305 12.5782C71.4269 12.692 71.5851 12.793 71.7796 12.8758C71.9741 12.9586 72.2283 12.9999 72.5421 12.9999C72.8352 12.9999 73.0894 12.9534 73.3047 12.8602C73.5199 12.7671 73.6885 12.6248 73.8104 12.4333C73.9323 12.2418 73.992 12.0012 73.992 11.7088C73.992 11.4165 73.9297 11.1655 73.8052 10.9792C73.6807 10.7903 73.5147 10.6351 73.3073 10.5109C73.0998 10.3867 72.8793 10.2754 72.6381 10.1771C72.3969 10.0788 72.1531 9.98047 71.9067 9.87956C71.6603 9.77865 71.4346 9.65446 71.2323 9.50439C71.03 9.35432 70.8666 9.16286 70.7421 8.92482C70.6176 8.68936 70.5528 8.38923 70.5528 8.02958C70.5528 7.64665 70.6228 7.33098 70.7629 7.08001C70.9029 6.82903 71.0871 6.63239 71.3179 6.48491C71.5488 6.34002 71.7978 6.23652 72.0649 6.17701C72.3321 6.1175 72.5966 6.08904 72.8534 6.08904C73.0427 6.08904 73.2398 6.10198 73.4499 6.13044C73.6574 6.1589 73.8571 6.2003 74.0464 6.25464C74.2332 6.30897 74.3862 6.38141 74.5055 6.46938C74.6248 6.55736 74.6819 6.65826 74.6819 6.77728C74.6819 6.83421 74.6689 6.8963 74.6404 6.97134C74.6119 7.04379 74.5704 7.11106 74.5159 7.17057C74.4588 7.23008 74.3914 7.25854 74.3058 7.25854C74.228 7.25854 74.1346 7.22491 74.0231 7.16022C73.9116 7.09295 73.7637 7.02826 73.5796 6.96099C73.3954 6.89372 73.1542 6.86267 72.8534 6.86267C72.6018 6.86267 72.3684 6.89631 72.1479 6.96617C71.9274 7.03603 71.7537 7.14987 71.6266 7.31029C71.4969 7.4707 71.4321 7.68287 71.4321 7.94678C71.4321 8.19776 71.4943 8.40217 71.6188 8.56258C71.7433 8.723 71.9067 8.85496 72.109 8.95845C72.3113 9.06195 72.5344 9.15768 72.7782 9.24565C73.022 9.33362 73.2658 9.43453 73.5096 9.54838C73.7534 9.66222 73.979 9.80453 74.1839 9.97012C74.3888 10.1357 74.5548 10.3531 74.6793 10.6221C74.8038 10.8912 74.8686 11.225 74.8686 11.6286C74.8686 12.128 74.7701 12.542 74.5704 12.8628C74.3707 13.1837 74.1009 13.4269 73.7611 13.5821C73.4214 13.7374 73.0271 13.8176 72.581 13.8176L72.5836 13.815Z" fill="white"/>
<path d="M76.315 16.1214C76.1957 16.1214 76.0972 16.0877 76.0168 16.0231C75.9364 15.9558 75.8975 15.8859 75.8975 15.8083V9.09404C75.8975 9.00348 75.939 8.93103 76.0168 8.87411C76.0972 8.81977 76.1957 8.79131 76.315 8.79131C76.4344 8.79131 76.5303 8.81977 76.6081 8.87411C76.6859 8.93103 76.7222 9.00348 76.7222 9.09404V9.52095C76.8415 9.31914 77.0179 9.13802 77.2539 8.97243C77.49 8.80942 77.7804 8.72662 78.1202 8.72662C78.46 8.72662 78.7868 8.81977 79.0721 9.00348C79.3574 9.18718 79.583 9.4304 79.7516 9.72794C79.9202 10.0281 80.0032 10.3619 80.0032 10.7293V11.7927C80.0032 12.1394 79.9176 12.468 79.7464 12.7785C79.5753 13.089 79.3522 13.3373 79.0721 13.5288C78.792 13.7203 78.4859 13.816 78.1513 13.816C77.8375 13.816 77.5548 13.7332 77.3058 13.5702C77.0542 13.4072 76.8727 13.2183 76.7611 13.001V15.8057C76.7611 15.8833 76.7171 15.9532 76.6315 16.0205C76.5433 16.0851 76.4395 16.1188 76.3125 16.1188L76.315 16.1214ZM77.9464 13.0346C78.1565 13.0346 78.3511 12.9751 78.5326 12.8587C78.7142 12.7397 78.8594 12.5844 78.9709 12.3904C79.0825 12.1963 79.1395 11.9971 79.1395 11.7953V10.7318C79.1395 10.53 79.0825 10.336 78.9709 10.1471C78.8594 9.95822 78.7142 9.80556 78.5326 9.68913C78.3511 9.57011 78.1487 9.51319 77.9257 9.51319C77.739 9.51319 77.5548 9.56494 77.3758 9.66326C77.1995 9.76417 77.0516 9.90389 76.9375 10.0798C76.8234 10.2558 76.7637 10.4731 76.7637 10.7318V12.0773C76.7637 12.1678 76.813 12.2895 76.9142 12.4421C77.0153 12.5948 77.1554 12.7319 77.3318 12.8535C77.5081 12.9751 77.713 13.0372 77.9439 13.0372L77.9464 13.0346Z" fill="white"/>
<path d="M83.1933 13.8152C82.7421 13.8152 82.34 13.7298 81.9925 13.5591C81.6449 13.3883 81.37 13.1528 81.1677 12.8501C80.9654 12.5474 80.8643 12.1955 80.8643 11.7919V10.6974C80.8643 10.3429 80.9602 10.0169 81.1521 9.71679C81.3441 9.41925 81.5957 9.17862 81.9095 8.9975C82.2233 8.81638 82.5683 8.72583 82.9444 8.72583C83.3204 8.72583 83.6395 8.80862 83.9429 8.9768C84.2464 9.14239 84.4902 9.37009 84.6743 9.6547C84.8585 9.93931 84.9518 10.2705 84.9518 10.6457C84.9518 10.9225 84.9077 11.1243 84.817 11.2459C84.7262 11.3675 84.6121 11.4426 84.472 11.471C84.332 11.4995 84.1867 11.5124 84.0337 11.5124H81.7357V11.8255C81.7357 12.2162 81.8758 12.5215 82.1533 12.7492C82.4334 12.9743 82.7913 13.0882 83.2297 13.0882C83.4864 13.0882 83.6939 13.0545 83.8469 12.9847C84 12.9148 84.1271 12.8475 84.223 12.7803C84.319 12.713 84.4072 12.6819 84.485 12.6819C84.5628 12.6819 84.625 12.7052 84.6795 12.7492C84.7314 12.7958 84.7729 12.8475 84.7988 12.9122C84.8273 12.9743 84.8403 13.0312 84.8403 13.0778C84.8403 13.1684 84.7729 13.2719 84.6406 13.3857C84.5083 13.4996 84.319 13.6005 84.07 13.6884C83.821 13.7764 83.5305 13.8178 83.1959 13.8178L83.1933 13.8152ZM81.7305 10.9277H83.6628C83.8521 10.9277 83.974 10.9044 84.0337 10.8604C84.0933 10.8164 84.1219 10.7259 84.1219 10.5939C84.1219 10.3843 84.07 10.1929 83.9714 10.0143C83.8729 9.83582 83.7302 9.69351 83.5487 9.58225C83.3671 9.471 83.1622 9.41666 82.9314 9.41666C82.7161 9.41666 82.5164 9.46841 82.3349 9.56673C82.1533 9.66505 82.0081 9.80477 81.8965 9.97812C81.785 10.1515 81.7305 10.3429 81.7305 10.5525V10.9277ZM82.5242 7.6443C82.4412 7.6443 82.3686 7.60549 82.3037 7.53045C82.2389 7.45542 82.2104 7.37521 82.2104 7.28983C82.2104 7.17857 82.2545 7.10095 82.3452 7.05955L83.5694 6.41271C83.6109 6.39977 83.6446 6.39201 83.6732 6.39201C83.764 6.39201 83.834 6.42823 83.8884 6.50068C83.9429 6.57312 83.9663 6.65592 83.9663 6.74648C83.9663 6.85773 83.917 6.94053 83.8184 6.99745L82.6383 7.6029C82.6176 7.61066 82.5968 7.61843 82.5812 7.62878C82.5631 7.63913 82.5449 7.6443 82.5242 7.6443Z" fill="white"/>
<path d="M87.8333 13.816C87.3534 13.816 86.9566 13.7255 86.648 13.5443C86.3367 13.3632 86.1085 13.1226 85.9581 12.8199C85.8076 12.5171 85.7324 12.1756 85.7324 11.7927V10.75C85.7324 10.3748 85.8076 10.0333 85.9581 9.72794C86.1085 9.42263 86.3367 9.17942 86.648 8.9983C86.9592 8.81718 87.3509 8.72662 87.8229 8.72662C88.1289 8.72662 88.3987 8.76543 88.6269 8.84047C88.8578 8.91809 89.0341 9.01124 89.1586 9.12249C89.2831 9.23375 89.3454 9.34242 89.3454 9.44592C89.3454 9.50025 89.3298 9.56235 89.2987 9.62704C89.2676 9.69431 89.2261 9.75123 89.1742 9.80039C89.1223 9.84955 89.0601 9.87284 88.99 9.87284C88.92 9.87284 88.8448 9.84179 88.7644 9.77969C88.684 9.71759 88.5751 9.6555 88.4402 9.59599C88.3053 9.53648 88.1134 9.50802 87.8696 9.50802C87.4442 9.50802 87.1252 9.61928 86.9125 9.84179C86.6998 10.0643 86.5935 10.367 86.5935 10.75V11.7927C86.5935 12.1756 86.6998 12.4783 86.9125 12.7008C87.1252 12.9234 87.4468 13.0346 87.88 13.0346C88.1315 13.0346 88.3261 13.001 88.4661 12.9363C88.6062 12.869 88.7151 12.8069 88.7955 12.7474C88.8759 12.6879 88.9537 12.6595 89.0289 12.6595C89.1042 12.6595 89.1716 12.6827 89.2287 12.7267C89.2831 12.7733 89.3272 12.825 89.3583 12.8897C89.3895 12.9518 89.405 13.0139 89.405 13.0786C89.405 13.1821 89.3376 13.2934 89.2053 13.4072C89.073 13.5211 88.8889 13.6194 88.6503 13.6996C88.4143 13.7798 88.1393 13.8186 87.8255 13.8186L87.8333 13.816Z" fill="white"/>
<path d="M90.7057 7.43512C90.5604 7.43512 90.4333 7.38596 90.3244 7.28505C90.2154 7.18415 90.1636 7.06771 90.1636 6.93576C90.1636 6.8038 90.218 6.68995 90.3244 6.59163C90.4333 6.49331 90.5604 6.44674 90.7057 6.44674C90.8509 6.44674 90.9858 6.4959 91.0869 6.59163C91.1881 6.68995 91.2373 6.8038 91.2373 6.93576C91.2373 7.06771 91.1881 7.18415 91.0869 7.28505C90.9858 7.38596 90.8587 7.43512 90.7057 7.43512ZM90.7057 13.7328C90.5812 13.7328 90.4774 13.6992 90.397 13.6345C90.3166 13.5672 90.2751 13.4974 90.2751 13.4197V9.09364C90.2751 9.00308 90.3166 8.93063 90.397 8.87371C90.4774 8.81937 90.5786 8.79091 90.7057 8.79091C90.825 8.79091 90.9261 8.81937 91.0143 8.87371C91.1025 8.93063 91.144 9.00308 91.144 9.09364V13.4197C91.144 13.4974 91.0999 13.5672 91.0143 13.6345C90.9287 13.7018 90.825 13.7328 90.7057 13.7328Z" fill="white"/>
<path d="M93.4564 13.816C93.0647 13.816 92.7327 13.7022 92.4578 13.4771C92.1829 13.252 92.0454 12.9027 92.0454 12.4292C92.0454 12.0462 92.1492 11.7487 92.3592 11.5365C92.5693 11.3244 92.8546 11.1795 93.2203 11.0993C93.586 11.0191 94.0088 10.9802 94.4886 10.9802H94.9918V10.7603C94.9918 10.5507 94.9529 10.3489 94.8777 10.1497C94.7999 9.95046 94.6806 9.78745 94.5172 9.66067C94.3538 9.5313 94.1281 9.46921 93.8428 9.46921C93.599 9.46921 93.4045 9.49249 93.2618 9.54165C93.1192 9.59081 93.0051 9.63997 92.9221 9.69172C92.8391 9.74347 92.7665 9.76934 92.7016 9.76934C92.5979 9.76934 92.5175 9.7176 92.4604 9.61927C92.4033 9.51837 92.3774 9.42263 92.3774 9.33207C92.3774 9.22082 92.4526 9.11991 92.6082 9.02935C92.7613 8.93879 92.9532 8.86634 93.184 8.80942C93.4149 8.7525 93.6405 8.72662 93.8636 8.72662C94.3512 8.72662 94.7428 8.82495 95.0333 9.019C95.3264 9.21305 95.5365 9.46403 95.6661 9.76934C95.7958 10.0747 95.8607 10.4007 95.8607 10.75V13.4201C95.8607 13.5029 95.8192 13.5754 95.7414 13.6401C95.661 13.7022 95.5598 13.7332 95.4327 13.7332C95.3212 13.7332 95.2278 13.7022 95.15 13.6401C95.0722 13.578 95.0359 13.5055 95.0359 13.4201V13.0036C94.8543 13.2132 94.6365 13.3994 94.3771 13.5676C94.1177 13.7332 93.8117 13.8186 93.4564 13.8186V13.816ZM93.7261 13.1174C93.9284 13.1174 94.1255 13.0631 94.3174 12.9518C94.5094 12.8406 94.6702 12.7008 94.7973 12.5353C94.9244 12.3697 94.9918 12.2092 94.9918 12.0566V11.5132H94.6261C94.333 11.5132 94.0555 11.5314 93.7961 11.565C93.5368 11.5986 93.3241 11.6737 93.1633 11.7901C93.0025 11.9039 92.9221 12.0876 92.9221 12.336C92.9221 12.6077 92.9973 12.8043 93.1529 12.9311C93.3085 13.0579 93.4978 13.12 93.7287 13.12L93.7261 13.1174Z" fill="white"/>
<path d="M97.5617 13.7329C97.4373 13.7329 97.3335 13.6993 97.2531 13.6346C97.1727 13.5699 97.1338 13.4975 97.1338 13.4198V6.11048C97.1338 6.01992 97.1753 5.94748 97.2531 5.89055C97.3309 5.83363 97.4373 5.80775 97.5617 5.80775C97.6811 5.80775 97.7822 5.83622 97.8704 5.89055C97.9586 5.94489 98.0001 6.01992 98.0001 6.11048V13.4198C98.0001 13.4975 97.956 13.5673 97.8704 13.6346C97.7822 13.7019 97.6811 13.7329 97.5617 13.7329Z" fill="white"/>
<path d="M38.3012 25.4484C38.0497 25.4484 37.8188 25.376 37.6009 25.2285C37.3857 25.081 37.2119 24.8896 37.0822 24.6541C36.9525 24.4187 36.8877 24.1651 36.8877 23.9012V23.0888C36.8877 22.8067 36.9525 22.5532 37.0822 22.3229C37.2119 22.0952 37.3857 21.9089 37.6009 21.7692C37.8162 21.6295 38.0548 21.557 38.3168 21.557C38.5788 21.557 38.7888 21.6191 38.9678 21.7433C39.1468 21.8675 39.279 22.0072 39.362 22.1625V19.5544C39.362 19.4845 39.3958 19.4302 39.4606 19.3862C39.5254 19.3422 39.6084 19.3215 39.7044 19.3215C39.8004 19.3215 39.8782 19.3422 39.9352 19.3862C39.9949 19.4276 40.0234 19.4845 40.0234 19.5544V25.1431C40.0234 25.2026 39.9949 25.257 39.9352 25.3061C39.8756 25.3579 39.8004 25.3812 39.7044 25.3812C39.6188 25.3812 39.5462 25.3553 39.4839 25.3061C39.4217 25.2544 39.3932 25.2001 39.3932 25.1431V24.8249C39.3128 24.9905 39.1727 25.1354 38.9704 25.2596C38.7681 25.3838 38.545 25.4459 38.2986 25.4459L38.3012 25.4484ZM38.462 24.8508C38.6332 24.8508 38.7863 24.8042 38.9211 24.711C39.056 24.6179 39.1649 24.5118 39.2453 24.3954C39.3257 24.2789 39.3646 24.1858 39.3646 24.1159V23.0862C39.3646 22.8895 39.3205 22.7239 39.2324 22.5868C39.1442 22.4523 39.03 22.3436 38.8926 22.2686C38.7525 22.1909 38.6125 22.1521 38.4698 22.1521C38.2986 22.1521 38.1456 22.1961 38.0056 22.2867C37.8655 22.3772 37.7566 22.4937 37.6736 22.6385C37.5906 22.7809 37.5491 22.9309 37.5491 23.0862V23.8986C37.5491 24.0538 37.5906 24.2039 37.6736 24.354C37.7566 24.5041 37.8681 24.6231 38.0056 24.7136C38.143 24.8042 38.296 24.8482 38.462 24.8482V24.8508Z" fill="white"/>
<path d="M42.6166 25.4483C42.2717 25.4483 41.963 25.3836 41.6985 25.2542C41.4313 25.1249 41.2213 24.9438 41.0682 24.7135C40.9126 24.4832 40.8374 24.2115 40.8374 23.9036V23.0653C40.8374 22.7936 40.91 22.5452 41.0579 22.315C41.2031 22.0873 41.3976 21.9036 41.6362 21.7639C41.8749 21.6267 42.1394 21.5569 42.4273 21.5569C42.7152 21.5569 42.959 21.6216 43.1898 21.7483C43.4207 21.8751 43.6074 22.0485 43.7501 22.2658C43.8901 22.4832 43.9627 22.7367 43.9627 23.0239C43.9627 23.2361 43.929 23.3887 43.859 23.4819C43.789 23.575 43.7008 23.632 43.5944 23.6526C43.4881 23.6733 43.3766 23.6837 43.2573 23.6837H41.4988V23.9217C41.4988 24.2193 41.6051 24.4547 41.8178 24.6281C42.0305 24.8015 42.3054 24.8868 42.64 24.8868C42.8371 24.8868 42.9953 24.861 43.112 24.8066C43.2287 24.7523 43.3247 24.7005 43.3999 24.6514C43.4751 24.5996 43.54 24.5763 43.5996 24.5763C43.6593 24.5763 43.7086 24.5945 43.7475 24.6281C43.7864 24.6617 43.8175 24.7031 43.8383 24.7523C43.859 24.8014 43.8694 24.8428 43.8694 24.8791C43.8694 24.9489 43.8201 25.0266 43.7189 25.1145C43.6178 25.2025 43.4725 25.2801 43.2832 25.3448C43.0939 25.4121 42.8708 25.4431 42.6166 25.4431V25.4483ZM41.4988 23.2413H42.9772C43.1198 23.2413 43.2158 23.2231 43.2599 23.1895C43.304 23.1559 43.3273 23.086 43.3273 22.9851C43.3273 22.8247 43.2884 22.6772 43.2106 22.5427C43.1328 22.4081 43.0264 22.2969 42.8864 22.2115C42.7463 22.1261 42.5907 22.0847 42.4143 22.0847C42.2483 22.0847 42.0979 22.1235 41.9579 22.2011C41.8178 22.2787 41.7063 22.3822 41.6207 22.5168C41.5351 22.6487 41.4936 22.7962 41.4936 22.9541V23.2413H41.4988Z" fill="white"/>
<path d="M45.7802 25.4482C45.5234 25.4482 45.2977 25.4146 45.1006 25.3499C44.9035 25.2826 44.7479 25.205 44.6364 25.1144C44.5248 25.0239 44.4678 24.9333 44.4678 24.8427C44.4678 24.8013 44.4781 24.7574 44.4989 24.7108C44.5196 24.6668 44.5482 24.6254 44.5819 24.5918C44.6156 24.5581 44.6545 24.54 44.6986 24.54C44.7635 24.54 44.8309 24.5711 44.9061 24.6332C44.9813 24.6953 45.0825 24.7574 45.2096 24.8195C45.3366 24.8841 45.5208 24.9152 45.762 24.9152C46.0447 24.9152 46.2418 24.8634 46.3534 24.7599C46.4649 24.6564 46.5219 24.54 46.5219 24.4132C46.5219 24.2476 46.4753 24.1235 46.3767 24.0355C46.2807 23.9475 46.1588 23.8776 46.0084 23.8285C45.858 23.7793 45.7023 23.7276 45.5364 23.681C45.3704 23.6344 45.2147 23.5723 45.0643 23.5025C44.9139 23.43 44.7946 23.3291 44.7012 23.1998C44.6078 23.0704 44.5611 22.8944 44.5611 22.6771C44.5611 22.5012 44.6026 22.3278 44.6882 22.1596C44.7738 21.9889 44.9113 21.8465 45.1032 21.7327C45.2951 21.6189 45.5519 21.5619 45.8709 21.5619C46.0577 21.5619 46.2366 21.5826 46.4104 21.6214C46.5842 21.6603 46.7242 21.7146 46.8332 21.7819C46.9421 21.8491 46.9966 21.919 46.9966 21.994C46.9966 22.0251 46.9862 22.0691 46.9655 22.1208C46.9447 22.1751 46.9162 22.2217 46.8773 22.2631C46.841 22.3045 46.7917 22.3278 46.7346 22.3278C46.6931 22.3278 46.6309 22.3071 46.5557 22.2683C46.4778 22.2295 46.3845 22.1907 46.2755 22.1519C46.1666 22.1156 46.0343 22.0949 45.8813 22.0949C45.7049 22.0949 45.5649 22.126 45.4585 22.1855C45.3522 22.2476 45.2744 22.3175 45.2277 22.4002C45.181 22.483 45.1551 22.5658 45.1551 22.6512C45.1551 22.7832 45.2018 22.8867 45.2951 22.9617C45.3885 23.0367 45.5104 23.0963 45.6634 23.1402C45.8139 23.1842 45.9747 23.2308 46.1381 23.2748C46.3041 23.3188 46.4597 23.3835 46.6101 23.4663C46.7606 23.549 46.8825 23.6603 46.9784 23.8052C47.0744 23.9501 47.1211 24.139 47.1211 24.3796C47.1211 24.703 47.0044 24.9618 46.7709 25.1558C46.5375 25.3499 46.2055 25.4456 45.7802 25.4456V25.4482Z" fill="white"/>
<path d="M52.0324 25.469C51.5863 25.469 51.1972 25.4017 50.8626 25.2646C50.528 25.1274 50.2713 24.9696 50.0897 24.7859C49.9082 24.6022 49.8174 24.4366 49.8174 24.2917C49.8174 24.2218 49.8355 24.152 49.8744 24.077C49.9133 24.0045 49.9626 23.9424 50.0223 23.8881C50.0819 23.8363 50.1416 23.8105 50.2038 23.8105C50.2868 23.8105 50.3698 23.8519 50.4502 23.9346C50.5306 24.0174 50.6318 24.1184 50.7537 24.2322C50.8756 24.346 51.0338 24.447 51.2283 24.5297C51.4229 24.6125 51.677 24.6539 51.9909 24.6539C52.2839 24.6539 52.5381 24.6074 52.7534 24.5142C52.9687 24.4211 53.1373 24.2788 53.2592 24.0873C53.3811 23.8958 53.4407 23.6552 53.4407 23.3628C53.4407 23.0705 53.3785 22.8195 53.254 22.6332C53.1295 22.4443 52.9635 22.2891 52.756 22.1649C52.5485 22.0407 52.328 21.9294 52.0868 21.8311C51.8456 21.7328 51.6018 21.6345 51.3554 21.5336C51.109 21.4326 50.8834 21.3085 50.6811 21.1584C50.4788 21.0083 50.3154 20.8169 50.1909 20.5788C50.0664 20.3434 50.0015 20.0432 50.0015 19.6836C50.0015 19.3006 50.0716 18.985 50.2116 18.734C50.3517 18.483 50.5358 18.2864 50.7667 18.1389C50.9975 17.994 51.2465 17.8905 51.5136 17.831C51.7808 17.7715 52.0453 17.743 52.3021 17.743C52.4914 17.743 52.6885 17.756 52.8986 17.7844C53.1061 17.8129 53.3058 17.8543 53.4952 17.9086C53.6819 17.963 53.8349 18.0354 53.9543 18.1234C54.0736 18.2114 54.1306 18.3123 54.1306 18.4313C54.1306 18.4882 54.1176 18.5503 54.0891 18.6253C54.0606 18.6978 54.0191 18.765 53.9646 18.8246C53.9076 18.8841 53.8401 18.9125 53.7545 18.9125C53.6767 18.9125 53.5834 18.8789 53.4718 18.8142C53.3603 18.7469 53.2125 18.6823 53.0283 18.615C52.8442 18.5477 52.603 18.5167 52.3021 18.5167C52.0505 18.5167 51.8171 18.5503 51.5966 18.6202C51.3762 18.69 51.2024 18.8039 51.0753 18.9643C50.9456 19.1247 50.8808 19.3369 50.8808 19.6008C50.8808 19.8518 50.943 20.0562 51.0675 20.2166C51.192 20.377 51.3554 20.5089 51.5577 20.6124C51.76 20.7159 51.9831 20.8117 52.2269 20.8996C52.4707 20.9876 52.7145 21.0885 52.9583 21.2024C53.2021 21.3162 53.4277 21.4585 53.6326 21.6241C53.8375 21.7897 54.0035 22.007 54.128 22.2761C54.2525 22.5452 54.3174 22.879 54.3174 23.2826C54.3174 23.782 54.2188 24.196 54.0191 24.5168C53.8194 24.8402 53.5496 25.0809 53.2099 25.2361C52.8701 25.3913 52.4759 25.4716 52.0298 25.4716L52.0324 25.469Z" fill="white"/>
<path d="M57.2044 25.47C56.8361 25.47 56.4937 25.3769 56.1799 25.188C55.8661 24.9991 55.6171 24.7507 55.4277 24.4428C55.241 24.1323 55.145 23.8011 55.145 23.4467V22.3832C55.145 22.0288 55.2384 21.7002 55.4225 21.3975C55.6067 21.0947 55.8557 20.8489 56.1695 20.6626C56.4833 20.4763 56.8283 20.3806 57.2044 20.3806C57.5805 20.3806 57.915 20.4712 58.2289 20.6523C58.5427 20.8334 58.7943 21.074 58.9862 21.3768C59.1782 21.6795 59.2741 22.0133 59.2741 22.3832V23.4467C59.2741 23.7934 59.1782 24.122 58.9862 24.4325C58.7943 24.7429 58.5427 24.9913 58.2289 25.1828C57.915 25.3743 57.5727 25.47 57.2044 25.47ZM57.2044 24.6886C57.4274 24.6886 57.6297 24.6291 57.8113 24.5127C57.9928 24.3937 58.1381 24.241 58.2444 24.0495C58.3534 23.8581 58.4052 23.6588 58.4052 23.4493V22.3858C58.4052 22.1763 58.3508 21.9796 58.2444 21.7959C58.1355 21.6122 57.9903 21.4596 57.8113 21.3431C57.6297 21.2241 57.4274 21.1672 57.2044 21.1672C56.9813 21.1672 56.7816 21.2267 56.6027 21.3431C56.4263 21.4621 56.281 21.6122 56.1747 21.7959C56.0658 21.9796 56.0139 22.1763 56.0139 22.3858V23.4493C56.0139 23.6588 56.0658 23.8581 56.1695 24.0495C56.2733 24.241 56.4185 24.3962 56.6027 24.5127C56.7868 24.6317 56.9865 24.6886 57.2044 24.6886Z" fill="white"/>
<path d="M62.2415 25.47C61.7617 25.47 61.3648 25.3794 61.0562 25.1983C60.745 25.0172 60.5167 24.7766 60.3663 24.4739C60.2158 24.1711 60.1406 23.8296 60.1406 23.4467V22.4039C60.1406 22.0288 60.2158 21.6872 60.3663 21.3819C60.5167 21.0766 60.745 20.8334 61.0562 20.6523C61.3674 20.4712 61.7591 20.3806 62.2311 20.3806C62.5372 20.3806 62.8069 20.4194 63.0351 20.4945C63.266 20.5721 63.4423 20.6652 63.5668 20.7765C63.6913 20.8877 63.7536 20.9964 63.7536 21.0999C63.7536 21.1542 63.738 21.2163 63.7069 21.281C63.6758 21.3483 63.6343 21.4052 63.5824 21.4544C63.5305 21.5035 63.4683 21.5268 63.3982 21.5268C63.3282 21.5268 63.253 21.4958 63.1726 21.4337C63.0922 21.3716 62.9833 21.3095 62.8484 21.25C62.7135 21.1905 62.5216 21.162 62.2778 21.162C61.8524 21.162 61.5334 21.2733 61.3207 21.4958C61.1081 21.7183 61.0017 22.021 61.0017 22.4039V23.4467C61.0017 23.8296 61.1081 24.1323 61.3207 24.3548C61.5334 24.5774 61.855 24.6886 62.2882 24.6886C62.5398 24.6886 62.7343 24.655 62.8743 24.5903C63.0144 24.523 63.1233 24.4609 63.2037 24.4014C63.2841 24.3419 63.3619 24.3134 63.4372 24.3134C63.5124 24.3134 63.5798 24.3367 63.6369 24.3807C63.6913 24.4273 63.7354 24.479 63.7666 24.5437C63.7977 24.6058 63.8132 24.6679 63.8132 24.7326C63.8132 24.8361 63.7458 24.9474 63.6135 25.0612C63.4812 25.175 63.2971 25.2734 63.0585 25.3536C62.8225 25.4338 62.5475 25.4726 62.2337 25.4726L62.2415 25.47Z" fill="white"/>
<path d="M65.1138 19.0891C64.9686 19.0891 64.8415 19.04 64.7326 18.939C64.6236 18.8381 64.5718 18.7217 64.5718 18.5898C64.5718 18.4578 64.6262 18.344 64.7326 18.2456C64.8415 18.1473 64.9686 18.1007 65.1138 18.1007C65.2591 18.1007 65.394 18.1499 65.4951 18.2456C65.5963 18.344 65.6456 18.4578 65.6456 18.5898C65.6456 18.7217 65.5963 18.8381 65.4951 18.939C65.394 19.04 65.2669 19.0891 65.1138 19.0891ZM65.1138 25.3842C64.9893 25.3842 64.8856 25.3506 64.8052 25.2859C64.7248 25.2186 64.6833 25.1488 64.6833 25.0712V20.745C64.6833 20.6545 64.7248 20.582 64.8052 20.5251C64.8856 20.4708 64.9868 20.4423 65.1138 20.4423C65.2331 20.4423 65.3343 20.4708 65.4225 20.5251C65.5107 20.582 65.5522 20.6545 65.5522 20.745V25.0712C65.5522 25.1488 65.5081 25.2186 65.4225 25.2859C65.3369 25.3532 65.2331 25.3842 65.1138 25.3842Z" fill="white"/>
<path d="M68.9209 25.4693C68.4696 25.4693 68.0676 25.3839 67.72 25.2131C67.3725 25.0423 67.0976 24.8069 66.8953 24.5042C66.693 24.2014 66.5918 23.8495 66.5918 23.4459V22.3515C66.5918 21.997 66.6878 21.671 66.8797 21.3708C67.0716 21.0733 67.3232 20.8327 67.637 20.6515C67.9509 20.4704 68.2958 20.3799 68.6719 20.3799C69.048 20.3799 69.367 20.4627 69.6705 20.6308C69.9739 20.7964 70.2177 21.0241 70.4019 21.3087C70.586 21.5933 70.6794 21.9245 70.6794 22.2997C70.6794 22.5766 70.6353 22.7784 70.5445 22.9C70.4537 23.0216 70.3396 23.0966 70.1996 23.1251C70.0595 23.1535 69.9143 23.1665 69.7612 23.1665H67.4633V23.4796C67.4633 23.8702 67.6033 24.1756 67.8808 24.4033C68.161 24.6284 68.5189 24.7422 68.9572 24.7422C69.214 24.7422 69.4215 24.7086 69.5745 24.6387C69.7275 24.5688 69.8546 24.5016 69.9506 24.4343C70.0465 24.367 70.1347 24.336 70.2125 24.336C70.2903 24.336 70.3526 24.3593 70.4071 24.4033C70.4589 24.4498 70.5004 24.5016 70.5264 24.5663C70.5549 24.6284 70.5679 24.6853 70.5679 24.7318C70.5679 24.8224 70.5004 24.9259 70.3681 25.0397C70.2359 25.1536 70.0465 25.2545 69.7976 25.3425C69.5486 25.4304 69.2581 25.4718 68.9235 25.4718L68.9209 25.4693ZM67.4581 22.5817H69.3904C69.5797 22.5817 69.7016 22.5584 69.7612 22.5145C69.8209 22.4705 69.8494 22.3799 69.8494 22.248C69.8494 22.0384 69.7976 21.8469 69.699 21.6684C69.6004 21.4899 69.4578 21.3475 69.2762 21.2363C69.0947 21.125 68.8898 21.0707 68.6589 21.0707C68.4437 21.0707 68.244 21.1224 68.0624 21.2208C67.8808 21.3217 67.7356 21.4588 67.6241 21.6322C67.5126 21.8055 67.4581 21.997 67.4581 22.2066V22.5817ZM68.2517 19.2958C68.1687 19.2958 68.0961 19.2569 68.0313 19.1819C67.9664 19.1069 67.9379 19.0267 67.9379 18.9413C67.9379 18.83 67.982 18.7524 68.0728 18.711L69.297 18.0642C69.3385 18.0512 69.3722 18.0435 69.4007 18.0435C69.4915 18.0435 69.5615 18.0797 69.616 18.1521C69.6705 18.2246 69.6938 18.3074 69.6938 18.3979C69.6938 18.5092 69.6445 18.592 69.546 18.6489L68.3659 19.2544C68.3451 19.2621 68.3244 19.2699 68.3088 19.2802C68.2932 19.2906 68.2725 19.2958 68.2517 19.2958Z" fill="white"/>
<path d="M73.3514 25.3836C72.7859 25.3836 72.358 25.2594 72.0597 25.0084C71.7641 24.7575 71.6162 24.359 71.6162 23.8105V18.4417C71.6162 18.3511 71.6603 18.2787 71.7511 18.2217C71.8419 18.1648 71.9404 18.1389 72.0442 18.1389C72.1557 18.1389 72.2568 18.1674 72.3476 18.2217C72.4384 18.2761 72.4825 18.3511 72.4825 18.4417V20.4443H73.8001C73.8831 20.4443 73.9479 20.4779 73.992 20.5478C74.0361 20.6176 74.0594 20.6979 74.0594 20.7884C74.0594 20.879 74.0361 20.9566 73.992 21.0239C73.9479 21.0911 73.8831 21.1222 73.8001 21.1222H72.4825V23.8131C72.4825 24.1132 72.5473 24.3228 72.677 24.4444C72.8067 24.566 73.0297 24.6255 73.3514 24.6255H73.6756C73.8001 24.6255 73.896 24.6643 73.9583 24.7394C74.0205 24.817 74.0516 24.9024 74.0516 25.0007C74.0516 25.099 74.0205 25.187 73.9583 25.2672C73.896 25.3474 73.8027 25.3862 73.6756 25.3862H73.3514V25.3836Z" fill="white"/>
<path d="M76.9121 25.4693C76.4608 25.4693 76.0588 25.3839 75.7113 25.2131C75.3637 25.0423 75.0888 24.8069 74.8865 24.5042C74.6842 24.2014 74.583 23.8495 74.583 23.4459V22.3515C74.583 21.997 74.679 21.671 74.8709 21.3708C75.0628 21.0733 75.3144 20.8327 75.6283 20.6515C75.9421 20.4704 76.287 20.3799 76.6631 20.3799C77.0392 20.3799 77.3582 20.4627 77.6617 20.6308C77.9651 20.7964 78.2089 21.0241 78.3931 21.3087C78.5772 21.5933 78.6706 21.9245 78.6706 22.2997C78.6706 22.5766 78.6265 22.7784 78.5357 22.9C78.4449 23.0216 78.3308 23.0966 78.1908 23.1251C78.0507 23.1535 77.9055 23.1665 77.7525 23.1665H75.4545V23.4796C75.4545 23.8702 75.5945 24.1756 75.8721 24.4033C76.1522 24.6284 76.5101 24.7422 76.9484 24.7422C77.2052 24.7422 77.4127 24.7086 77.5657 24.6387C77.7187 24.5688 77.8458 24.5016 77.9418 24.4343C78.0377 24.367 78.1259 24.336 78.2037 24.336C78.2816 24.336 78.3438 24.3593 78.3983 24.4033C78.4501 24.4498 78.4916 24.5016 78.5176 24.5663C78.5461 24.6284 78.5591 24.6853 78.5591 24.7318C78.5591 24.8224 78.4916 24.9259 78.3594 25.0397C78.2271 25.1536 78.0378 25.2545 77.7888 25.3425C77.5398 25.4304 77.2493 25.4718 76.9147 25.4718L76.9121 25.4693ZM75.4493 22.5817H77.3816C77.5709 22.5817 77.6928 22.5584 77.7525 22.5145C77.8121 22.4705 77.8406 22.3799 77.8406 22.248C77.8406 22.0384 77.7888 21.8469 77.6902 21.6684C77.5916 21.4899 77.449 21.3475 77.2674 21.2363C77.0859 21.125 76.881 21.0707 76.6502 21.0707C76.4349 21.0707 76.2352 21.1224 76.0536 21.2208C75.8721 21.3191 75.7268 21.4588 75.6153 21.6322C75.5038 21.8055 75.4493 21.997 75.4493 22.2066V22.5817ZM76.2429 19.2958C76.16 19.2958 76.0873 19.2569 76.0225 19.1819C75.9576 19.1069 75.9291 19.0267 75.9291 18.9413C75.9291 18.83 75.9732 18.7524 76.064 18.711L77.2882 18.0642C77.3297 18.0512 77.3634 18.0435 77.3919 18.0435C77.4827 18.0435 77.5527 18.0797 77.6072 18.1521C77.6617 18.2246 77.685 18.3074 77.685 18.3979C77.685 18.5092 77.6357 18.592 77.5372 18.6489L76.3571 19.2544C76.3363 19.2621 76.3156 19.2699 76.3 19.2802C76.2844 19.2906 76.2637 19.2958 76.2429 19.2958Z" fill="white"/>
<path d="M81.0538 25.4688C80.7192 25.4688 80.4235 25.4248 80.1667 25.3394C79.9074 25.2514 79.7076 25.1505 79.5598 25.0315C79.412 24.9125 79.3394 24.7961 79.3394 24.677C79.3394 24.6227 79.3523 24.5632 79.3808 24.5037C79.4094 24.4442 79.4457 24.3924 79.4898 24.3484C79.5339 24.3045 79.5857 24.2812 79.6402 24.2812C79.7232 24.2812 79.814 24.3226 79.9126 24.4002C80.0085 24.4804 80.1434 24.5632 80.3094 24.646C80.4754 24.7288 80.7166 24.7702 81.0304 24.7702C81.3987 24.7702 81.6581 24.7029 81.8033 24.5658C81.9512 24.4312 82.0238 24.2786 82.0238 24.113C82.0238 23.8982 81.9615 23.7326 81.837 23.6188C81.7125 23.505 81.5517 23.4144 81.3572 23.3471C81.1627 23.2799 80.9578 23.2178 80.7399 23.1531C80.5247 23.091 80.3172 23.0133 80.1226 22.9176C79.9281 22.8245 79.7699 22.6925 79.648 22.5217C79.5261 22.351 79.4664 22.1233 79.4664 21.8387C79.4664 21.6084 79.5209 21.3833 79.6324 21.1608C79.744 20.9383 79.9255 20.752 80.1771 20.6019C80.4287 20.4518 80.7633 20.3768 81.1808 20.3768C81.4246 20.3768 81.6607 20.4027 81.8863 20.4544C82.112 20.5062 82.2987 20.576 82.4414 20.664C82.584 20.752 82.6566 20.8425 82.6566 20.9409C82.6566 20.9823 82.6437 21.0392 82.6151 21.1064C82.5866 21.1737 82.5477 21.2384 82.501 21.2953C82.4543 21.3522 82.3895 21.3781 82.3143 21.3781C82.2572 21.3781 82.1794 21.3522 82.0782 21.3005C81.9771 21.2488 81.8552 21.197 81.7125 21.1504C81.5699 21.1013 81.3987 21.078 81.1964 21.078C80.9656 21.078 80.7814 21.1168 80.6414 21.197C80.5013 21.2772 80.4002 21.3704 80.3379 21.479C80.2757 21.5877 80.2445 21.6964 80.2445 21.8076C80.2445 21.981 80.3068 22.1181 80.4287 22.2138C80.5506 22.3122 80.7114 22.3898 80.9085 22.4493C81.1082 22.5088 81.3131 22.5683 81.531 22.6278C81.7463 22.6873 81.9512 22.7701 82.1483 22.8788C82.3428 22.9875 82.5036 23.135 82.6281 23.3212C82.7526 23.5101 82.8148 23.7585 82.8148 24.0716C82.8148 24.4959 82.6618 24.8349 82.3558 25.0884C82.0497 25.342 81.6166 25.4688 81.0589 25.4688H81.0538Z" fill="white"/>
<path d="M31.646 1.59547V29.6815" stroke="white" stroke-width="1.52" stroke-miterlimit="10" stroke-linecap="round"/>
<path d="M25.5785 2.47525C23.514 2.99273 21.3613 3.23594 19.2319 3.01343C18.0621 2.86336 16.9339 2.5063 15.816 2.94874C14.2002 3.53349 13.4273 5.40158 13.6478 7.02646C14.6152 16.0254 8.76133 23.2442 0 24.97C8.14405 21.8108 12.7685 16.1315 12.1175 7.17911C11.8063 4.66418 13.4532 1.85686 16.1117 1.55155C17.4526 1.32386 18.6976 1.91378 19.9892 2.08973C21.8074 2.36399 23.667 2.34588 25.5318 2.21133C25.6071 2.20357 25.6771 2.25791 25.6823 2.33553C25.6875 2.4028 25.6434 2.45972 25.5811 2.47525H25.5785Z" fill="white"/>
<path d="M25.6263 2.55007C23.1287 3.99901 20.9993 6.2371 20.4105 9.09357C20.1589 10.4752 20.0785 12.0484 19.9489 13.4844L19.9048 14.0484C19.827 15.4844 19.4535 16.9282 18.6858 18.1572C15.4644 23.1845 7.55901 24.7291 2.04492 25.4355C7.04806 23.8391 14.401 21.9296 17.2826 17.3111C18.0166 16.1183 18.2967 14.7315 18.3875 13.3446C18.5638 11.8155 18.6287 10.2553 19.0022 8.74945C19.8659 5.61354 22.5036 3.25902 25.5459 2.33532C25.6678 2.30945 25.7586 2.46987 25.6263 2.54749V2.55007Z" fill="white"/>
<path d="M14.7419 12.2452C15.5173 13.8494 16.3629 15.5312 17.4081 16.9775C19.828 20.3825 23.4487 24.3723 19.732 28.3517C18.4949 29.5755 16.643 29.9791 14.9908 29.9248C13.886 29.8937 12.807 29.6997 11.7644 29.4099C11.7358 29.4021 11.7177 29.3711 11.7254 29.34C11.7332 29.3142 11.7592 29.2961 11.7851 29.2986C12.8537 29.428 13.9249 29.5005 14.9779 29.4228C16.9802 29.3219 19.1199 28.4655 19.8617 26.512C21.8744 22.0902 12.5554 16.504 14.7367 12.24L14.7419 12.2452Z" fill="#CEB793"/>
<path d="M10.8226 8.88665C8.82806 7.98883 8.84362 4.78306 6.34334 5.60326C5.72865 5.82577 5.12953 6.23717 4.69639 6.74688C3.73933 7.84652 2.98977 9.14798 2.41139 10.4908C1.82003 11.8518 1.40245 13.2956 1.11975 14.7652C1.11197 14.804 1.07565 14.8273 1.03675 14.8195C1.00044 14.8118 0.977095 14.7781 0.979688 14.7419C1.15865 13.2464 1.49582 11.7664 1.98343 10.3252C2.54884 8.6926 3.30619 7.09877 4.4448 5.76626C4.89091 5.32641 5.3811 4.94865 5.97246 4.68215C8.31452 3.47125 11.9301 6.37688 10.8226 8.88147V8.88665Z" fill="#CEB793"/>
</svg>
