<svg width="128" height="112" viewBox="0 0 128 112" fill="none" xmlns="http://www.w3.org/2000/svg">
<path d="M114.48 55.8912C114.48 40.9632 108.666 26.9285 98.1106 16.373C87.5551 5.81728 73.5204 0.00390625 58.5924 0.00390625C43.6642 0.00390625 29.6297 5.81728 19.074 16.373C8.51845 26.9285 2.70508 40.9632 2.70508 55.8912C2.70508 70.8193 8.51845 84.854 19.0742 95.4097C29.6297 105.965 43.6642 111.779 58.5924 111.779C73.5204 111.779 87.5551 105.965 98.1106 95.4097C108.666 84.854 114.48 70.8193 114.48 55.8912ZM105.727 74.9999C101.377 70.883 95.8059 67.9784 89.735 65.9566C90.0672 62.6678 90.2393 59.3021 90.2393 55.8904C90.2393 52.4788 90.0672 49.1138 89.735 45.8252C95.8057 43.8032 101.377 40.8984 105.727 36.781C108.129 42.6844 109.456 49.1352 109.456 55.8912C109.456 62.6466 108.129 69.097 105.727 74.9999ZM31.9682 55.8906C31.9682 52.9641 32.1003 50.077 32.3564 47.2505C40.2574 49.2354 48.6438 49.9637 56.0803 50.0923V61.6904C48.6442 61.819 40.2579 62.5475 32.3564 64.5317C32.1003 61.705 31.9682 58.8175 31.9682 55.8906ZM56.0801 106.522C50.1796 105.433 44.6145 100.526 40.1948 92.4289C40.1149 92.2826 40.0376 92.1333 39.9586 91.9855C45.0915 88.3465 50.5237 86.233 56.0799 85.7429V106.522H56.0801ZM61.1036 85.7434C66.66 86.2333 72.0925 88.3463 77.2249 91.9855C77.1461 92.1335 77.0684 92.2828 76.9885 92.4293C72.569 100.526 67.0037 105.434 61.1034 106.523L61.1036 85.7434ZM61.1036 5.25841C67.0039 6.34734 72.5693 11.2552 76.9887 19.3518C77.0686 19.4981 77.1459 19.6472 77.2249 19.795C72.0929 23.434 66.6607 25.5475 61.1038 26.0371L61.1036 5.25841ZM56.0801 26.0369C50.5237 25.5468 45.0912 23.4331 39.9592 19.7941C40.0378 19.6468 40.1153 19.4977 40.1948 19.3518C44.6145 11.2552 50.1796 6.34734 56.0801 5.25841V26.0369ZM61.1036 31.076C67.4549 30.6042 73.6217 28.3436 79.408 24.3998C81.6435 29.7198 83.2715 35.7439 84.2248 42.1818C77.6015 43.9252 69.8205 44.9074 61.1036 45.065V31.076ZM81.2106 16.6066C79.2583 13.0894 77.0817 10.0924 74.7325 7.65348C78.4451 8.89872 81.9668 10.5627 85.2441 12.5869C83.9286 14.041 82.5825 15.3801 81.2106 16.6066ZM35.9735 16.6059C34.6019 15.3797 33.256 14.0408 31.9409 12.5873C35.2175 10.5633 38.7389 8.89982 42.4508 7.65436C40.1016 10.0927 37.9257 13.0894 35.9735 16.6059ZM56.0801 31.076V45.065C47.3632 44.9072 39.582 43.9252 32.9585 42.1816C33.912 35.7434 35.5398 29.7194 37.7752 24.3994C43.5622 28.3434 49.7288 30.604 56.0801 31.076ZM56.0801 66.7172V80.7041C49.7292 81.1761 43.5624 83.4369 37.7755 87.3807C35.5402 82.0609 33.9123 76.0377 32.9589 69.6002C39.5822 67.8568 47.3634 66.8751 56.0801 66.7172ZM35.9742 95.1724C37.9265 98.6891 40.1013 101.689 42.4504 104.128C38.7373 102.882 35.2151 101.218 31.9379 99.1937C33.2545 97.7388 34.6012 96.3993 35.9742 95.1724ZM81.2095 95.1715C82.5827 96.3988 83.9301 97.7386 85.2465 99.1937C81.9686 101.219 78.4462 102.883 74.7325 104.129C77.0819 101.689 79.2572 98.6889 81.2095 95.1715ZM61.1036 80.7039V66.717C69.8203 66.8748 77.6013 67.8566 84.2246 69.5998C83.271 76.0373 81.6435 82.0605 79.4082 87.38C73.6213 83.4365 67.4545 81.1759 61.1036 80.7039ZM61.1036 61.6904V50.0923C68.5397 49.9639 76.9261 49.2352 84.8271 47.2508C85.083 50.077 85.2153 52.9641 85.2153 55.8906C85.2153 58.8177 85.0832 61.7048 84.8271 64.5317C76.9258 62.5473 68.5399 61.8188 61.1036 61.6904ZM103.456 31.9464C103.44 31.9632 103.422 31.9778 103.406 31.995C100.033 35.6157 95.1763 38.5367 89.0752 40.6951C87.9693 33.6435 86.0927 27.0508 83.5221 21.2596C85.5452 19.5415 87.511 17.6045 89.4127 15.4576C95.1912 19.8729 99.999 25.4953 103.456 31.9464ZM27.7716 15.4578C29.6731 17.6045 31.639 19.5413 33.6616 21.259C31.0908 27.0501 29.2142 33.6428 28.1083 40.6947C22.0074 38.5363 17.1513 35.6155 13.7788 31.9948C13.7627 31.9776 13.7452 31.9629 13.7289 31.9464C17.1858 25.4953 21.9936 19.8732 27.7716 15.4578ZM11.4582 36.781C15.808 40.8981 21.3789 43.8028 27.449 45.8247C27.1167 49.1134 26.9447 52.4788 26.9447 55.8901C26.9447 59.3021 27.1167 62.6678 27.449 65.9568C21.3784 67.9786 15.8076 70.883 11.4573 74.9995C9.05571 69.097 7.72861 62.6466 7.72861 55.8912C7.72861 49.1352 9.05593 42.6846 11.4582 36.781ZM13.7278 79.8344C13.7444 79.8176 13.7623 79.8027 13.7784 79.785C17.1513 76.165 22.0076 73.2449 28.1085 71.0867C29.2144 78.1375 31.091 84.7298 33.661 90.5204C31.6377 92.2385 29.6709 94.1756 27.769 96.3224C21.9917 91.9073 17.1845 86.2852 13.7278 79.8344ZM89.4153 96.3227C87.513 94.1756 85.5462 92.2383 83.5227 90.52C86.0931 84.7293 87.9693 78.1375 89.075 71.0865C95.1761 73.2443 100.033 76.1648 103.406 79.785C103.422 79.8027 103.44 79.8171 103.457 79.8344C100 86.2854 95.1929 91.9076 89.4153 96.3227Z" fill="url(#paint0_linear_2107_8532)"/>
<rect x="0.5" y="0.5" width="40.4648" height="40.4648" rx="20.2324" fill="url(#paint1_linear_2107_8532)" stroke="url(#paint2_linear_2107_8532)"/>
<rect x="87.9365" y="46.4727" width="39.5634" height="40.4648" rx="19.7817" fill="url(#paint3_linear_2107_8532)" stroke="url(#paint4_linear_2107_8532)"/>
<defs>
<linearGradient id="paint0_linear_2107_8532" x1="58.5924" y1="0.00390625" x2="58.5924" y2="111.779" gradientUnits="userSpaceOnUse">
<stop stop-color="#FFF7EA"/>
<stop offset="0.76906" stop-color="#BB9C75"/>
</linearGradient>
<linearGradient id="paint1_linear_2107_8532" x1="20.8732" y1="1.13629e-05" x2="20.8732" y2="41.4648" gradientUnits="userSpaceOnUse">
<stop stop-color="white" stop-opacity="0.4"/>
<stop offset="0.285" stop-color="white" stop-opacity="0.1986"/>
<stop offset="1" stop-color="white" stop-opacity="0.02"/>
</linearGradient>
<linearGradient id="paint2_linear_2107_8532" x1="20.8732" y1="1.13629e-05" x2="20.8732" y2="41.4648" gradientUnits="userSpaceOnUse">
<stop stop-color="white" stop-opacity="0.4"/>
<stop offset="0.285" stop-color="white" stop-opacity="0.1986"/>
<stop offset="1" stop-color="white" stop-opacity="0.02"/>
</linearGradient>
<linearGradient id="paint3_linear_2107_8532" x1="107.856" y1="45.9727" x2="107.856" y2="87.4374" gradientUnits="userSpaceOnUse">
<stop stop-color="white" stop-opacity="0.4"/>
<stop offset="0.285" stop-color="white" stop-opacity="0.1986"/>
<stop offset="1" stop-color="white" stop-opacity="0.02"/>
</linearGradient>
<linearGradient id="paint4_linear_2107_8532" x1="107.856" y1="45.9727" x2="107.856" y2="87.4374" gradientUnits="userSpaceOnUse">
<stop stop-color="white" stop-opacity="0.4"/>
<stop offset="0.285" stop-color="white" stop-opacity="0.1986"/>
<stop offset="1" stop-color="white" stop-opacity="0.02"/>
</linearGradient>
</defs>
</svg>
