<svg width="128" height="128" viewBox="0 0 128 128" fill="none" xmlns="http://www.w3.org/2000/svg">
<path d="M61.5469 70.3418H75.5703V66.4855C75.5703 65.1859 75.191 63.8947 74.407 62.8593C73.9425 62.2457 73.3161 61.6747 72.4895 61.3594C72.4895 61.3594 68.5437 64.8578 64.4061 61.3594C64.4061 61.3594 63.1064 61.6619 62.186 63.6306C61.7471 64.5723 61.5511 65.6077 61.5511 66.6474V70.3418H61.5469Z" fill="url(#paint0_linear_1690_12285)" stroke="url(#paint1_linear_1690_12285)" stroke-miterlimit="10" stroke-linecap="round"/>
<path d="M73.2196 55.6528C73.2196 58.2289 71.1312 60.3173 68.5551 60.3173C65.979 60.3173 63.8906 58.2289 63.8906 55.6528C63.8906 53.0766 65.979 50.9883 68.5551 50.9883C71.1312 50.9883 73.2196 53.0766 73.2196 55.6528Z" fill="url(#paint2_linear_1690_12285)" stroke="url(#paint3_linear_1690_12285)" stroke-linecap="round"/>
<path d="M68.5 79.0038C78.7172 79.0038 86.9999 70.8331 86.9999 60.7539C86.9999 50.6747 78.7172 42.5039 68.5 42.5039C58.2827 42.5039 50 50.6747 50 60.7539C50 70.8331 58.2827 79.0038 68.5 79.0038Z" stroke="url(#paint4_linear_1690_12285)" stroke-width="4" stroke-miterlimit="10" stroke-linecap="round"/>
<path d="M84.5902 119.017H93.6962V116.512C93.6962 115.668 93.4491 114.829 92.942 114.155C92.6395 113.759 92.2347 113.384 91.6935 113.18C91.6935 113.18 89.1283 115.451 86.4438 113.18C86.4438 113.18 85.6001 113.376 84.9993 114.654C84.7138 115.263 84.5859 115.937 84.5859 116.614V119.013L84.5902 119.017Z" fill="url(#paint5_linear_1690_12285)" stroke="url(#paint6_linear_1690_12285)" stroke-miterlimit="10" stroke-linecap="round"/>
<path d="M91.9961 109.475C91.9961 111.051 90.7185 112.328 89.1426 112.328C87.5666 112.328 86.2891 111.051 86.2891 109.475C86.2891 107.899 87.5666 106.621 89.1426 106.621C90.7185 106.621 91.9961 107.899 91.9961 109.475Z" fill="url(#paint7_linear_1690_12285)" stroke="url(#paint8_linear_1690_12285)" stroke-linecap="round"/>
<path d="M89 125C95.6274 125 101 119.627 101 113C101 106.373 95.6274 101 89 101C82.3726 101 77 106.373 77 113C77 119.627 82.3726 125 89 125Z" stroke="url(#paint9_linear_1690_12285)" stroke-width="4" stroke-miterlimit="10" stroke-linecap="round"/>
<path d="M86.4535 20.8729H95.5595V18.3674C95.5595 17.5237 95.3124 16.6842 94.8053 16.011C94.5028 15.6147 94.098 15.2397 93.5568 15.0352C93.5568 15.0352 90.9916 17.3063 88.3071 15.0352C88.3071 15.0352 87.4634 15.2312 86.8625 16.5095C86.5771 17.1188 86.4492 17.7921 86.4492 18.4696V20.8686L86.4535 20.8729Z" fill="url(#paint10_linear_1690_12285)" stroke="url(#paint11_linear_1690_12285)" stroke-miterlimit="10" stroke-linecap="round"/>
<path d="M93.8555 11.334C93.8555 12.9099 92.5779 14.1875 91.0019 14.1875C89.426 14.1875 88.1484 12.9099 88.1484 11.334C88.1484 9.75803 89.426 8.48047 91.0019 8.48047C92.5779 8.48047 93.8555 9.75803 93.8555 11.334Z" fill="url(#paint12_linear_1690_12285)" stroke="url(#paint13_linear_1690_12285)" stroke-linecap="round"/>
<path d="M91 26.5C97.6274 26.5 103 21.2393 103 14.75C103 8.26064 97.6274 3 91 3C84.3726 3 79 8.26064 79 14.75C79 21.2393 84.3726 26.5 91 26.5Z" stroke="url(#paint14_linear_1690_12285)" stroke-width="4" stroke-miterlimit="10" stroke-linecap="round"/>
<path d="M89 64.5L107 73.5" stroke="url(#paint15_linear_1690_12285)" stroke-width="4" stroke-miterlimit="10" stroke-linecap="round"/>
<path d="M58 79L53.5 88.5" stroke="url(#paint16_linear_1690_12285)" stroke-width="4" stroke-miterlimit="10" stroke-linecap="round"/>
<path d="M47.5 58L22.5 58" stroke="url(#paint17_linear_1690_12285)" stroke-width="4" stroke-miterlimit="10" stroke-linecap="round"/>
<path d="M56 44.5L47.5 33" stroke="url(#paint18_linear_1690_12285)" stroke-width="4" stroke-miterlimit="10" stroke-linecap="round"/>
<path d="M13.5 64C17.0898 64 20 61.2018 20 57.75C20 54.2982 17.0898 51.5 13.5 51.5C9.91014 51.5 7 54.2982 7 57.75C7 61.2018 9.91014 64 13.5 64Z" fill="url(#paint19_linear_1690_12285)"/>
<path d="M43 33C46.5898 33 49.5 30.0898 49.5 26.5C49.5 22.9101 46.5898 20 43 20C39.4101 20 36.5 22.9101 36.5 26.5C36.5 30.0898 39.4101 33 43 33Z" fill="url(#paint20_linear_1690_12285)"/>
<path d="M50.25 100.996C53.7018 100.996 56.5 98.0859 56.5 94.4961C56.5 90.9062 53.7018 87.9961 50.25 87.9961C46.7982 87.9961 44 90.9062 44 94.4961C44 98.0859 46.7982 100.996 50.25 100.996Z" fill="url(#paint21_linear_1690_12285)"/>
<path d="M113.5 83C117.09 83 120 80.0898 120 76.5C120 72.9101 117.09 70 113.5 70C109.91 70 107 72.9101 107 76.5C107 80.0898 109.91 83 113.5 83Z" fill="url(#paint22_linear_1690_12285)"/>
<path d="M75.5 81L84.5 100" stroke="url(#paint23_linear_1690_12285)" stroke-width="4" stroke-miterlimit="10" stroke-linecap="round"/>
<path d="M79 43L85.5 28" stroke="url(#paint24_linear_1690_12285)" stroke-width="4" stroke-miterlimit="10" stroke-linecap="round"/>
<defs>
<linearGradient id="paint0_linear_1690_12285" x1="68.6062" y1="61.3594" x2="68.6062" y2="70.3418" gradientUnits="userSpaceOnUse">
<stop stop-color="white" stop-opacity="0.4"/>
<stop offset="0.285" stop-color="white" stop-opacity="0.1986"/>
<stop offset="1" stop-color="white" stop-opacity="0.02"/>
</linearGradient>
<linearGradient id="paint1_linear_1690_12285" x1="68.6062" y1="61.3594" x2="68.6062" y2="70.3418" gradientUnits="userSpaceOnUse">
<stop stop-color="white" stop-opacity="0.4"/>
<stop offset="0.285" stop-color="white" stop-opacity="0.1986"/>
<stop offset="1" stop-color="white" stop-opacity="0.02"/>
</linearGradient>
<linearGradient id="paint2_linear_1690_12285" x1="68.5902" y1="50.4883" x2="68.5902" y2="60.8173" gradientUnits="userSpaceOnUse">
<stop stop-color="white" stop-opacity="0.4"/>
<stop offset="0.285" stop-color="white" stop-opacity="0.1986"/>
<stop offset="1" stop-color="white" stop-opacity="0.02"/>
</linearGradient>
<linearGradient id="paint3_linear_1690_12285" x1="68.5902" y1="50.4883" x2="68.5902" y2="60.8173" gradientUnits="userSpaceOnUse">
<stop stop-color="white" stop-opacity="0.4"/>
<stop offset="0.285" stop-color="white" stop-opacity="0.1986"/>
<stop offset="1" stop-color="white" stop-opacity="0.02"/>
</linearGradient>
<linearGradient id="paint4_linear_1690_12285" x1="68.5" y1="42.5039" x2="68.5" y2="79.0038" gradientUnits="userSpaceOnUse">
<stop stop-color="#FFF7EA"/>
<stop offset="0.76906" stop-color="#BB9C75"/>
</linearGradient>
<linearGradient id="paint5_linear_1690_12285" x1="89.172" y1="113.18" x2="89.172" y2="119.017" gradientUnits="userSpaceOnUse">
<stop stop-color="white" stop-opacity="0.4"/>
<stop offset="0.285" stop-color="white" stop-opacity="0.1986"/>
<stop offset="1" stop-color="white" stop-opacity="0.02"/>
</linearGradient>
<linearGradient id="paint6_linear_1690_12285" x1="89.172" y1="113.18" x2="89.172" y2="119.017" gradientUnits="userSpaceOnUse">
<stop stop-color="white" stop-opacity="0.4"/>
<stop offset="0.285" stop-color="white" stop-opacity="0.1986"/>
<stop offset="1" stop-color="white" stop-opacity="0.02"/>
</linearGradient>
<linearGradient id="paint7_linear_1690_12285" x1="89.1653" y1="106.121" x2="89.1653" y2="112.828" gradientUnits="userSpaceOnUse">
<stop stop-color="white" stop-opacity="0.4"/>
<stop offset="0.285" stop-color="white" stop-opacity="0.1986"/>
<stop offset="1" stop-color="white" stop-opacity="0.02"/>
</linearGradient>
<linearGradient id="paint8_linear_1690_12285" x1="89.1653" y1="106.121" x2="89.1653" y2="112.828" gradientUnits="userSpaceOnUse">
<stop stop-color="white" stop-opacity="0.4"/>
<stop offset="0.285" stop-color="white" stop-opacity="0.1986"/>
<stop offset="1" stop-color="white" stop-opacity="0.02"/>
</linearGradient>
<linearGradient id="paint9_linear_1690_12285" x1="89" y1="101" x2="89" y2="125" gradientUnits="userSpaceOnUse">
<stop stop-color="#FFF7EA"/>
<stop offset="0.76906" stop-color="#BB9C75"/>
</linearGradient>
<linearGradient id="paint10_linear_1690_12285" x1="91.0353" y1="15.0352" x2="91.0353" y2="20.8729" gradientUnits="userSpaceOnUse">
<stop stop-color="white" stop-opacity="0.4"/>
<stop offset="0.285" stop-color="white" stop-opacity="0.1986"/>
<stop offset="1" stop-color="white" stop-opacity="0.02"/>
</linearGradient>
<linearGradient id="paint11_linear_1690_12285" x1="91.0353" y1="15.0352" x2="91.0353" y2="20.8729" gradientUnits="userSpaceOnUse">
<stop stop-color="white" stop-opacity="0.4"/>
<stop offset="0.285" stop-color="white" stop-opacity="0.1986"/>
<stop offset="1" stop-color="white" stop-opacity="0.02"/>
</linearGradient>
<linearGradient id="paint12_linear_1690_12285" x1="91.0247" y1="7.98047" x2="91.0247" y2="14.6875" gradientUnits="userSpaceOnUse">
<stop stop-color="white" stop-opacity="0.4"/>
<stop offset="0.285" stop-color="white" stop-opacity="0.1986"/>
<stop offset="1" stop-color="white" stop-opacity="0.02"/>
</linearGradient>
<linearGradient id="paint13_linear_1690_12285" x1="91.0247" y1="7.98047" x2="91.0247" y2="14.6875" gradientUnits="userSpaceOnUse">
<stop stop-color="white" stop-opacity="0.4"/>
<stop offset="0.285" stop-color="white" stop-opacity="0.1986"/>
<stop offset="1" stop-color="white" stop-opacity="0.02"/>
</linearGradient>
<linearGradient id="paint14_linear_1690_12285" x1="91" y1="3" x2="91" y2="26.5" gradientUnits="userSpaceOnUse">
<stop stop-color="#FFF7EA"/>
<stop offset="0.76906" stop-color="#BB9C75"/>
</linearGradient>
<linearGradient id="paint15_linear_1690_12285" x1="98" y1="64.5" x2="98" y2="73.5" gradientUnits="userSpaceOnUse">
<stop stop-color="#FFF7EA"/>
<stop offset="0.76906" stop-color="#BB9C75"/>
</linearGradient>
<linearGradient id="paint16_linear_1690_12285" x1="55.75" y1="79" x2="55.75" y2="88.5" gradientUnits="userSpaceOnUse">
<stop stop-color="#FFF7EA"/>
<stop offset="0.76906" stop-color="#BB9C75"/>
</linearGradient>
<linearGradient id="paint17_linear_1690_12285" x1="35" y1="58" x2="35" y2="59" gradientUnits="userSpaceOnUse">
<stop stop-color="#FFF7EA"/>
<stop offset="0.76906" stop-color="#BB9C75"/>
</linearGradient>
<linearGradient id="paint18_linear_1690_12285" x1="51.75" y1="33" x2="51.75" y2="44.5" gradientUnits="userSpaceOnUse">
<stop stop-color="#FFF7EA"/>
<stop offset="0.76906" stop-color="#BB9C75"/>
</linearGradient>
<linearGradient id="paint19_linear_1690_12285" x1="13.5" y1="51.5" x2="13.5" y2="64" gradientUnits="userSpaceOnUse">
<stop stop-color="#FFF7EA"/>
<stop offset="0.76906" stop-color="#BB9C75"/>
</linearGradient>
<linearGradient id="paint20_linear_1690_12285" x1="43" y1="20" x2="43" y2="33" gradientUnits="userSpaceOnUse">
<stop stop-color="#FFF7EA"/>
<stop offset="0.76906" stop-color="#BB9C75"/>
</linearGradient>
<linearGradient id="paint21_linear_1690_12285" x1="50.25" y1="87.9961" x2="50.25" y2="100.996" gradientUnits="userSpaceOnUse">
<stop stop-color="#FFF7EA"/>
<stop offset="0.76906" stop-color="#BB9C75"/>
</linearGradient>
<linearGradient id="paint22_linear_1690_12285" x1="113.5" y1="70" x2="113.5" y2="83" gradientUnits="userSpaceOnUse">
<stop stop-color="#FFF7EA"/>
<stop offset="0.76906" stop-color="#BB9C75"/>
</linearGradient>
<linearGradient id="paint23_linear_1690_12285" x1="80" y1="81" x2="80" y2="100" gradientUnits="userSpaceOnUse">
<stop stop-color="#FFF7EA"/>
<stop offset="0.76906" stop-color="#BB9C75"/>
</linearGradient>
<linearGradient id="paint24_linear_1690_12285" x1="82.25" y1="28" x2="82.25" y2="43" gradientUnits="userSpaceOnUse">
<stop stop-color="#FFF7EA"/>
<stop offset="0.76906" stop-color="#BB9C75"/>
</linearGradient>
</defs>
</svg>
