<svg width="301" height="89" viewBox="0 0 301 89" fill="none" xmlns="http://www.w3.org/2000/svg">
<path d="M119.753 38.7294C118.36 38.7294 117.142 38.4833 116.099 37.991C115.049 37.4987 114.237 36.8159 113.648 35.9267C113.059 35.0454 112.765 34.0211 112.765 32.8699C112.765 32.3617 112.884 32.0124 113.115 31.8298C113.354 31.6472 113.68 31.5598 114.11 31.5598C114.452 31.5598 114.754 31.6313 115.025 31.7663C115.296 31.9012 115.439 32.1474 115.455 32.4888C115.479 33.2113 115.646 33.8703 115.972 34.4578C116.29 35.0454 116.76 35.4979 117.381 35.8155C118.002 36.1331 118.758 36.2919 119.657 36.2919C121.002 36.2919 122.045 35.9267 122.785 35.1883C123.525 34.4499 123.891 33.3066 123.891 31.7504V17.578H119.721C119.418 17.578 119.187 17.451 119.028 17.1969C118.869 16.9428 118.79 16.657 118.79 16.3315C118.79 16.0536 118.861 15.7836 118.996 15.5296C119.132 15.2755 119.379 15.1484 119.721 15.1484H125.364C125.682 15.1484 125.968 15.2278 126.215 15.3866C126.462 15.5454 126.581 15.7836 126.581 16.1091V31.7504C126.581 33.4336 126.279 34.7913 125.666 35.8155C125.053 36.8397 124.233 37.5781 123.199 38.0386C122.164 38.4991 121.01 38.7294 119.753 38.7294Z" fill="white"/>
<path d="M136.215 38.7932C135.085 38.7932 134.034 38.5074 133.071 37.9278C132.108 37.3482 131.344 36.586 130.763 35.6411C130.19 34.6884 129.896 33.6721 129.896 32.5843V29.3211C129.896 28.2334 130.182 27.225 130.747 26.2961C131.312 25.3671 132.076 24.6129 133.039 24.0412C134.002 23.4616 135.061 23.1758 136.215 23.1758C137.369 23.1758 138.396 23.4537 139.359 24.0095C140.322 24.5652 141.094 25.3036 141.683 26.2326C142.272 27.1615 142.566 28.1857 142.566 29.3211V32.5843C142.566 33.6483 142.272 34.6566 141.683 35.6094C141.094 36.5621 140.322 37.3244 139.359 37.9119C138.396 38.4994 137.345 38.7932 136.215 38.7932ZM136.215 36.3954C136.899 36.3954 137.52 36.2128 138.077 35.8555C138.634 35.4903 139.08 35.0218 139.406 34.4343C139.741 33.8468 139.9 33.2354 139.9 32.5923V29.3291C139.9 28.6859 139.733 28.0825 139.406 27.5188C139.072 26.9551 138.626 26.4866 138.077 26.1294C137.52 25.7641 136.899 25.5895 136.215 25.5895C135.53 25.5895 134.918 25.7721 134.368 26.1294C133.827 26.4946 133.382 26.9551 133.055 27.5188C132.721 28.0825 132.562 28.6859 132.562 29.3291V32.5923C132.562 33.2354 132.721 33.8468 133.039 34.4343C133.358 35.0218 133.803 35.4982 134.368 35.8555C134.933 36.2207 135.546 36.3954 136.215 36.3954Z" fill="white"/>
<path d="M151.99 38.7901C150.813 38.7901 149.746 38.5043 148.783 37.9247C147.82 37.3451 147.056 36.5908 146.475 35.654C145.902 34.7171 145.607 33.7167 145.607 32.6448V24.324C145.607 24.0858 145.743 23.8714 146.005 23.665C146.268 23.4586 146.586 23.3633 146.952 23.3633C147.319 23.3633 147.629 23.4665 147.884 23.665C148.138 23.8714 148.266 24.0858 148.266 24.324V32.6448C148.266 33.2879 148.433 33.8913 148.759 34.4551C149.093 35.0188 149.531 35.4872 150.088 35.8445C150.645 36.2097 151.266 36.3844 151.951 36.3844C152.635 36.3844 153.256 36.2018 153.813 35.8445C154.37 35.4793 154.808 35.0188 155.126 34.4551C155.445 33.8913 155.604 33.2879 155.604 32.6448V24.2922C155.604 24.0382 155.739 23.8158 156.018 23.6332C156.296 23.4506 156.607 23.3633 156.949 23.3633C157.355 23.3633 157.673 23.4506 157.912 23.6332C158.151 23.8158 158.262 24.0302 158.262 24.2922V32.6448C158.262 33.7325 157.976 34.7409 157.411 35.6698C156.845 36.5988 156.081 37.3531 155.118 37.9247C154.155 38.5043 153.105 38.7901 151.975 38.7901H151.99Z" fill="white"/>
<path d="M163.205 38.539C162.839 38.539 162.537 38.4358 162.29 38.2373C162.043 38.0308 161.916 37.8165 161.916 37.5783V24.3031C161.916 24.0252 162.043 23.8029 162.29 23.6282C162.537 23.4615 162.839 23.3741 163.205 23.3741C163.571 23.3741 163.866 23.4615 164.105 23.6282C164.336 23.8029 164.455 24.0252 164.455 24.3031V25.8037C164.694 25.3591 165.012 24.9383 165.418 24.5413C165.824 24.1443 166.301 23.8188 166.843 23.5647C167.384 23.3106 167.989 23.1836 168.657 23.1836H169.748C170.026 23.1836 170.265 23.3027 170.472 23.5329C170.679 23.7632 170.774 24.057 170.774 24.3984C170.774 24.716 170.671 24.9938 170.472 25.232C170.265 25.4702 170.026 25.5814 169.748 25.5814H168.657C167.973 25.5814 167.32 25.7719 166.699 26.161C166.079 26.5421 165.569 27.082 165.171 27.7807C164.773 28.4714 164.582 29.313 164.582 30.2896V37.5862C164.582 37.8244 164.447 38.0388 164.184 38.2452C163.922 38.4517 163.587 38.5469 163.205 38.5469V38.539Z" fill="white"/>
<path d="M174.212 38.5391C173.83 38.5391 173.511 38.4359 173.265 38.2374C173.018 38.031 172.891 37.8166 172.891 37.5784V24.3032C172.891 24.0253 173.018 23.803 173.265 23.6284C173.511 23.4616 173.822 23.3743 174.212 23.3743C174.554 23.3743 174.841 23.4616 175.079 23.6284C175.31 23.803 175.43 24.0253 175.43 24.3032V25.6133C175.772 24.994 176.305 24.4382 177.037 23.9301C177.761 23.4299 178.661 23.1758 179.735 23.1758C180.81 23.1758 181.701 23.4616 182.561 24.0253C183.412 24.5891 184.097 25.3354 184.614 26.2485C185.123 27.1695 185.386 28.1937 185.386 29.3211V37.5784C185.386 37.896 185.251 38.1421 184.972 38.3009C184.694 38.4597 184.383 38.5391 184.041 38.5391C183.723 38.5391 183.42 38.4597 183.142 38.3009C182.863 38.1421 182.728 37.9039 182.728 37.5784V29.3211C182.728 28.7018 182.561 28.1064 182.234 27.5268C181.9 26.9472 181.462 26.4787 180.905 26.1214C180.348 25.7562 179.743 25.5815 179.075 25.5815C178.494 25.5815 177.945 25.7403 177.403 26.042C176.87 26.3517 176.432 26.7804 176.09 27.3203C175.748 27.8602 175.581 28.5272 175.581 29.3211V37.5784C175.581 37.8166 175.445 38.031 175.183 38.2374C174.92 38.4439 174.602 38.5391 174.236 38.5391H174.212Z" fill="white"/>
<path d="M192.335 38.7932C191.133 38.7932 190.114 38.4438 189.27 37.7531C188.427 37.0623 188.005 35.9905 188.005 34.5375C188.005 33.3624 188.323 32.4494 188.968 31.7983C189.613 31.1473 190.488 30.7026 191.61 30.4565C192.732 30.2104 194.03 30.0913 195.502 30.0913H197.046V29.4164C197.046 28.7733 196.927 28.154 196.696 27.5426C196.457 26.9313 196.091 26.4311 195.59 26.042C195.088 25.645 194.396 25.4545 193.52 25.4545C192.772 25.4545 192.175 25.5259 191.738 25.6768C191.3 25.8277 190.95 25.9785 190.695 26.1373C190.44 26.2961 190.217 26.3755 190.018 26.3755C189.7 26.3755 189.453 26.2167 189.278 25.915C189.103 25.6053 189.024 25.3116 189.024 25.0337C189.024 24.6923 189.254 24.3826 189.732 24.1047C190.202 23.8268 190.791 23.6045 191.499 23.4299C192.207 23.2552 192.9 23.1758 193.584 23.1758C195.08 23.1758 196.282 23.4775 197.174 24.073C198.073 24.6685 198.718 25.4386 199.116 26.3755C199.513 27.3124 199.712 28.3128 199.712 29.3846V37.5784C199.712 37.8325 199.585 38.0548 199.346 38.2533C199.1 38.4439 198.789 38.5391 198.399 38.5391C198.057 38.5391 197.77 38.4439 197.532 38.2533C197.293 38.0627 197.181 37.8404 197.181 37.5784V36.3001C196.624 36.9432 195.956 37.5149 195.16 38.031C194.364 38.5391 193.425 38.8011 192.335 38.8011V38.7932ZM193.17 36.6495C193.791 36.6495 194.396 36.4827 194.985 36.1413C195.574 35.7999 196.067 35.3712 196.457 34.863C196.847 34.3549 197.054 33.8626 197.054 33.3942V31.7269H195.932C195.033 31.7269 194.181 31.7824 193.385 31.8856C192.589 31.9889 191.937 32.2191 191.443 32.5764C190.95 32.9258 190.703 33.4895 190.703 34.2517C190.703 35.0854 190.934 35.6888 191.411 36.0778C191.889 36.4669 192.47 36.6574 193.178 36.6574L193.17 36.6495Z" fill="white"/>
<path d="M204.933 38.5381C204.551 38.5381 204.233 38.4349 203.986 38.2364C203.739 38.0379 203.62 37.8156 203.62 37.5774V15.1477C203.62 14.8698 203.747 14.6475 203.986 14.4728C204.225 14.2982 204.551 14.2188 204.933 14.2188C205.299 14.2188 205.61 14.3061 205.88 14.4728C206.151 14.6396 206.278 14.8698 206.278 15.1477V37.5774C206.278 37.8156 206.143 38.0299 205.88 38.2364C205.61 38.4428 205.299 38.5381 204.933 38.5381Z" fill="white"/>
<path d="M222.732 38.79C221.364 38.79 220.17 38.5836 219.143 38.1628C218.116 37.742 217.328 37.2576 216.771 36.6939C216.214 36.1302 215.936 35.6221 215.936 35.1774C215.936 34.9631 215.991 34.7487 216.111 34.5184C216.23 34.2961 216.381 34.1056 216.564 33.9388C216.747 33.7801 216.93 33.7007 217.121 33.7007C217.376 33.7007 217.631 33.8277 217.878 34.0818C218.124 34.3358 218.435 34.6455 218.809 34.9948C219.183 35.3442 219.668 35.6538 220.265 35.9079C220.862 36.162 221.642 36.289 222.605 36.289C223.504 36.289 224.284 36.1461 224.945 35.8603C225.606 35.5744 226.123 35.1377 226.497 34.5502C226.871 33.9627 227.054 33.2243 227.054 32.3271C227.054 31.4299 226.863 30.6597 226.481 30.0881C226.099 29.5085 225.59 29.0321 224.953 28.651C224.316 28.2699 223.64 27.9285 222.9 27.6268C222.159 27.3251 221.411 27.0234 220.655 26.7137C219.899 26.4041 219.207 26.023 218.586 25.5624C217.965 25.1019 217.464 24.5144 217.082 23.7839C216.7 23.0614 216.501 22.1404 216.501 21.0368C216.501 19.8617 216.716 18.8931 217.145 18.1229C217.575 17.3528 218.14 16.7494 218.849 16.2968C219.557 15.8522 220.321 15.5346 221.141 15.352C221.96 15.1694 222.772 15.082 223.56 15.082C224.141 15.082 224.746 15.1217 225.391 15.2091C226.027 15.2964 226.64 15.4234 227.221 15.5902C227.794 15.7569 228.264 15.9792 228.63 16.2492C228.996 16.5191 229.171 16.8288 229.171 17.194C229.171 17.3687 229.131 17.5592 229.044 17.7895C228.956 18.0118 228.829 18.2182 228.662 18.4008C228.487 18.5834 228.28 18.6708 228.017 18.6708C227.778 18.6708 227.492 18.5676 227.15 18.3691C226.807 18.1626 226.354 17.9641 225.789 17.7577C225.224 17.5513 224.483 17.456 223.56 17.456C222.788 17.456 222.072 17.5592 221.395 17.7736C220.719 17.988 220.186 18.3373 219.796 18.8296C219.398 19.3218 219.199 19.9729 219.199 20.7827C219.199 21.5529 219.39 22.1801 219.772 22.6724C220.154 23.1647 220.655 23.5696 221.276 23.8872C221.897 24.2048 222.581 24.4985 223.329 24.7685C224.078 25.0384 224.826 25.3481 225.574 25.6974C226.322 26.0468 227.014 26.4835 227.643 26.9916C228.272 27.4997 228.781 28.1667 229.163 28.9924C229.545 29.8181 229.744 30.8424 229.744 32.0809C229.744 33.6133 229.442 34.8837 228.829 35.8682C228.216 36.8527 227.388 37.599 226.346 38.0754C225.303 38.5518 224.093 38.7979 222.725 38.7979L222.732 38.79Z" fill="white"/>
<path d="M234.182 45.8675C233.816 45.8675 233.513 45.7643 233.267 45.5658C233.02 45.3593 232.9 45.145 232.9 44.9068V24.3032C232.9 24.0253 233.028 23.803 233.267 23.6284C233.513 23.4616 233.816 23.3743 234.182 23.3743C234.548 23.3743 234.842 23.4616 235.081 23.6284C235.32 23.803 235.431 24.0253 235.431 24.3032V25.6133C235.797 24.994 236.339 24.4382 237.063 23.9301C237.787 23.4299 238.679 23.1758 239.721 23.1758C240.764 23.1758 241.767 23.4616 242.642 24.0253C243.518 24.5891 244.21 25.3354 244.727 26.2485C245.245 27.1695 245.499 28.1937 245.499 29.3211V32.5843C245.499 33.6483 245.237 34.6566 244.711 35.6094C244.186 36.5621 243.502 37.3244 242.642 37.9119C241.783 38.4994 240.843 38.7932 239.817 38.7932C238.854 38.7932 237.986 38.5391 237.222 38.0389C236.45 37.5387 235.893 36.9591 235.551 36.2922V44.8988C235.551 45.137 235.415 45.3514 235.153 45.5578C234.882 45.7563 234.564 45.8595 234.174 45.8595L234.182 45.8675ZM239.188 36.3954C239.833 36.3954 240.43 36.2128 240.987 35.8555C241.544 35.4903 241.99 35.0139 242.332 34.4184C242.674 33.8229 242.849 33.2116 242.849 32.5923V29.3291C242.849 28.7098 242.674 28.1143 242.332 27.5347C241.99 26.9551 241.544 26.4866 240.987 26.1294C240.43 25.7641 239.809 25.5895 239.124 25.5895C238.551 25.5895 237.986 25.7483 237.437 26.05C236.896 26.3596 236.442 26.7884 236.092 27.3283C235.742 27.8682 235.559 28.5351 235.559 29.3291V33.4577C235.559 33.7356 235.71 34.1088 236.02 34.5772C236.331 35.0457 236.76 35.4665 237.302 35.8396C237.843 36.2128 238.472 36.4033 239.18 36.4033L239.188 36.3954Z" fill="white"/>
<path d="M255.289 38.7908C253.904 38.7908 252.67 38.5287 251.604 38.0047C250.537 37.4807 249.694 36.7582 249.073 35.8292C248.452 34.9003 248.142 33.8205 248.142 32.5819V29.2234C248.142 28.1357 248.436 27.1352 249.025 26.2142C249.614 25.3012 250.386 24.5628 251.349 24.007C252.312 23.4512 253.371 23.1733 254.525 23.1733C255.679 23.1733 256.658 23.4274 257.589 23.9435C258.52 24.4516 259.268 25.1503 259.833 26.0237C260.398 26.8971 260.685 27.9133 260.685 29.0646C260.685 29.9142 260.55 30.5334 260.271 30.9066C259.992 31.2798 259.642 31.51 259.212 31.5974C258.783 31.6847 258.337 31.7244 257.867 31.7244H250.816V32.6851C250.816 33.884 251.246 34.8209 252.097 35.5196C252.957 36.2103 254.055 36.5597 255.4 36.5597C256.188 36.5597 256.825 36.4565 257.294 36.2421C257.764 36.0277 258.154 35.8213 258.448 35.6149C258.743 35.4084 259.014 35.3132 259.252 35.3132C259.491 35.3132 259.682 35.3846 259.849 35.5196C260.008 35.6625 260.136 35.8213 260.215 36.0198C260.303 36.2103 260.343 36.385 260.343 36.5279C260.343 36.8058 260.136 37.1234 259.73 37.4728C259.324 37.8221 258.743 38.1318 257.979 38.4017C257.215 38.6717 256.323 38.7987 255.297 38.7987L255.289 38.7908ZM250.8 29.93H256.729C257.31 29.93 257.684 29.8586 257.867 29.7236C258.05 29.5886 258.138 29.3107 258.138 28.9058C258.138 28.2627 257.979 27.6752 257.676 27.1273C257.374 26.5795 256.936 26.1428 256.379 25.8014C255.822 25.46 255.193 25.2932 254.485 25.2932C253.824 25.2932 253.211 25.452 252.654 25.7537C252.097 26.0554 251.651 26.4842 251.309 27.0162C250.967 27.5481 250.8 28.1357 250.8 28.7788V29.93ZM253.235 19.8545C252.981 19.8545 252.758 19.7354 252.559 19.5052C252.36 19.2749 252.272 19.0288 252.272 18.7668C252.272 18.4254 252.408 18.1872 252.686 18.0602L256.443 16.0752C256.57 16.0355 256.674 16.0117 256.761 16.0117C257.04 16.0117 257.255 16.1229 257.422 16.3452C257.589 16.5675 257.66 16.8216 257.66 17.0995C257.66 17.4409 257.509 17.6949 257.207 17.8696L253.585 19.7275C253.522 19.7513 253.458 19.7751 253.41 19.8069C253.355 19.8387 253.299 19.8545 253.235 19.8545Z" fill="white"/>
<path d="M269.527 38.7932C268.054 38.7932 266.837 38.5153 265.89 37.9595C264.934 37.4038 264.234 36.6654 263.773 35.7364C263.311 34.8075 263.08 33.7594 263.08 32.5843V29.3846C263.08 28.2334 263.311 27.1853 263.773 26.2485C264.234 25.3116 264.934 24.5652 265.89 24.0095C266.845 23.4537 268.046 23.1758 269.495 23.1758C270.434 23.1758 271.262 23.2949 271.962 23.5251C272.671 23.7633 273.212 24.0491 273.594 24.3906C273.976 24.732 274.167 25.0654 274.167 25.383C274.167 25.5498 274.119 25.7403 274.024 25.9388C273.928 26.1452 273.801 26.3199 273.642 26.4708C273.482 26.6216 273.291 26.6931 273.076 26.6931C272.862 26.6931 272.631 26.5978 272.384 26.4073C272.137 26.2167 271.803 26.0261 271.389 25.8435C270.975 25.6609 270.386 25.5736 269.638 25.5736C268.333 25.5736 267.354 25.915 266.701 26.5978C266.049 27.2806 265.722 28.2096 265.722 29.3846V32.5843C265.722 33.7594 266.049 34.6884 266.701 35.3712C267.354 36.054 268.341 36.3954 269.67 36.3954C270.442 36.3954 271.039 36.2922 271.469 36.0937C271.899 35.8873 272.233 35.6967 272.48 35.5141C272.726 35.3315 272.965 35.2442 273.196 35.2442C273.427 35.2442 273.634 35.3156 273.809 35.4506C273.976 35.5935 274.111 35.7523 274.207 35.9508C274.302 36.1413 274.35 36.3319 274.35 36.5304C274.35 36.848 274.143 37.1894 273.737 37.5387C273.331 37.8881 272.766 38.1898 272.034 38.4359C271.31 38.682 270.466 38.8011 269.503 38.8011L269.527 38.7932Z" fill="white"/>
<path d="M278.341 19.2127C277.895 19.2127 277.505 19.0618 277.171 18.7522C276.837 18.4425 276.678 18.0852 276.678 17.6803C276.678 17.2754 276.845 16.926 277.171 16.6243C277.505 16.3226 277.895 16.1797 278.341 16.1797C278.787 16.1797 279.201 16.3305 279.511 16.6243C279.822 16.926 279.973 17.2754 279.973 17.6803C279.973 18.0852 279.822 18.4425 279.511 18.7522C279.201 19.0618 278.811 19.2127 278.341 19.2127ZM278.341 38.5379C277.959 38.5379 277.641 38.4347 277.394 38.2362C277.147 38.0298 277.02 37.8154 277.02 37.5772V24.302C277.02 24.0241 277.147 23.8018 277.394 23.6271C277.641 23.4604 277.951 23.3731 278.341 23.3731C278.707 23.3731 279.018 23.4604 279.288 23.6271C279.559 23.8018 279.686 24.0241 279.686 24.302V37.5772C279.686 37.8154 279.551 38.0298 279.288 38.2362C279.026 38.4426 278.707 38.5379 278.341 38.5379Z" fill="white"/>
<path d="M286.783 38.7932C285.581 38.7932 284.562 38.4438 283.719 37.7531C282.875 37.0623 282.453 35.9905 282.453 34.5375C282.453 33.3624 282.771 32.4494 283.416 31.7983C284.061 31.1473 284.936 30.7026 286.059 30.4565C287.181 30.2104 288.478 30.0913 289.95 30.0913H291.494V29.4164C291.494 28.7733 291.375 28.154 291.144 27.5426C290.905 26.9313 290.539 26.4311 290.038 26.042C289.537 25.645 288.844 25.4545 287.969 25.4545C287.221 25.4545 286.624 25.5259 286.186 25.6768C285.748 25.8277 285.398 25.9785 285.143 26.1373C284.889 26.2961 284.666 26.3755 284.467 26.3755C284.148 26.3755 283.902 26.2167 283.727 25.915C283.551 25.6053 283.472 25.3116 283.472 25.0337C283.472 24.6923 283.703 24.3826 284.18 24.1047C284.65 23.8268 285.239 23.6045 285.947 23.4299C286.655 23.2552 287.348 23.1758 288.032 23.1758C289.529 23.1758 290.73 23.4775 291.622 24.073C292.521 24.6685 293.166 25.4386 293.564 26.3755C293.962 27.3124 294.161 28.3128 294.161 29.3846V37.5784C294.161 37.8325 294.033 38.0548 293.795 38.2533C293.548 38.4439 293.237 38.5391 292.847 38.5391C292.505 38.5391 292.219 38.4439 291.98 38.2533C291.741 38.0627 291.63 37.8404 291.63 37.5784V36.3001C291.073 36.9432 290.404 37.5149 289.608 38.031C288.812 38.5391 287.873 38.8011 286.783 38.8011V38.7932ZM287.61 36.6495C288.231 36.6495 288.836 36.4827 289.425 36.1413C290.014 35.7999 290.508 35.3712 290.898 34.863C291.288 34.3549 291.494 33.8626 291.494 33.3942V31.7269H290.372C289.473 31.7269 288.621 31.7824 287.825 31.8856C287.03 31.9889 286.377 32.2191 285.883 32.5764C285.39 32.9258 285.143 33.4895 285.143 34.2517C285.143 35.0854 285.374 35.6888 285.852 36.0778C286.329 36.4669 286.91 36.6574 287.618 36.6574L287.61 36.6495Z" fill="white"/>
<path d="M299.381 38.5381C298.999 38.5381 298.68 38.4349 298.434 38.2364C298.187 38.0379 298.067 37.8156 298.067 37.5774V15.1477C298.067 14.8698 298.195 14.6475 298.434 14.4728C298.672 14.2982 298.999 14.2188 299.381 14.2188C299.747 14.2188 300.057 14.3061 300.328 14.4728C300.598 14.6396 300.726 14.8698 300.726 15.1477V37.5774C300.726 37.8156 300.59 38.0299 300.328 38.2364C300.057 38.4428 299.747 38.5381 299.381 38.5381Z" fill="white"/>
<path d="M117.533 74.4887C116.761 74.4887 116.053 74.2664 115.384 73.8139C114.723 73.3613 114.19 72.7738 113.792 72.0512C113.394 71.3287 113.195 70.5506 113.195 69.7408V67.2477C113.195 66.3823 113.394 65.6042 113.792 64.8976C114.19 64.1989 114.723 63.6272 115.384 63.1985C116.045 62.7697 116.777 62.5474 117.581 62.5474C118.385 62.5474 119.029 62.738 119.578 63.1191C120.128 63.5002 120.533 63.9289 120.788 64.4053V56.4021C120.788 56.1877 120.892 56.021 121.091 55.886C121.29 55.751 121.544 55.6875 121.839 55.6875C122.133 55.6875 122.372 55.751 122.547 55.886C122.73 56.013 122.818 56.1877 122.818 56.4021V73.5519C122.818 73.7345 122.73 73.9012 122.547 74.052C122.364 74.2108 122.133 74.2823 121.839 74.2823C121.576 74.2823 121.353 74.2029 121.162 74.052C120.971 73.8933 120.884 73.7265 120.884 73.5519V72.5753C120.637 73.0834 120.207 73.528 119.586 73.9091C118.966 74.2902 118.281 74.4808 117.525 74.4808L117.533 74.4887ZM118.026 72.6547C118.552 72.6547 119.021 72.5117 119.435 72.2259C119.849 71.9401 120.183 71.6146 120.43 71.2573C120.677 70.9 120.796 70.6142 120.796 70.3998V67.2398C120.796 66.6364 120.661 66.1282 120.39 65.7074C120.12 65.2945 119.769 64.9611 119.348 64.7308C118.918 64.4926 118.488 64.3735 118.05 64.3735C117.525 64.3735 117.055 64.5085 116.626 64.7864C116.196 65.0643 115.862 65.4216 115.607 65.8662C115.352 66.3029 115.225 66.7634 115.225 67.2398V69.7328C115.225 70.2092 115.352 70.6697 115.607 71.1302C115.862 71.5907 116.204 71.956 116.626 72.2339C117.047 72.5117 117.517 72.6467 118.026 72.6467V72.6547Z" fill="white"/>
<path d="M130.774 74.4882C129.716 74.4882 128.769 74.2897 127.957 73.8927C127.137 73.4957 126.492 72.94 126.023 72.2333C125.545 71.5267 125.314 70.693 125.314 69.7482V67.1757C125.314 66.3421 125.537 65.5798 125.991 64.8732C126.437 64.1745 127.034 63.6108 127.766 63.182C128.498 62.7612 129.31 62.5469 130.193 62.5469C131.077 62.5469 131.825 62.7454 132.533 63.1344C133.242 63.5235 133.815 64.0554 134.252 64.7223C134.682 65.3893 134.905 66.1674 134.905 67.0487C134.905 67.6997 134.801 68.1682 134.587 68.454C134.372 68.7398 134.101 68.9145 133.775 68.978C133.448 69.0416 133.106 69.0733 132.74 69.0733H127.344V69.8038C127.344 70.7168 127.67 71.4393 128.323 71.9713C128.976 72.5033 129.819 72.7653 130.846 72.7653C131.451 72.7653 131.936 72.6859 132.294 72.5192C132.653 72.3524 132.947 72.1936 133.178 72.0428C133.409 71.884 133.608 71.8125 133.791 71.8125C133.974 71.8125 134.125 71.8681 134.244 71.9713C134.364 72.0745 134.459 72.2016 134.523 72.3524C134.587 72.5033 134.618 72.6303 134.618 72.7415C134.618 72.9558 134.467 73.194 134.157 73.464C133.846 73.7339 133.401 73.9721 132.82 74.1706C132.239 74.377 131.554 74.4723 130.774 74.4723V74.4882ZM127.344 67.7156H131.881C132.318 67.7156 132.613 67.66 132.748 67.5568C132.883 67.4536 132.955 67.2392 132.955 66.9296C132.955 66.4373 132.836 65.9848 132.597 65.5719C132.358 65.159 132.032 64.8176 131.602 64.5556C131.172 64.2936 130.695 64.1666 130.153 64.1666C129.644 64.1666 129.182 64.2857 128.753 64.5239C128.323 64.762 127.981 65.0796 127.718 65.4925C127.455 65.8974 127.328 66.35 127.328 66.8343V67.7156H127.344Z" fill="white"/>
<path d="M140.482 74.488C139.694 74.488 139.002 74.3847 138.397 74.1862C137.792 73.9798 137.315 73.7416 136.972 73.4637C136.63 73.1858 136.455 72.908 136.455 72.6301C136.455 72.503 136.487 72.368 136.551 72.2251C136.614 72.0902 136.702 71.9631 136.805 71.8599C136.909 71.7567 137.028 71.7011 137.163 71.7011C137.362 71.7011 137.569 71.7964 137.8 71.9869C138.031 72.1775 138.341 72.3681 138.731 72.5586C139.121 72.7571 139.686 72.8524 140.427 72.8524C141.294 72.8524 141.899 72.6936 142.241 72.376C142.583 72.0584 142.759 71.7011 142.759 71.3121C142.759 70.8039 142.615 70.4228 142.313 70.1529C142.018 69.8829 141.644 69.6686 141.183 69.5177C140.721 69.3668 140.244 69.208 139.734 69.0651C139.225 68.9222 138.747 68.7317 138.286 68.5173C137.824 68.295 137.458 67.9853 137.171 67.5883C136.885 67.1914 136.742 66.6515 136.742 65.9845C136.742 65.4446 136.869 64.9127 137.132 64.3966C137.394 63.8726 137.816 63.4359 138.405 63.0865C138.994 62.7372 139.782 62.5625 140.761 62.5625C141.334 62.5625 141.883 62.626 142.416 62.7451C142.95 62.8642 143.379 63.0309 143.714 63.2374C144.048 63.4438 144.215 63.6582 144.215 63.8884C144.215 63.9837 144.183 64.1187 144.12 64.2775C144.056 64.4442 143.968 64.5871 143.849 64.7142C143.737 64.8412 143.586 64.9127 143.411 64.9127C143.284 64.9127 143.093 64.8491 142.862 64.7301C142.623 64.611 142.337 64.4918 142.002 64.3728C141.668 64.2616 141.262 64.1981 140.793 64.1981C140.251 64.1981 139.822 64.2934 139.495 64.476C139.169 64.6665 138.93 64.8809 138.787 65.135C138.644 65.389 138.564 65.6431 138.564 65.9051C138.564 66.31 138.707 66.6276 138.994 66.8579C139.28 67.0881 139.655 67.2708 140.124 67.4057C140.586 67.5407 141.079 67.6836 141.581 67.8186C142.09 67.9536 142.568 68.1521 143.029 68.4061C143.491 68.6602 143.865 69.0016 144.159 69.4462C144.454 69.8909 144.597 70.4705 144.597 71.2088C144.597 72.2013 144.239 72.9953 143.523 73.5908C142.806 74.1862 141.788 74.48 140.482 74.48V74.488Z" fill="white"/>
<path d="M159.668 74.5517C158.299 74.5517 157.105 74.3453 156.079 73.9245C155.052 73.5037 154.264 73.0194 153.707 72.4556C153.15 71.8919 152.871 71.3838 152.871 70.9392C152.871 70.7248 152.927 70.5104 153.046 70.2802C153.166 70.0579 153.317 69.8673 153.5 69.7006C153.683 69.5418 153.866 69.4624 154.057 69.4624C154.312 69.4624 154.566 69.5894 154.813 69.8435C155.06 70.0975 155.37 70.4072 155.744 70.7566C156.118 71.1059 156.604 71.4155 157.201 71.6696C157.798 71.9237 158.578 72.0507 159.541 72.0507C160.44 72.0507 161.22 71.9078 161.881 71.622C162.541 71.3361 163.059 70.8995 163.433 70.3119C163.807 69.7244 163.99 68.986 163.99 68.0888C163.99 67.1916 163.799 66.4215 163.417 65.8498C163.035 65.2702 162.525 64.7938 161.889 64.4127C161.252 64.0316 160.575 63.6902 159.835 63.3885C159.095 63.0868 158.347 62.7851 157.591 62.4754C156.835 62.1658 156.142 61.7847 155.521 61.3242C154.901 60.8637 154.399 60.2761 154.017 59.5457C153.635 58.8232 153.436 57.9022 153.436 56.7985C153.436 55.6235 153.651 54.6548 154.081 53.8847C154.511 53.1145 155.076 52.5111 155.784 52.0585C156.492 51.6139 157.256 51.2963 158.076 51.1137C158.896 50.9311 159.708 50.8438 160.496 50.8438C161.077 50.8438 161.682 50.8835 162.326 50.9708C162.963 51.0581 163.576 51.1852 164.157 51.3519C164.73 51.5186 165.199 51.7409 165.566 52.0109C165.932 52.2808 166.107 52.5905 166.107 52.9557C166.107 53.1304 166.067 53.3209 165.979 53.5512C165.892 53.7735 165.765 53.9799 165.597 54.1625C165.422 54.3452 165.215 54.4325 164.953 54.4325C164.714 54.4325 164.427 54.3293 164.085 54.1308C163.743 53.9244 163.289 53.7259 162.724 53.5194C162.159 53.313 161.419 53.2177 160.496 53.2177C159.724 53.2177 159.007 53.3209 158.331 53.5353C157.654 53.7497 157.121 54.099 156.731 54.5913C156.333 55.0836 156.134 55.7346 156.134 56.5445C156.134 57.3146 156.325 57.9419 156.707 58.4341C157.089 58.9264 157.591 59.3313 158.212 59.6489C158.832 59.9665 159.517 60.2602 160.265 60.5302C161.013 60.8001 161.761 61.1098 162.509 61.4591C163.257 61.8085 163.95 62.2452 164.579 62.7533C165.207 63.2615 165.717 63.9284 166.099 64.7541C166.481 65.5799 166.68 66.6041 166.68 67.8427C166.68 69.375 166.377 70.6454 165.765 71.6299C165.152 72.6224 164.324 73.3608 163.281 73.8372C162.239 74.3135 161.029 74.5597 159.66 74.5597L159.668 74.5517Z" fill="white"/>
<path d="M175.538 74.5549C174.408 74.5549 173.357 74.2691 172.394 73.6895C171.431 73.1099 170.667 72.3477 170.086 71.4028C169.513 70.4501 169.219 69.4338 169.219 68.3461V65.0828C169.219 63.9951 169.505 62.9867 170.07 62.0578C170.635 61.1289 171.4 60.3746 172.363 59.8029C173.326 59.2313 174.384 58.9375 175.538 58.9375C176.692 58.9375 177.719 59.2154 178.682 59.7712C179.645 60.327 180.417 61.0653 181.006 61.9943C181.595 62.9232 181.889 63.9475 181.889 65.0828V68.3461C181.889 69.41 181.595 70.4183 181.006 71.3711C180.417 72.3239 179.645 73.0861 178.682 73.6736C177.719 74.2611 176.668 74.5549 175.538 74.5549ZM175.538 72.1571C176.223 72.1571 176.843 71.9745 177.401 71.6172C177.958 71.252 178.403 70.7835 178.73 70.196C179.064 69.6085 179.223 68.9971 179.223 68.354V65.0908C179.223 64.4477 179.056 63.8442 178.73 63.2805C178.395 62.7168 177.95 62.2484 177.401 61.8911C176.843 61.5258 176.223 61.3512 175.538 61.3512C174.854 61.3512 174.241 61.5338 173.692 61.8911C173.15 62.2563 172.705 62.7168 172.378 63.2805C172.044 63.8442 171.885 64.4477 171.885 65.0908V68.354C171.885 68.9971 172.044 69.6085 172.363 70.196C172.681 70.7835 173.127 71.2599 173.692 71.6172C174.257 71.9824 174.87 72.1571 175.538 72.1571Z" fill="white"/>
<path d="M190.996 74.5549C189.523 74.5549 188.305 74.277 187.358 73.7212C186.403 73.1655 185.703 72.4271 185.241 71.4981C184.78 70.5692 184.549 69.5211 184.549 68.3461V65.1463C184.549 63.9951 184.78 62.9471 185.241 62.0102C185.703 61.0733 186.403 60.327 187.358 59.7712C188.313 59.2154 189.515 58.9375 190.964 58.9375C191.903 58.9375 192.731 59.0566 193.431 59.2868C194.139 59.525 194.681 59.8109 195.063 60.1523C195.445 60.4937 195.636 60.8272 195.636 61.1447C195.636 61.3115 195.588 61.502 195.492 61.7005C195.397 61.9069 195.27 62.0816 195.11 62.2325C194.951 62.3833 194.76 62.4548 194.545 62.4548C194.33 62.4548 194.1 62.3595 193.853 62.169C193.606 61.9784 193.272 61.7879 192.858 61.6052C192.444 61.4226 191.855 61.3353 191.107 61.3353C189.802 61.3353 188.823 61.6767 188.17 62.3595C187.518 63.0423 187.191 63.9713 187.191 65.1463V68.3461C187.191 69.5211 187.518 70.4501 188.17 71.1329C188.823 71.8157 189.81 72.1571 191.139 72.1571C191.911 72.1571 192.508 72.0539 192.938 71.8554C193.367 71.649 193.702 71.4584 193.948 71.2758C194.195 71.0932 194.434 71.0059 194.665 71.0059C194.895 71.0059 195.102 71.0773 195.277 71.2123C195.445 71.3552 195.58 71.514 195.675 71.7125C195.771 71.903 195.819 72.0936 195.819 72.2921C195.819 72.6097 195.612 72.9511 195.206 73.3004C194.8 73.6498 194.235 73.9515 193.503 74.1976C192.778 74.4438 191.935 74.5628 190.972 74.5628L190.996 74.5549Z" fill="white"/>
<path d="M199.81 54.9744C199.364 54.9744 198.974 54.8235 198.64 54.5139C198.306 54.2042 198.146 53.8469 198.146 53.442C198.146 53.0371 198.314 52.6877 198.64 52.386C198.974 52.0843 199.364 51.9414 199.81 51.9414C200.256 51.9414 200.669 52.0923 200.98 52.386C201.29 52.6877 201.441 53.0371 201.441 53.442C201.441 53.8469 201.29 54.2042 200.98 54.5139C200.669 54.8235 200.279 54.9744 199.81 54.9744ZM199.81 74.2917C199.428 74.2917 199.109 74.1885 198.863 73.99C198.616 73.7835 198.489 73.5692 198.489 73.331V60.0558C198.489 59.7779 198.616 59.5556 198.863 59.3809C199.109 59.2142 199.42 59.1268 199.81 59.1268C200.176 59.1268 200.486 59.2142 200.757 59.3809C201.028 59.5556 201.155 59.7779 201.155 60.0558V73.331C201.155 73.5692 201.02 73.7835 200.757 73.99C200.494 74.1964 200.176 74.2917 199.81 74.2917Z" fill="white"/>
<path d="M211.492 74.5526C210.107 74.5526 208.873 74.2906 207.807 73.7666C206.74 73.2425 205.897 72.52 205.276 71.5911C204.655 70.6621 204.345 69.5823 204.345 68.3437V64.9852C204.345 63.8975 204.639 62.8971 205.228 61.9761C205.817 61.063 206.589 60.3246 207.552 59.7689C208.515 59.2131 209.574 58.9352 210.728 58.9352C211.882 58.9352 212.861 59.1893 213.792 59.7053C214.723 60.2135 215.471 60.9122 216.036 61.7855C216.601 62.6589 216.888 63.6752 216.888 64.8265C216.888 65.676 216.753 66.2953 216.474 66.6685C216.196 67.0416 215.845 67.2719 215.416 67.3592C214.986 67.4466 214.54 67.4863 214.071 67.4863H207.019V68.447C207.019 69.6459 207.449 70.5827 208.3 71.2814C209.16 71.9722 210.258 72.3215 211.603 72.3215C212.391 72.3215 213.028 72.2183 213.497 72.0039C213.967 71.7896 214.357 71.5831 214.652 71.3767C214.946 71.1703 215.217 71.075 215.455 71.075C215.694 71.075 215.885 71.1465 216.052 71.2814C216.211 71.4244 216.339 71.5831 216.418 71.7816C216.506 71.9722 216.546 72.1469 216.546 72.2898C216.546 72.5677 216.339 72.8853 215.933 73.2346C215.527 73.584 214.946 73.8936 214.182 74.1635C213.418 74.4335 212.527 74.5605 211.5 74.5605L211.492 74.5526ZM207.003 65.6919H212.932C213.513 65.6919 213.887 65.6204 214.071 65.4854C214.254 65.3505 214.341 65.0726 214.341 64.6677C214.341 64.0245 214.182 63.437 213.88 62.8892C213.577 62.3413 213.139 61.9046 212.582 61.5632C212.025 61.2218 211.396 61.0551 210.688 61.0551C210.027 61.0551 209.415 61.2139 208.857 61.5156C208.3 61.8252 207.855 62.246 207.512 62.778C207.17 63.31 207.003 63.8975 207.003 64.5406V65.6919ZM209.438 55.6084C209.184 55.6084 208.961 55.4893 208.762 55.2591C208.563 55.0288 208.475 54.7827 208.475 54.5207C208.475 54.1793 208.611 53.9411 208.889 53.8141L212.646 51.8291C212.773 51.7894 212.877 51.7656 212.964 51.7656C213.243 51.7656 213.458 51.8768 213.625 52.0991C213.792 52.3214 213.864 52.5755 213.864 52.8534C213.864 53.1948 213.712 53.4488 213.41 53.6235L209.789 55.4814C209.725 55.5052 209.661 55.529 209.614 55.5608C209.566 55.5926 209.502 55.6084 209.438 55.6084Z" fill="white"/>
<path d="M225.087 74.2898C223.352 74.2898 222.039 73.9087 221.124 73.1385C220.216 72.3684 219.763 71.1457 219.763 69.4624V52.9875C219.763 52.7096 219.898 52.4873 220.177 52.3127C220.455 52.138 220.758 52.0586 221.076 52.0586C221.418 52.0586 221.729 52.1459 222.007 52.3127C222.286 52.4794 222.421 52.7096 222.421 52.9875V59.1329H226.464C226.719 59.1329 226.918 59.2361 227.053 59.4505C227.188 59.6648 227.26 59.911 227.26 60.1889C227.26 60.4668 227.188 60.7049 227.053 60.9114C226.918 61.1178 226.719 61.2131 226.464 61.2131H222.421V69.4704C222.421 70.3914 222.62 71.0345 223.018 71.4077C223.416 71.7808 224.1 71.9635 225.087 71.9635H226.082C226.464 71.9635 226.759 72.0825 226.95 72.3128C227.141 72.551 227.236 72.813 227.236 73.1147C227.236 73.4164 227.141 73.6864 226.95 73.9325C226.759 74.1786 226.472 74.2977 226.082 74.2977H225.087V74.2898Z" fill="white"/>
<path d="M236.014 74.5526C234.629 74.5526 233.396 74.2906 232.329 73.7666C231.263 73.2425 230.419 72.52 229.798 71.5911C229.178 70.6621 228.867 69.5823 228.867 68.3437V64.9852C228.867 63.8975 229.162 62.8971 229.751 61.9761C230.34 61.063 231.112 60.3246 232.075 59.7689C233.038 59.2131 234.096 58.9352 235.25 58.9352C236.404 58.9352 237.383 59.1893 238.314 59.7053C239.246 60.2135 239.994 60.9122 240.559 61.7855C241.124 62.6589 241.41 63.6752 241.41 64.8265C241.41 65.676 241.275 66.2953 240.997 66.6685C240.718 67.0416 240.368 67.2719 239.938 67.3592C239.508 67.4466 239.063 67.4863 238.593 67.4863H231.541V68.447C231.541 69.6459 231.971 70.5827 232.823 71.2814C233.682 71.9722 234.781 72.3215 236.126 72.3215C236.914 72.3215 237.55 72.2183 238.02 72.0039C238.49 71.7896 238.88 71.5831 239.174 71.3767C239.468 71.1703 239.739 71.075 239.978 71.075C240.217 71.075 240.408 71.1465 240.575 71.2814C240.734 71.4244 240.861 71.5831 240.941 71.7816C241.028 71.9722 241.068 72.1469 241.068 72.2898C241.068 72.5677 240.861 72.8853 240.455 73.2346C240.049 73.584 239.469 73.8936 238.704 74.1635C237.94 74.4335 237.049 74.5605 236.022 74.5605L236.014 74.5526ZM231.525 65.6919H237.455C238.036 65.6919 238.41 65.6204 238.593 65.4854C238.776 65.3505 238.864 65.0726 238.864 64.6677C238.864 64.0245 238.704 63.437 238.402 62.8892C238.1 62.3413 237.662 61.9046 237.105 61.5632C236.548 61.2218 235.919 61.0551 235.21 61.0551C234.55 61.0551 233.937 61.2139 233.38 61.5156C232.823 61.8173 232.377 62.246 232.035 62.778C231.693 63.31 231.525 63.8975 231.525 64.5406V65.6919ZM233.961 55.6084C233.706 55.6084 233.483 55.4893 233.284 55.2591C233.085 55.0288 232.998 54.7827 232.998 54.5207C232.998 54.1793 233.133 53.9411 233.412 53.8141L237.168 51.8291C237.296 51.7894 237.399 51.7656 237.487 51.7656C237.765 51.7656 237.98 51.8768 238.147 52.0991C238.314 52.3214 238.386 52.5755 238.386 52.8534C238.386 53.1948 238.235 53.4488 237.932 53.6235L234.311 55.4814C234.247 55.5052 234.184 55.529 234.136 55.5608C234.088 55.5926 234.025 55.6084 233.961 55.6084Z" fill="white"/>
<path d="M248.724 74.5511C247.697 74.5511 246.79 74.4162 246.002 74.1542C245.206 73.8842 244.593 73.5746 244.139 73.2093C243.686 72.8441 243.463 72.4868 243.463 72.1216C243.463 71.9549 243.503 71.7722 243.59 71.5896C243.678 71.407 243.789 71.2482 243.925 71.1132C244.06 70.9783 244.219 70.9068 244.386 70.9068C244.641 70.9068 244.919 71.0338 245.222 71.272C245.516 71.5182 245.93 71.7722 246.44 72.0263C246.949 72.2804 247.689 72.4074 248.652 72.4074C249.782 72.4074 250.578 72.201 251.024 71.7802C251.478 71.3673 251.7 70.8989 251.7 70.3907C251.7 69.7317 251.509 69.2236 251.127 68.8743C250.745 68.5249 250.252 68.247 249.655 68.0406C249.058 67.8341 248.429 67.6436 247.761 67.4451C247.1 67.2545 246.463 67.0164 245.866 66.7226C245.27 66.4368 244.784 66.0318 244.41 65.5078C244.036 64.9838 243.853 64.2851 243.853 63.4117C243.853 62.7051 244.02 62.0143 244.362 61.3315C244.704 60.6487 245.262 60.077 246.034 59.6165C246.806 59.156 247.832 58.9258 249.114 58.9258C249.862 58.9258 250.586 59.0052 251.279 59.164C251.971 59.3228 252.544 59.5371 252.982 59.8071C253.42 60.077 253.642 60.3549 253.642 60.6566C253.642 60.7837 253.603 60.9584 253.515 61.1648C253.427 61.3712 253.308 61.5697 253.165 61.7444C253.022 61.9191 252.823 61.9985 252.592 61.9985C252.417 61.9985 252.178 61.9191 251.868 61.7603C251.557 61.6015 251.183 61.4427 250.745 61.2998C250.308 61.1489 249.782 61.0774 249.161 61.0774C248.453 61.0774 247.888 61.1965 247.458 61.4427C247.029 61.6888 246.718 61.9746 246.527 62.3081C246.336 62.6416 246.241 62.975 246.241 63.3165C246.241 63.8484 246.432 64.2692 246.806 64.563C247.18 64.8647 247.673 65.1029 248.278 65.2855C248.891 65.4681 249.52 65.6507 250.188 65.8333C250.849 66.016 251.478 66.27 252.082 66.6035C252.679 66.937 253.173 67.3895 253.555 67.9612C253.937 68.5408 254.128 69.303 254.128 70.2637C254.128 71.5658 253.658 72.6059 252.719 73.384C251.78 74.1621 250.451 74.5511 248.74 74.5511H248.724Z" fill="white"/>
<path d="M97.1094 1.29297V87.4785" stroke="white" stroke-width="1.52" stroke-miterlimit="10" stroke-linecap="round"/>
<path d="M78.4908 3.99267C72.1555 5.58061 65.5496 6.32695 59.0154 5.64413C55.4259 5.18363 51.9638 4.08795 48.5335 5.44564C43.5751 7.24001 41.2033 12.9725 41.8798 17.9586C44.8485 45.5729 26.8852 67.7247 0 73.0205C24.991 63.3261 39.1817 45.8985 37.1841 18.4271C36.229 10.7097 41.2829 2.09507 49.4408 1.15819C53.5555 0.459493 57.3758 2.26975 61.3394 2.80965C66.9186 3.65126 72.6251 3.59568 78.3476 3.18282C78.5784 3.159 78.7933 3.32573 78.8092 3.56392C78.8251 3.77035 78.6898 3.94503 78.4988 3.99267H78.4908Z" fill="white"/>
<path d="M78.6369 4.22226C70.9724 8.66849 64.4382 15.5364 62.6315 24.3018C61.8595 28.5416 61.6128 33.3689 61.2148 37.7755L61.0795 39.5063C60.8407 43.9129 59.6947 48.3432 57.3388 52.1146C47.4539 67.5415 23.1951 72.2815 6.27441 74.449C21.6272 69.5502 44.1907 63.6907 53.033 49.5183C55.2854 45.8581 56.145 41.6024 56.4235 37.3467C56.9647 32.6544 57.1637 27.8667 58.3098 23.2458C60.9601 13.6229 69.0543 6.39773 78.3901 3.56326C78.7642 3.48386 79.0428 3.97613 78.6369 4.21432V4.22226Z" fill="white"/>
<path d="M45.2364 33.9729C47.6161 38.8955 50.2107 44.0563 53.4181 48.4946C60.8438 58.9433 71.9545 71.1863 60.5494 83.3976C56.7529 87.1531 51.0703 88.3917 46.0005 88.225C42.61 88.1297 39.299 87.5342 36.0996 86.645C36.012 86.6211 35.9563 86.5259 35.9802 86.4306C36.004 86.3512 36.0836 86.2956 36.1632 86.3036C39.4423 86.7005 42.7293 86.9229 45.9606 86.6847C52.1049 86.375 58.671 83.747 60.9473 77.7525C67.1234 64.1835 38.527 47.0417 45.2205 33.957L45.2364 33.9729Z" fill="#CCE1FA"/>
<path d="M33.2096 23.6668C27.0892 20.9118 27.1369 11.0745 19.4645 13.5913C17.5783 14.2742 15.7398 15.5366 14.4106 17.1007C11.4738 20.4751 9.17366 24.4687 7.39882 28.5895C5.58419 32.7657 4.3028 37.1961 3.43527 41.7059C3.4114 41.825 3.29997 41.8964 3.18058 41.8726C3.06916 41.8488 2.99753 41.7456 3.00548 41.6344C3.55465 37.0452 4.58931 32.5037 6.08558 28.0813C7.82063 23.0714 10.1446 18.1805 13.6386 14.0915C15.0075 12.7418 16.5118 11.5826 18.3264 10.7648C25.5133 7.04902 36.608 15.9653 33.2096 23.651V23.6668Z" fill="#CCE1FA"/>
</svg>
