<svg width="187" height="57" viewBox="0 0 187 57" fill="none" xmlns="http://www.w3.org/2000/svg">
<path d="M74.9177 24.1907C74.0583 24.1907 73.3026 24.0376 72.6605 23.7363C72.0135 23.4301 71.5097 23.0053 71.1442 22.4571C70.7836 21.9088 70.6008 21.2766 70.6008 20.5654C70.6008 20.2493 70.6749 20.032 70.8182 19.9233C70.9663 19.8097 71.1688 19.7554 71.4306 19.7554C71.643 19.7554 71.8307 19.7998 71.9937 19.8838C72.1567 19.9678 72.2456 20.1159 72.2604 20.3283C72.2752 20.7778 72.379 21.1828 72.5765 21.5483C72.7741 21.9138 73.0655 22.1904 73.4458 22.3929C73.8311 22.5904 74.3003 22.6892 74.8535 22.6892C75.6833 22.6892 76.3304 22.462 76.7848 22.0076C77.2392 21.5532 77.4664 20.842 77.4664 19.8789V11.1021H74.8881C74.7004 11.1021 74.5621 11.023 74.4633 10.865C74.3646 10.7069 74.3152 10.5291 74.3152 10.3316C74.3152 10.1587 74.3596 9.99571 74.4436 9.83766C74.5276 9.67961 74.6757 9.60059 74.8881 9.60059H78.3752C78.5728 9.60059 78.7457 9.64998 78.8988 9.74876C79.0519 9.84754 79.126 9.99571 79.126 10.1933V19.8838C79.126 20.9259 78.9383 21.7656 78.5629 22.4027C78.1875 23.0349 77.6788 23.4943 77.0367 23.7808C76.3946 24.0672 75.6833 24.2055 74.9079 24.2055L74.9177 24.1907Z" fill="#1C2D41"/>
<path d="M85.0817 24.2293C84.3803 24.2293 83.7333 24.0515 83.1406 23.6959C82.5479 23.3403 82.0688 22.8661 81.7131 22.2784C81.3575 21.6906 81.1797 21.0584 81.1797 20.3867V18.3666C81.1797 17.6899 81.3526 17.0676 81.7032 16.4947C82.0539 15.9217 82.5281 15.4525 83.1208 15.0969C83.7136 14.7413 84.3705 14.5635 85.0817 14.5635C85.793 14.5635 86.4301 14.7363 87.0228 15.0771C87.6156 15.4229 88.0947 15.8773 88.4602 16.4551C88.8257 17.0281 89.0035 17.6652 89.0035 18.3666V20.3867C89.0035 21.0485 88.8208 21.6708 88.4602 22.2586C88.0996 22.8463 87.6205 23.3205 87.0228 23.686C86.4301 24.0515 85.7782 24.2293 85.0817 24.2293ZM85.0817 22.7426C85.5065 22.7426 85.8868 22.629 86.2326 22.4068C86.5783 22.1796 86.85 21.8882 87.0574 21.5227C87.2599 21.1621 87.3637 20.7818 87.3637 20.3817V18.3616C87.3637 17.9665 87.2599 17.5911 87.0574 17.2405C86.85 16.8898 86.5783 16.6033 86.2326 16.3761C85.8868 16.1539 85.5065 16.0403 85.0817 16.0403C84.6569 16.0403 84.2766 16.1539 83.9407 16.3761C83.6049 16.6033 83.3332 16.8898 83.1258 17.2405C82.9232 17.5911 82.8195 17.9616 82.8195 18.3616V20.3817C82.8195 20.7769 82.9183 21.1572 83.1159 21.5227C83.3135 21.8882 83.5901 22.1796 83.9407 22.4068C84.2914 22.629 84.6718 22.7426 85.0817 22.7426Z" fill="#1C2D41"/>
<path d="M94.838 24.2309C94.1119 24.2309 93.4501 24.0531 92.8574 23.6975C92.2646 23.3418 91.7855 22.8726 91.4299 22.2898C91.0743 21.707 90.8965 21.0896 90.8965 20.4278V15.2763C90.8965 15.1331 90.9805 14.9948 91.1434 14.8713C91.3064 14.7478 91.504 14.6836 91.7263 14.6836C91.9485 14.6836 92.1412 14.7478 92.2992 14.8713C92.4573 14.9948 92.5363 15.1331 92.5363 15.2763V20.4278C92.5363 20.8229 92.64 21.1983 92.8426 21.549C93.0451 21.8996 93.3217 22.1861 93.6674 22.4133C94.0132 22.6356 94.3935 22.7492 94.8183 22.7492C95.243 22.7492 95.6233 22.6356 95.9691 22.4133C96.3148 22.1861 96.5816 21.8996 96.7841 21.549C96.9816 21.1983 97.0804 20.8278 97.0804 20.4278V15.2565C97.0804 15.0985 97.1644 14.9651 97.3373 14.8515C97.5101 14.7379 97.6979 14.6836 97.9102 14.6836C98.1621 14.6836 98.3597 14.7379 98.5029 14.8515C98.6462 14.9651 98.7203 15.0985 98.7203 15.2565V20.4278C98.7203 21.0995 98.5424 21.7268 98.1967 22.2997C97.846 22.8726 97.3718 23.3418 96.7791 23.6975C96.1864 24.0531 95.5344 24.2309 94.838 24.2309Z" fill="#1C2D41"/>
<path d="M101.773 24.0722C101.546 24.0722 101.358 24.008 101.21 23.8845C101.057 23.761 100.983 23.6227 100.983 23.4795V15.2559C100.983 15.083 101.057 14.9447 101.21 14.841C101.363 14.7373 101.551 14.6829 101.773 14.6829C101.995 14.6829 102.183 14.7373 102.326 14.841C102.469 14.9447 102.543 15.0879 102.543 15.2559V16.1894C102.692 15.9128 102.889 15.651 103.136 15.409C103.388 15.167 103.68 14.9645 104.02 14.8064C104.361 14.6484 104.732 14.5693 105.142 14.5693H105.813C105.986 14.5693 106.134 14.6434 106.258 14.7867C106.381 14.9299 106.445 15.1126 106.445 15.3201C106.445 15.5176 106.381 15.6905 106.258 15.8337C106.134 15.9819 105.981 16.0511 105.813 16.0511H105.142C104.717 16.0511 104.317 16.1696 103.931 16.4067C103.546 16.6438 103.235 16.9796 102.988 17.4093C102.746 17.839 102.623 18.3576 102.623 18.9651V23.4844C102.623 23.6326 102.539 23.7659 102.376 23.8894C102.213 24.0129 102.01 24.0771 101.773 24.0771V24.0722Z" fill="#1C2D41"/>
<path d="M108.57 24.0713C108.333 24.0713 108.135 24.007 107.987 23.8836C107.834 23.7601 107.76 23.6218 107.76 23.4786V15.2549C107.76 15.0821 107.834 14.9438 107.987 14.8401C108.14 14.7363 108.333 14.682 108.57 14.682C108.782 14.682 108.96 14.7363 109.103 14.8401C109.246 14.9438 109.321 15.087 109.321 15.2549V16.0699C109.533 15.6846 109.864 15.3389 110.313 15.0277C110.763 14.7166 111.316 14.5635 111.978 14.5635C112.64 14.5635 113.193 14.7363 113.721 15.087C114.25 15.4377 114.67 15.897 114.991 16.465C115.307 17.033 115.465 17.6652 115.465 18.3666V23.4786C115.465 23.6761 115.381 23.8243 115.208 23.9231C115.035 24.0219 114.848 24.0713 114.635 24.0713C114.438 24.0713 114.25 24.0219 114.082 23.9231C113.914 23.8243 113.825 23.6761 113.825 23.4786V18.3666C113.825 17.9813 113.721 17.6109 113.519 17.2553C113.316 16.8997 113.04 16.6083 112.694 16.3811C112.348 16.1588 111.973 16.0452 111.563 16.0452C111.207 16.0452 110.862 16.139 110.531 16.3317C110.2 16.5243 109.928 16.7861 109.716 17.1269C109.503 17.4677 109.4 17.8776 109.4 18.3666V23.4786C109.4 23.6267 109.316 23.7601 109.153 23.8836C108.99 24.007 108.792 24.0713 108.57 24.0713Z" fill="#1C2D41"/>
<path d="M119.767 24.2293C119.026 24.2293 118.394 24.0169 117.875 23.5872C117.352 23.1575 117.095 22.4957 117.095 21.5968C117.095 20.8707 117.293 20.3077 117.688 19.9026C118.083 19.4976 118.631 19.221 119.323 19.0679C120.014 18.9148 120.819 18.8407 121.728 18.8407H122.681V18.4259C122.681 18.0307 122.607 17.6455 122.464 17.2652C122.316 16.8898 122.089 16.5786 121.782 16.3317C121.471 16.0897 121.046 15.9662 120.503 15.9662C120.039 15.9662 119.673 16.0106 119.402 16.1045C119.13 16.1983 118.918 16.2922 118.76 16.3909C118.601 16.4897 118.463 16.5391 118.345 16.5391C118.147 16.5391 117.994 16.4453 117.89 16.2526C117.786 16.06 117.732 15.8773 117.732 15.7093C117.732 15.497 117.875 15.3043 118.167 15.1364C118.458 14.9635 118.819 14.8252 119.258 14.7215C119.698 14.6178 120.123 14.5635 120.548 14.5635C121.471 14.5635 122.212 14.7512 122.765 15.1167C123.318 15.4871 123.719 15.9612 123.966 16.5441C124.212 17.1269 124.331 17.7443 124.331 18.4061V23.4786C124.331 23.6366 124.257 23.7749 124.104 23.8934C123.951 24.012 123.758 24.0713 123.521 24.0713C123.309 24.0713 123.131 24.012 122.988 23.8934C122.839 23.7749 122.77 23.6366 122.77 23.4786V22.6883C122.424 23.0834 122.01 23.439 121.521 23.7601C121.032 24.0762 120.449 24.2342 119.777 24.2342L119.767 24.2293ZM120.286 22.9007C120.666 22.9007 121.041 22.797 121.407 22.5846C121.768 22.3722 122.074 22.1104 122.316 21.7943C122.558 21.4782 122.681 21.172 122.681 20.8806V19.8483H121.985C121.432 19.8483 120.903 19.8829 120.409 19.9471C119.915 20.0113 119.515 20.1545 119.209 20.3719C118.903 20.5892 118.755 20.9349 118.755 21.414C118.755 21.9277 118.898 22.308 119.189 22.5451C119.481 22.7821 119.841 22.9007 120.281 22.9007H120.286Z" fill="#1C2D41"/>
<path d="M127.556 24.072C127.319 24.072 127.121 24.0078 126.973 23.8843C126.825 23.7609 126.746 23.6226 126.746 23.4793V9.58563C126.746 9.41276 126.82 9.27446 126.973 9.17074C127.126 9.06702 127.319 9.0127 127.556 9.0127C127.783 9.0127 127.976 9.06702 128.139 9.17074C128.302 9.27446 128.386 9.4177 128.386 9.58563V23.4793C128.386 23.6275 128.302 23.7609 128.139 23.8843C127.971 24.0078 127.778 24.072 127.556 24.072Z" fill="#1C2D41"/>
<path d="M138.555 24.2289C137.71 24.2289 136.97 24.1005 136.337 23.8436C135.705 23.5868 135.216 23.2806 134.87 22.9299C134.525 22.5792 134.357 22.2681 134.357 21.9865C134.357 21.8532 134.391 21.7198 134.465 21.5815C134.539 21.4432 134.628 21.3247 134.742 21.2259C134.856 21.1271 134.969 21.0777 135.088 21.0777C135.246 21.0777 135.404 21.1568 135.552 21.3148C135.705 21.4729 135.898 21.6605 136.125 21.8779C136.357 22.0952 136.658 22.2829 137.029 22.4409C137.399 22.599 137.883 22.678 138.476 22.678C139.029 22.678 139.513 22.5891 139.923 22.4113C140.333 22.2335 140.654 21.9618 140.886 21.6013C141.119 21.2358 141.232 20.7764 141.232 20.2233C141.232 19.6701 141.114 19.191 140.877 18.8354C140.639 18.4798 140.323 18.1834 139.933 17.9414C139.543 17.6994 139.123 17.4919 138.664 17.3092C138.209 17.1264 137.745 16.9338 137.276 16.7461C136.807 16.5584 136.382 16.3164 135.997 16.0349C135.611 15.7534 135.3 15.3829 135.063 14.9335C134.826 14.484 134.707 13.916 134.707 13.2295C134.707 12.5034 134.841 11.9009 135.103 11.4267C135.364 10.9526 135.715 10.5723 136.155 10.2957C136.589 10.0191 137.063 9.82151 137.572 9.71285C138.081 9.59925 138.58 9.54492 139.069 9.54492C139.424 9.54492 139.805 9.56962 140.2 9.62395C140.595 9.67828 140.97 9.7573 141.331 9.86102C141.687 9.96475 141.978 10.103 142.2 10.266C142.423 10.429 142.536 10.6266 142.536 10.8488C142.536 10.9526 142.511 11.076 142.457 11.2143C142.403 11.3526 142.324 11.4811 142.22 11.5897C142.116 11.7033 141.983 11.7576 141.825 11.7576C141.677 11.7576 141.504 11.6934 141.291 11.5699C141.079 11.4465 140.797 11.3181 140.447 11.1946C140.096 11.0711 139.637 11.0069 139.069 11.0069C138.595 11.0069 138.145 11.0711 137.73 11.2045C137.315 11.3378 136.984 11.5551 136.737 11.8564C136.49 12.1626 136.372 12.5627 136.372 13.0665C136.372 13.5407 136.49 13.9308 136.728 14.2371C136.965 14.5433 137.276 14.7902 137.661 14.9928C138.046 15.1903 138.466 15.3731 138.93 15.5361C139.395 15.704 139.854 15.8917 140.318 16.109C140.783 16.3263 141.207 16.593 141.598 16.9091C141.988 17.2252 142.299 17.6401 142.541 18.1488C142.778 18.6576 142.897 19.2947 142.897 20.0603C142.897 21.0135 142.709 21.7939 142.334 22.4063C141.958 23.0188 141.445 23.4781 140.797 23.7745C140.15 24.0708 139.405 24.219 138.56 24.219L138.555 24.2289Z" fill="#1C2D41"/>
<path d="M145.627 28.6103C145.4 28.6103 145.213 28.5461 145.064 28.4226C144.911 28.2942 144.837 28.1608 144.837 28.0176V15.2549C144.837 15.0821 144.911 14.9438 145.064 14.8401C145.217 14.7363 145.405 14.682 145.627 14.682C145.85 14.682 146.037 14.7363 146.181 14.8401C146.329 14.9438 146.398 15.087 146.398 15.2549V16.0699C146.625 15.6846 146.961 15.3389 147.411 15.0277C147.86 14.7166 148.408 14.5635 149.055 14.5635C149.702 14.5635 150.315 14.7363 150.858 15.087C151.401 15.4377 151.831 15.897 152.147 16.465C152.463 17.033 152.621 17.6652 152.621 18.3666V20.3867C152.621 21.0485 152.458 21.6708 152.137 22.2586C151.811 22.8463 151.387 23.3205 150.858 23.686C150.33 24.0515 149.747 24.2293 149.115 24.2293C148.522 24.2293 147.983 24.0712 147.509 23.765C147.035 23.4539 146.689 23.0933 146.477 22.6834V28.0127C146.477 28.1559 146.393 28.2942 146.23 28.4177C146.067 28.5411 145.865 28.6053 145.627 28.6053V28.6103ZM148.719 22.7426C149.115 22.7426 149.485 22.629 149.831 22.4068C150.177 22.1796 150.453 21.8832 150.661 21.5128C150.868 21.1424 150.977 20.767 150.977 20.3817V18.3616C150.977 17.9764 150.873 17.606 150.661 17.2503C150.448 16.8947 150.172 16.6033 149.831 16.3761C149.485 16.1539 149.105 16.0403 148.68 16.0403C148.324 16.0403 147.979 16.1341 147.638 16.3267C147.302 16.5194 147.025 16.7811 146.808 17.1219C146.591 17.4578 146.482 17.8727 146.482 18.3616V20.9201C146.482 21.093 146.576 21.3251 146.768 21.6116C146.961 21.903 147.223 22.1648 147.559 22.392C147.895 22.6192 148.28 22.7377 148.719 22.7377V22.7426Z" fill="#1C2D41"/>
<path d="M158.668 24.2301C157.809 24.2301 157.048 24.0671 156.391 23.7461C155.729 23.425 155.211 22.9756 154.825 22.3977C154.44 21.8198 154.252 21.153 154.252 20.3875V18.3081C154.252 17.6364 154.435 17.0141 154.796 16.4461C155.161 15.8781 155.64 15.4237 156.233 15.0779C156.826 14.7322 157.483 14.5643 158.194 14.5643C158.905 14.5643 159.513 14.7223 160.086 15.0384C160.659 15.3545 161.123 15.7842 161.474 16.3275C161.824 16.8708 161.997 17.4981 161.997 18.2093C161.997 18.7378 161.913 19.1181 161.74 19.3503C161.568 19.5824 161.35 19.7256 161.088 19.775C160.822 19.8294 160.545 19.8541 160.259 19.8541H155.897V20.4467C155.897 21.1876 156.164 21.7704 156.688 22.2001C157.216 22.6298 157.898 22.8422 158.727 22.8422C159.216 22.8422 159.607 22.778 159.898 22.6447C160.189 22.5113 160.427 22.3829 160.614 22.2594C160.797 22.1359 160.965 22.0717 161.108 22.0717C161.251 22.0717 161.375 22.1162 161.474 22.2001C161.572 22.2841 161.647 22.3878 161.701 22.5064C161.755 22.6249 161.78 22.7336 161.78 22.8225C161.78 22.9953 161.656 23.188 161.405 23.4053C161.153 23.6226 160.792 23.8152 160.323 23.9782C159.854 24.1412 159.3 24.2252 158.668 24.2252V24.2301ZM155.897 18.7428H159.562C159.918 18.7428 160.155 18.6983 160.264 18.6143C160.372 18.5304 160.431 18.3624 160.431 18.1106C160.431 17.7154 160.333 17.3499 160.145 17.0091C159.952 16.6733 159.686 16.3967 159.345 16.1843C158.999 15.9719 158.609 15.8682 158.174 15.8682C157.764 15.8682 157.389 15.962 157.043 16.1547C156.697 16.3473 156.421 16.6091 156.208 16.935C155.996 17.266 155.892 17.6265 155.892 18.0266V18.7428H155.897ZM157.404 12.4997C157.246 12.4997 157.107 12.4256 156.989 12.2824C156.87 12.1392 156.811 11.9861 156.811 11.828C156.811 11.6156 156.895 11.4724 157.068 11.3934L159.389 10.1635C159.468 10.1388 159.533 10.124 159.587 10.124C159.76 10.124 159.893 10.1932 159.992 10.3315C160.091 10.4698 160.14 10.6278 160.14 10.7957C160.14 11.0081 160.046 11.1662 159.863 11.2699L157.626 12.4207C157.586 12.4355 157.552 12.4503 157.517 12.4701C157.483 12.4899 157.448 12.4997 157.409 12.4997H157.404Z" fill="#1C2D41"/>
<path d="M167.47 24.2293C166.561 24.2293 165.81 24.0564 165.223 23.7156C164.635 23.3699 164.2 22.9155 163.914 22.3376C163.627 21.7647 163.489 21.1127 163.489 20.3867V18.4061C163.489 17.6899 163.632 17.0429 163.914 16.465C164.195 15.8822 164.635 15.4229 165.223 15.0771C165.81 14.7314 166.551 14.5635 167.45 14.5635C168.033 14.5635 168.542 14.6376 168.977 14.7808C169.411 14.924 169.747 15.1068 169.989 15.3142C170.226 15.5266 170.345 15.7291 170.345 15.9267C170.345 16.0304 170.315 16.1489 170.256 16.2724C170.197 16.4008 170.118 16.5095 170.019 16.5984C169.92 16.6922 169.801 16.7367 169.673 16.7367C169.545 16.7367 169.396 16.6774 169.248 16.5589C169.095 16.4403 168.893 16.3267 168.636 16.2131C168.379 16.0995 168.018 16.0452 167.554 16.0452C166.749 16.0452 166.141 16.2576 165.741 16.6774C165.336 17.1022 165.139 17.6751 165.139 18.4012V20.3817C165.139 21.1078 165.341 21.6857 165.741 22.1055C166.141 22.5302 166.754 22.7377 167.574 22.7377C168.048 22.7377 168.418 22.6735 168.685 22.55C168.947 22.4265 169.159 22.3031 169.307 22.1944C169.461 22.0808 169.609 22.0265 169.752 22.0265C169.895 22.0265 170.024 22.0709 170.127 22.1549C170.231 22.2388 170.315 22.3426 170.374 22.4611C170.434 22.5796 170.463 22.6982 170.463 22.8167C170.463 23.0143 170.335 23.2217 170.088 23.439C169.836 23.6564 169.485 23.8441 169.036 23.9922C168.586 24.1453 168.063 24.2194 167.47 24.2194V24.2293Z" fill="#1C2D41"/>
<path d="M172.919 12.1054C172.642 12.1054 172.4 12.0115 172.198 11.8189C171.99 11.6263 171.891 11.404 171.891 11.1571C171.891 10.9101 171.995 10.6879 172.198 10.5051C172.4 10.3224 172.642 10.2285 172.919 10.2285C173.195 10.2285 173.452 10.3224 173.645 10.5051C173.837 10.6928 173.931 10.9101 173.931 11.1571C173.931 11.404 173.837 11.6312 173.645 11.8189C173.452 12.0115 173.21 12.1054 172.919 12.1054ZM172.919 24.0728C172.682 24.0728 172.484 24.0086 172.336 23.8851C172.183 23.7617 172.109 23.6234 172.109 23.4801V15.2565C172.109 15.0837 172.183 14.9454 172.336 14.8416C172.489 14.7379 172.682 14.6836 172.919 14.6836C173.146 14.6836 173.339 14.7379 173.502 14.8416C173.665 14.9454 173.749 15.0886 173.749 15.2565V23.4801C173.749 23.6283 173.665 23.7617 173.502 23.8851C173.339 24.0086 173.141 24.0728 172.919 24.0728Z" fill="#1C2D41"/>
<path d="M178.128 24.2293C177.387 24.2293 176.755 24.0169 176.236 23.5872C175.713 23.1575 175.456 22.4957 175.456 21.5968C175.456 20.8707 175.654 20.3077 176.049 19.9026C176.444 19.4976 176.992 19.221 177.684 19.0679C178.375 18.9148 179.18 18.8407 180.089 18.8407H181.042V18.4259C181.042 18.0307 180.968 17.6455 180.825 17.2652C180.677 16.8898 180.45 16.5786 180.143 16.3317C179.832 16.0897 179.407 15.9662 178.864 15.9662C178.4 15.9662 178.034 16.0106 177.763 16.1045C177.491 16.1983 177.279 16.2922 177.121 16.3909C176.963 16.4897 176.824 16.5391 176.706 16.5391C176.508 16.5391 176.355 16.4453 176.251 16.2526C176.148 16.06 176.093 15.8773 176.093 15.7093C176.093 15.497 176.236 15.3043 176.528 15.1364C176.819 14.9635 177.18 14.8252 177.619 14.7215C178.059 14.6178 178.484 14.5635 178.909 14.5635C179.832 14.5635 180.573 14.7512 181.126 15.1167C181.68 15.4871 182.08 15.9612 182.327 16.5441C182.569 17.1269 182.692 17.7443 182.692 18.4061V23.4786C182.692 23.6366 182.618 23.7749 182.465 23.8934C182.312 24.012 182.119 24.0713 181.882 24.0713C181.67 24.0713 181.492 24.012 181.349 23.8934C181.2 23.7749 181.131 23.6366 181.131 23.4786V22.6883C180.786 23.0834 180.371 23.439 179.882 23.7601C179.393 24.0762 178.81 24.2342 178.138 24.2342L178.128 24.2293ZM178.647 22.9007C179.027 22.9007 179.403 22.797 179.768 22.5846C180.129 22.3722 180.435 22.1104 180.677 21.7943C180.919 21.4782 181.042 21.172 181.042 20.8806V19.8483H180.346C179.793 19.8483 179.264 19.8829 178.77 19.9471C178.276 20.0113 177.876 20.1545 177.57 20.3719C177.264 20.5892 177.116 20.9349 177.116 21.414C177.116 21.9277 177.259 22.308 177.55 22.5451C177.842 22.7821 178.202 22.9007 178.642 22.9007H178.647Z" fill="#1C2D41"/>
<path d="M185.917 24.072C185.68 24.072 185.483 24.0078 185.335 23.8843C185.186 23.7609 185.107 23.6226 185.107 23.4793V9.58563C185.107 9.41276 185.182 9.27446 185.335 9.17074C185.488 9.06702 185.68 9.0127 185.917 9.0127C186.145 9.0127 186.337 9.06702 186.5 9.17074C186.663 9.27446 186.747 9.4177 186.747 9.58563V23.4793C186.747 23.6275 186.663 23.7609 186.5 23.8843C186.332 24.0078 186.14 24.072 185.917 24.072Z" fill="#1C2D41"/>
<path d="M73.5444 46.3426C73.0702 46.3426 72.6257 46.2043 72.2157 45.9277C71.8058 45.6511 71.4798 45.2856 71.2279 44.8362C70.9809 44.3867 70.8574 43.9076 70.8574 43.4038V41.8579C70.8574 41.3245 70.9809 40.8355 71.2279 40.4008C71.4748 39.9662 71.8058 39.6155 72.2157 39.3488C72.6257 39.0821 73.0752 38.9487 73.574 38.9487C74.0729 38.9487 74.473 39.0673 74.8088 39.3044C75.1447 39.5414 75.3966 39.8081 75.5596 40.0996V35.1456C75.5596 35.0123 75.6238 34.9086 75.7473 34.8295C75.8708 34.7505 76.0288 34.7061 76.2116 34.7061C76.3943 34.7061 76.5376 34.7456 76.6512 34.8295C76.7598 34.9086 76.8191 35.0172 76.8191 35.1456V45.7696C76.8191 45.8832 76.7648 45.982 76.6512 46.0808C76.5376 46.1747 76.3943 46.224 76.2116 46.224C76.0486 46.224 75.9103 46.1747 75.7967 46.0808C75.6831 45.987 75.6238 45.8832 75.6238 45.7696V45.1621C75.4707 45.4733 75.204 45.7499 74.8187 45.987C74.4335 46.224 74.0087 46.3426 73.5444 46.3426ZM73.8457 45.2066C74.1667 45.2066 74.4581 45.1177 74.715 44.9399C74.9718 44.7621 75.1793 44.5645 75.3274 44.3422C75.4806 44.12 75.5547 43.9422 75.5547 43.8138V41.8579C75.5547 41.4825 75.4707 41.1664 75.3028 40.9096C75.1348 40.6527 74.9224 40.4502 74.6607 40.3021C74.3989 40.1539 74.1322 40.0798 73.8556 40.0798C73.5296 40.0798 73.2381 40.1638 72.9764 40.3366C72.7146 40.5095 72.5022 40.7318 72.3491 41.0034C72.191 41.2751 72.1169 41.5566 72.1169 41.8529V43.3989C72.1169 43.6903 72.196 43.9817 72.3491 44.2632C72.5022 44.5447 72.7146 44.7719 72.9764 44.9448C73.2381 45.1177 73.5246 45.2017 73.8407 45.2017L73.8457 45.2066Z" fill="#1C2D41"/>
<path d="M81.7288 46.3402C81.0719 46.3402 80.489 46.2167 79.9852 45.9697C79.4814 45.7228 79.0814 45.3771 78.7899 44.9375C78.4985 44.4979 78.3503 43.9842 78.3503 43.3965V41.8061C78.3503 41.2924 78.4887 40.8183 78.7653 40.3836C79.0419 39.949 79.4073 39.6032 79.8618 39.3365C80.3162 39.0748 80.8151 38.9414 81.3633 38.9414C81.9116 38.9414 82.3709 39.0649 82.8105 39.3069C83.2501 39.5489 83.6008 39.8798 83.8724 40.2898C84.1392 40.7047 84.2725 41.1838 84.2725 41.7271C84.2725 42.1321 84.2083 42.4235 84.075 42.5963C83.9416 42.7692 83.7786 42.8828 83.5761 42.9223C83.3736 42.9618 83.1612 42.9816 82.9389 42.9816H79.6049V43.436C79.6049 44.004 79.8074 44.4485 80.2125 44.7794C80.6175 45.1054 81.1361 45.2733 81.7732 45.2733C82.1486 45.2733 82.445 45.2239 82.6673 45.1202C82.8895 45.0214 83.0723 44.9227 83.2106 44.8239C83.3538 44.73 83.4773 44.6806 83.5909 44.6806C83.7045 44.6806 83.7934 44.7152 83.8724 44.7794C83.9465 44.8436 84.0058 44.9227 84.0453 45.0116C84.0848 45.1005 84.1046 45.1844 84.1046 45.2536C84.1046 45.3869 84.0107 45.5351 83.8181 45.6981C83.6255 45.8611 83.3489 46.0093 82.9933 46.1377C82.6327 46.2661 82.2129 46.3254 81.7288 46.3254V46.3402ZM79.6049 42.1419H82.4104C82.6821 42.1419 82.8599 42.1074 82.9488 42.0432C83.0377 41.979 83.0772 41.8505 83.0772 41.6579C83.0772 41.3566 83.0031 41.0751 82.8599 40.8183C82.7117 40.5614 82.5092 40.3491 82.2474 40.191C81.9856 40.0329 81.6844 39.949 81.3534 39.949C81.0373 39.949 80.7508 40.0231 80.4891 40.1663C80.2273 40.3145 80.0149 40.512 79.8519 40.7639C79.6889 41.0158 79.6098 41.2924 79.6098 41.5986V42.1469L79.6049 42.1419Z" fill="#1C2D41"/>
<path d="M87.731 46.3402C87.247 46.3402 86.8173 46.276 86.4419 46.1525C86.0665 46.0241 85.7751 45.8759 85.5627 45.703C85.3503 45.5302 85.2466 45.3622 85.2466 45.1894C85.2466 45.1103 85.2663 45.0264 85.3059 44.9375C85.3454 44.8535 85.3997 44.7745 85.4639 44.7103C85.5281 44.6461 85.6022 44.6115 85.6862 44.6115C85.8097 44.6115 85.9381 44.6708 86.0813 44.7844C86.2246 44.898 86.4172 45.0165 86.6592 45.14C86.9012 45.2635 87.2519 45.3227 87.7063 45.3227C88.2398 45.3227 88.6152 45.2239 88.8275 45.0264C89.0399 44.8288 89.1437 44.6115 89.1437 44.3695C89.1437 44.0583 89.0547 43.8163 88.872 43.6484C88.6892 43.4804 88.4571 43.352 88.1756 43.2532C87.894 43.1545 87.5927 43.0656 87.2816 42.9717C86.9654 42.8828 86.6691 42.7692 86.3876 42.6309C86.106 42.4926 85.8739 42.3049 85.696 42.053C85.5182 41.8011 85.4293 41.4752 85.4293 41.0603C85.4293 40.7244 85.5084 40.3984 85.6714 40.0774C85.8343 39.7564 86.0961 39.4847 86.4616 39.2674C86.8271 39.0501 87.3112 38.9414 87.9187 38.9414C88.2743 38.9414 88.6151 38.9809 88.9411 39.055C89.2671 39.1291 89.5388 39.2328 89.7462 39.3563C89.9537 39.4847 90.0574 39.6181 90.0574 39.7564C90.0574 39.8156 90.0377 39.8996 89.9981 39.9984C89.9586 40.1021 89.9043 40.191 89.8302 40.27C89.7611 40.349 89.6672 40.3935 89.5585 40.3935C89.4795 40.3935 89.3659 40.354 89.2177 40.2799C89.0696 40.2058 88.8917 40.1317 88.6892 40.0626C88.4818 39.9934 88.2299 39.9589 87.9385 39.9589C87.6026 39.9589 87.3359 40.0181 87.1334 40.1317C86.9309 40.2503 86.7827 40.3836 86.6938 40.5417C86.6049 40.6997 86.5555 40.8578 86.5555 41.0208C86.5555 41.2727 86.6444 41.4702 86.8222 41.6135C87 41.7567 87.2322 41.8703 87.5186 41.9543C87.8051 42.0382 88.1064 42.1271 88.4225 42.2111C88.7386 42.2951 89.035 42.4185 89.3165 42.5766C89.5981 42.7346 89.8302 42.947 90.013 43.2187C90.1957 43.4903 90.2846 43.8558 90.2846 44.3102C90.2846 44.9276 90.0624 45.4215 89.6178 45.787C89.1733 46.1574 88.546 46.3402 87.7409 46.3402H87.731Z" fill="#1C2D41"/>
<path d="M99.579 46.3793C98.7344 46.3793 97.9935 46.2509 97.3613 45.994C96.729 45.7372 96.2401 45.431 95.8943 45.0803C95.5486 44.7296 95.3806 44.4184 95.3806 44.1369C95.3806 44.0036 95.4152 43.8702 95.4893 43.7319C95.5634 43.5936 95.6523 43.4751 95.7659 43.3763C95.8795 43.2775 95.9931 43.2281 96.1116 43.2281C96.2697 43.2281 96.4278 43.3071 96.5759 43.4652C96.7291 43.6233 96.9217 43.8109 97.1489 44.0283C97.381 44.2456 97.6823 44.4333 98.0528 44.5913C98.4232 44.7494 98.9073 44.8284 99.5 44.8284C100.053 44.8284 100.537 44.7395 100.947 44.5617C101.357 44.3839 101.678 44.1122 101.91 43.7517C102.142 43.3862 102.256 42.9268 102.256 42.3737C102.256 41.8205 102.138 41.3414 101.9 40.9858C101.663 40.6302 101.347 40.3338 100.957 40.0918C100.567 39.8498 100.147 39.6423 99.6877 39.4596C99.2333 39.2768 98.769 39.0842 98.2997 38.8965C97.8305 38.7088 97.4057 38.4668 97.0205 38.1853C96.6352 37.9038 96.324 37.5333 96.087 37.0839C95.8499 36.6344 95.7313 36.0664 95.7313 35.3799C95.7313 34.6538 95.8647 34.0513 96.1264 33.5771C96.3882 33.103 96.7389 32.7226 97.1785 32.4461C97.6132 32.1695 98.0873 31.9719 98.5961 31.8632C99.1048 31.7496 99.6037 31.6953 100.093 31.6953C100.448 31.6953 100.829 31.72 101.224 31.7743C101.619 31.8287 101.994 31.9077 102.355 32.0114C102.711 32.1151 103.002 32.2534 103.224 32.4164C103.446 32.5794 103.56 32.777 103.56 32.9992C103.56 33.103 103.535 33.2264 103.481 33.3647C103.427 33.503 103.348 33.6314 103.244 33.7401C103.14 33.8537 103.007 33.908 102.849 33.908C102.701 33.908 102.528 33.8438 102.315 33.7203C102.103 33.5969 101.821 33.4685 101.471 33.345C101.12 33.2215 100.661 33.1573 100.093 33.1573C99.6185 33.1573 99.169 33.2215 98.7541 33.3549C98.3392 33.4882 98.0083 33.7055 97.7613 34.0068C97.5144 34.313 97.3958 34.7131 97.3958 35.2169C97.3958 35.6911 97.5144 36.0812 97.7515 36.3875C97.9886 36.6937 98.2997 36.9406 98.685 37.1432C99.0702 37.3407 99.4901 37.5235 99.9544 37.6864C100.419 37.8544 100.878 38.0421 101.342 38.2594C101.807 38.4767 102.231 38.7434 102.622 39.0595C103.012 39.3756 103.323 39.7905 103.565 40.2992C103.802 40.808 103.921 41.4451 103.921 42.2107C103.921 43.1639 103.733 43.9443 103.358 44.5567C102.982 45.1692 102.468 45.6285 101.821 45.9249C101.174 46.2212 100.429 46.3694 99.5839 46.3694L99.579 46.3793Z" fill="#1C2D41"/>
<path d="M109.39 46.3816C108.688 46.3816 108.041 46.2038 107.448 45.8482C106.856 45.4926 106.377 45.0185 106.021 44.4307C105.665 43.843 105.488 43.2107 105.488 42.539V40.5189C105.488 39.8423 105.66 39.2199 106.011 38.647C106.362 38.0741 106.836 37.6049 107.429 37.2492C108.021 36.8936 108.678 36.7158 109.39 36.7158C110.101 36.7158 110.738 36.8887 111.331 37.2295C111.923 37.5752 112.403 38.0296 112.768 38.6075C113.134 39.1804 113.311 39.8176 113.311 40.5189V42.539C113.311 43.2009 113.129 43.8232 112.768 44.4109C112.407 44.9987 111.928 45.4729 111.331 45.8383C110.738 46.2038 110.086 46.3816 109.39 46.3816ZM109.39 44.895C109.814 44.895 110.195 44.7814 110.54 44.5591C110.886 44.3319 111.158 44.0405 111.365 43.675C111.568 43.3145 111.672 42.9342 111.672 42.5341V40.514C111.672 40.1189 111.568 39.7435 111.365 39.3928C111.158 39.0421 110.886 38.7557 110.54 38.5285C110.195 38.3062 109.814 38.1926 109.39 38.1926C108.965 38.1926 108.584 38.3062 108.249 38.5285C107.913 38.7557 107.641 39.0421 107.434 39.3928C107.231 39.7435 107.127 40.1139 107.127 40.514V42.5341C107.127 42.9292 107.226 43.3095 107.424 43.675C107.621 44.0405 107.898 44.3319 108.249 44.5591C108.599 44.7814 108.98 44.895 109.39 44.895Z" fill="#1C2D41"/>
<path d="M118.941 46.3816C118.032 46.3816 117.281 46.2088 116.693 45.868C116.106 45.5272 115.671 45.0678 115.384 44.49C115.098 43.917 114.96 43.2651 114.96 42.539V40.5584C114.96 39.8423 115.103 39.1953 115.384 38.6174C115.666 38.0346 116.106 37.5752 116.693 37.2295C117.281 36.8838 118.022 36.7158 118.921 36.7158C119.504 36.7158 120.013 36.7899 120.447 36.9331C120.882 37.0764 121.218 37.2591 121.46 37.4666C121.697 37.6789 121.815 37.8815 121.815 38.079C121.815 38.1827 121.786 38.3013 121.727 38.4248C121.667 38.5532 121.588 38.6618 121.489 38.7507C121.391 38.8446 121.272 38.889 121.144 38.889C121.015 38.889 120.867 38.8298 120.719 38.7112C120.566 38.5927 120.363 38.4791 120.106 38.3655C119.85 38.2519 119.489 38.1976 119.025 38.1976C118.22 38.1976 117.612 38.4099 117.212 38.8298C116.807 39.2545 116.609 39.8275 116.609 40.5535V42.5341C116.609 43.2601 116.812 43.838 117.212 44.2578C117.612 44.6826 118.225 44.89 119.044 44.89C119.519 44.89 119.889 44.8258 120.156 44.7023C120.418 44.5789 120.63 44.4554 120.778 44.3467C120.931 44.2331 121.079 44.1788 121.223 44.1788C121.366 44.1788 121.494 44.2233 121.598 44.3072C121.702 44.3912 121.786 44.4949 121.845 44.6134C121.904 44.732 121.934 44.8505 121.934 44.9691C121.934 45.1666 121.806 45.3741 121.559 45.5914C121.307 45.8087 120.956 45.9964 120.507 46.1446C120.057 46.2977 119.533 46.3718 118.941 46.3718V46.3816Z" fill="#1C2D41"/>
<path d="M124.389 34.2519C124.113 34.2519 123.871 34.158 123.668 33.9654C123.461 33.7728 123.362 33.5505 123.362 33.3035C123.362 33.0566 123.466 32.8343 123.668 32.6516C123.871 32.4688 124.113 32.375 124.389 32.375C124.666 32.375 124.923 32.4688 125.115 32.6516C125.308 32.8393 125.402 33.0566 125.402 33.3035C125.402 33.5505 125.308 33.7777 125.115 33.9654C124.923 34.158 124.681 34.2519 124.389 34.2519ZM124.389 46.2242C124.152 46.2242 123.955 46.16 123.807 46.0366C123.653 45.9131 123.579 45.7748 123.579 45.6316V37.4079C123.579 37.2351 123.653 37.0968 123.807 36.9931C123.96 36.8893 124.152 36.835 124.389 36.835C124.617 36.835 124.809 36.8893 124.972 36.9931C125.135 37.0968 125.219 37.24 125.219 37.4079V45.6316C125.219 45.7797 125.135 45.9131 124.972 46.0366C124.809 46.16 124.612 46.2242 124.389 46.2242Z" fill="#1C2D41"/>
<path d="M131.605 46.3815C130.746 46.3815 129.985 46.2185 129.328 45.8974C128.667 45.5764 128.148 45.1269 127.763 44.5491C127.377 43.9712 127.19 43.3044 127.19 42.5388V40.4595C127.19 39.7878 127.372 39.1654 127.733 38.5974C128.099 38.0294 128.578 37.575 129.17 37.2293C129.763 36.8836 130.42 36.7156 131.131 36.7156C131.842 36.7156 132.45 36.8737 133.023 37.1898C133.596 37.5059 134.06 37.9356 134.411 38.4789C134.762 39.0222 134.934 39.6495 134.934 40.3607C134.934 40.8892 134.85 41.2695 134.678 41.5016C134.505 41.7338 134.287 41.877 134.026 41.9264C133.759 41.9807 133.482 42.0054 133.196 42.0054H128.834V42.5981C128.834 43.339 129.101 43.9218 129.625 44.3515C130.153 44.7812 130.835 44.9936 131.665 44.9936C132.154 44.9936 132.544 44.9294 132.835 44.796C133.127 44.6627 133.364 44.5342 133.551 44.4108C133.734 44.2873 133.902 44.2231 134.045 44.2231C134.189 44.2231 134.312 44.2675 134.411 44.3515C134.51 44.4355 134.584 44.5392 134.638 44.6577C134.692 44.7763 134.717 44.8849 134.717 44.9738C134.717 45.1467 134.594 45.3393 134.342 45.5566C134.09 45.774 133.729 45.9666 133.26 46.1296C132.791 46.2926 132.238 46.3765 131.605 46.3765V46.3815ZM128.83 40.8892H132.494C132.85 40.8892 133.087 40.8447 133.196 40.7608C133.304 40.6768 133.364 40.5089 133.364 40.257C133.364 39.8618 133.265 39.4964 133.077 39.1556C132.885 38.8197 132.618 38.5431 132.277 38.3307C131.931 38.1183 131.541 38.0146 131.107 38.0146C130.697 38.0146 130.321 38.1085 129.975 38.3011C129.63 38.4937 129.353 38.7555 129.141 39.0815C128.928 39.4124 128.825 39.7729 128.825 40.173V40.8892H128.83ZM130.336 34.6511C130.178 34.6511 130.04 34.577 129.921 34.4338C129.803 34.2905 129.743 34.1374 129.743 33.9794C129.743 33.767 129.827 33.6238 130 33.5447L132.322 32.3149C132.401 32.2902 132.465 32.2754 132.519 32.2754C132.692 32.2754 132.825 32.3445 132.924 32.4828C133.023 32.6211 133.072 32.7792 133.072 32.9471C133.072 33.1595 132.979 33.3175 132.796 33.4213L130.558 34.5721C130.519 34.5869 130.484 34.6017 130.45 34.6215C130.415 34.6412 130.38 34.6511 130.341 34.6511H130.336Z" fill="#1C2D41"/>
<path d="M140.008 46.2223C138.936 46.2223 138.121 45.9852 137.558 45.5111C136.995 45.0369 136.713 44.2763 136.713 43.2342V33.03C136.713 32.8571 136.797 32.7188 136.97 32.6151C137.143 32.5114 137.326 32.457 137.523 32.457C137.736 32.457 137.928 32.5114 138.096 32.6151C138.269 32.7188 138.353 32.862 138.353 33.03V36.8331H140.852C141.01 36.8331 141.134 36.8973 141.218 37.0306C141.302 37.164 141.346 37.3171 141.346 37.485C141.346 37.653 141.302 37.8061 141.218 37.9296C141.134 38.053 141.01 38.1172 140.852 38.1172H138.353V43.2292C138.353 43.7972 138.476 44.1973 138.718 44.4294C138.96 44.6616 139.39 44.7752 139.998 44.7752H140.61C140.847 44.7752 141.025 44.8492 141.144 44.9925C141.262 45.1407 141.321 45.3036 141.321 45.4864C141.321 45.6691 141.262 45.842 141.144 45.9902C141.025 46.1433 140.847 46.2174 140.61 46.2174H139.998L140.008 46.2223Z" fill="#1C2D41"/>
<path d="M146.764 46.3815C145.905 46.3815 145.144 46.2185 144.487 45.8974C143.825 45.5764 143.307 45.1269 142.921 44.5491C142.536 43.9712 142.348 43.3044 142.348 42.5388V40.4595C142.348 39.7878 142.531 39.1654 142.892 38.5974C143.257 38.0294 143.736 37.575 144.329 37.2293C144.922 36.8836 145.579 36.7156 146.29 36.7156C147.001 36.7156 147.609 36.8737 148.182 37.1898C148.755 37.5059 149.219 37.9356 149.57 38.4789C149.92 39.0222 150.093 39.6495 150.093 40.3607C150.093 40.8892 150.009 41.2695 149.836 41.5016C149.663 41.7338 149.446 41.877 149.184 41.9264C148.918 41.9807 148.641 42.0054 148.355 42.0054H143.993V42.5981C143.993 43.339 144.26 43.9218 144.783 44.3515C145.312 44.7812 145.994 44.9936 146.823 44.9936C147.312 44.9936 147.703 44.9294 147.994 44.796C148.285 44.6627 148.522 44.5342 148.71 44.4108C148.893 44.2873 149.061 44.2231 149.204 44.2231C149.347 44.2231 149.471 44.2675 149.57 44.3515C149.668 44.4355 149.742 44.5392 149.797 44.6577C149.851 44.7763 149.876 44.8849 149.876 44.9738C149.876 45.1467 149.752 45.3393 149.5 45.5566C149.249 45.774 148.888 45.9666 148.419 46.1296C147.95 46.2926 147.396 46.3765 146.764 46.3765V46.3815ZM143.993 40.8892H147.658C148.014 40.8892 148.251 40.8447 148.359 40.7608C148.468 40.6768 148.527 40.5089 148.527 40.257C148.527 39.8618 148.429 39.4964 148.241 39.1556C148.048 38.8197 147.782 38.5431 147.441 38.3307C147.095 38.1183 146.705 38.0146 146.27 38.0146C145.86 38.0146 145.485 38.1085 145.139 38.3011C144.793 38.4937 144.517 38.7555 144.304 39.0815C144.092 39.4124 143.988 39.7729 143.988 40.173V40.8892H143.993ZM145.495 34.6511C145.337 34.6511 145.198 34.577 145.08 34.4338C144.961 34.2905 144.902 34.1374 144.902 33.9794C144.902 33.767 144.986 33.6238 145.159 33.5447L147.48 32.3149C147.559 32.2902 147.624 32.2754 147.678 32.2754C147.851 32.2754 147.984 32.3445 148.083 32.4828C148.182 32.6211 148.231 32.7792 148.231 32.9471C148.231 33.1595 148.137 33.3175 147.954 33.4213L145.717 34.5721C145.677 34.5869 145.643 34.6017 145.608 34.6215C145.574 34.6412 145.539 34.6511 145.5 34.6511H145.495Z" fill="#1C2D41"/>
<path d="M154.614 46.3816C153.982 46.3816 153.418 46.2977 152.93 46.1347C152.441 45.9717 152.055 45.7741 151.779 45.5519C151.502 45.3296 151.364 45.1024 151.364 44.8802C151.364 44.7764 151.388 44.6678 151.443 44.5542C151.497 44.4406 151.566 44.3418 151.65 44.2578C151.734 44.1739 151.833 44.1294 151.937 44.1294C152.095 44.1294 152.268 44.2035 152.45 44.3566C152.633 44.5097 152.885 44.6628 153.201 44.8209C153.517 44.9789 153.977 45.058 154.569 45.058C155.271 45.058 155.76 44.9295 156.036 44.6727C156.313 44.4159 156.451 44.1294 156.451 43.8084C156.451 43.3984 156.333 43.0873 156.096 42.865C155.859 42.6477 155.552 42.4748 155.182 42.3513C154.811 42.2279 154.421 42.1044 154.011 41.9858C153.601 41.8673 153.211 41.7191 152.841 41.5413C152.47 41.3635 152.169 41.1116 151.937 40.7906C151.705 40.4646 151.591 40.0349 151.591 39.4916C151.591 39.057 151.695 38.6273 151.907 38.2025C152.119 37.7777 152.46 37.4271 152.939 37.1406C153.414 36.8591 154.051 36.7158 154.841 36.7158C155.305 36.7158 155.75 36.7652 156.18 36.864C156.609 36.9628 156.96 37.0961 157.232 37.2591C157.503 37.4271 157.637 37.5999 157.637 37.7827C157.637 37.8617 157.612 37.9654 157.558 38.0988C157.503 38.2321 157.434 38.3507 157.34 38.4544C157.246 38.5581 157.128 38.6124 156.985 38.6124C156.881 38.6124 156.728 38.563 156.54 38.4643C156.347 38.3655 156.115 38.2716 155.844 38.1778C155.572 38.084 155.246 38.0395 154.861 38.0395C154.426 38.0395 154.075 38.1136 153.809 38.2667C153.542 38.4198 153.354 38.5976 153.236 38.8001C153.117 39.0076 153.058 39.215 153.058 39.4224C153.058 39.7534 153.172 40.0102 153.404 40.1979C153.636 40.3806 153.937 40.5337 154.312 40.6424C154.688 40.756 155.083 40.8696 155.493 40.9783C155.903 41.0919 156.293 41.2499 156.664 41.4524C157.034 41.6599 157.335 41.9365 157.577 42.297C157.814 42.6526 157.933 43.1317 157.933 43.7244C157.933 44.5295 157.642 45.1765 157.064 45.6556C156.481 46.1396 155.661 46.3767 154.604 46.3767L154.614 46.3816Z" fill="#1C2D41"/>
<path d="M60.9204 1V54.3868" stroke="#1C2D41" stroke-width="1.91" stroke-miterlimit="10" stroke-linecap="round"/>
<path d="M50.0204 3.43076C45.1454 6.2658 40.9915 10.6468 39.8406 16.2329C39.3516 18.9346 39.1936 22.0166 38.9417 24.822L38.8528 25.9284C38.6996 28.7338 37.9736 31.5639 36.472 33.9692C30.1844 43.8079 14.7541 46.8257 3.99146 48.2087C13.7564 45.0872 28.1049 41.3532 33.7307 32.3146C35.1631 29.9784 35.7114 27.2669 35.8892 24.5553C36.2349 21.5622 36.3634 18.5098 37.0895 15.5661C38.7737 9.43177 43.9254 4.82358 49.8624 3.02081C50.1044 2.97142 50.2773 3.28753 50.0204 3.4357V3.43076Z" fill="#1C2D41"/>
<path d="M49.9261 3.28726C45.8956 4.29978 41.6923 4.77393 37.5384 4.34423C35.2565 4.05282 33.0535 3.35641 30.8704 4.22075C27.7191 5.36662 26.2127 9.02156 26.6374 12.1974C28.5242 29.8053 17.0997 43.9262 0 47.2996C15.8995 41.1159 24.9186 30.0128 23.6492 12.4937C23.0417 7.5744 26.2571 2.08211 31.4433 1.48448C34.0611 1.03996 36.4913 2.19078 39.0103 2.53651C42.5616 3.07488 46.1969 3.0403 49.8372 2.77359C49.9804 2.76371 50.1088 2.87237 50.1187 3.01561C50.1286 3.14402 50.0446 3.25762 49.9211 3.2922L49.9261 3.28726Z" fill="#1C2D41"/>
<path d="M28.7759 22.3975C30.2922 25.5338 31.9419 28.8282 33.9819 31.6583C38.7087 38.3261 45.7719 46.1101 38.521 53.9139C36.1057 56.3093 32.4951 57.0947 29.2698 56.9909C27.1163 56.9267 25.0122 56.5514 22.9722 55.9883C22.913 55.9735 22.8784 55.9142 22.8982 55.8549C22.913 55.8006 22.9624 55.771 23.0167 55.7759C25.1011 56.0278 27.1953 56.1711 29.2451 56.0179C33.1521 55.8204 37.3307 54.146 38.7779 50.3232C42.7046 41.6797 24.5182 30.7297 28.7759 22.4024V22.3975Z" fill="#CCE1FA"/>
<path d="M21.126 15.8272C17.2289 14.0738 17.2635 7.80116 12.3835 9.40637C11.1833 9.84101 10.0127 10.6461 9.16805 11.6438C7.301 13.7923 5.83898 16.3409 4.70789 18.9685C3.55211 21.6307 2.73714 24.4558 2.18888 27.3304C2.17406 27.4045 2.10491 27.4539 2.03082 27.439C1.96167 27.4242 1.91228 27.36 1.92216 27.2859C2.27284 24.362 2.92976 21.4627 3.8781 18.6474C4.97956 15.4518 6.46134 12.3303 8.68401 9.72741C9.55826 8.868 10.5115 8.12714 11.6624 7.60853C16.2361 5.2427 23.2894 10.9227 21.1309 15.8272H21.126Z" fill="#CCE1FA"/>
</svg>
