<svg width="302" height="89" viewBox="0 0 302 89" fill="none" xmlns="http://www.w3.org/2000/svg">
<path d="M120.235 38.7294C118.842 38.7294 117.624 38.4833 116.582 37.991C115.531 37.4987 114.719 36.8159 114.13 35.9267C113.542 35.0454 113.247 34.0211 113.247 32.8699C113.247 32.3617 113.366 32.0124 113.597 31.8298C113.836 31.6472 114.162 31.5598 114.592 31.5598C114.934 31.5598 115.237 31.6313 115.507 31.7663C115.778 31.9012 115.921 32.1474 115.937 32.4888C115.961 33.2113 116.128 33.8703 116.455 34.4578C116.773 35.0454 117.242 35.4979 117.863 35.8155C118.484 36.1331 119.24 36.2919 120.139 36.2919C121.485 36.2919 122.527 35.9267 123.267 35.1883C124.008 34.4499 124.374 33.3066 124.374 31.7504V17.578H120.203C119.901 17.578 119.67 17.451 119.511 17.1969C119.352 16.9428 119.272 16.657 119.272 16.3315C119.272 16.0536 119.344 15.7836 119.479 15.5296C119.614 15.2755 119.861 15.1484 120.203 15.1484H125.846C126.164 15.1484 126.451 15.2278 126.698 15.3866C126.944 15.5454 127.064 15.7836 127.064 16.1091V31.7504C127.064 33.4336 126.761 34.7913 126.148 35.8155C125.536 36.8397 124.716 37.5781 123.681 38.0386C122.647 38.4991 121.493 38.7294 120.235 38.7294Z" fill="white"/>
<path d="M136.697 38.7932C135.567 38.7932 134.517 38.5074 133.554 37.9278C132.591 37.3482 131.826 36.586 131.245 35.6411C130.672 34.6884 130.378 33.6721 130.378 32.5843V29.3211C130.378 28.2334 130.664 27.225 131.23 26.2961C131.795 25.3671 132.559 24.6129 133.522 24.0412C134.485 23.4616 135.543 23.1758 136.697 23.1758C137.851 23.1758 138.878 23.4537 139.841 24.0095C140.804 24.5652 141.576 25.3036 142.165 26.2326C142.754 27.1615 143.049 28.1857 143.049 29.3211V32.5843C143.049 33.6483 142.754 34.6566 142.165 35.6094C141.576 36.5621 140.804 37.3244 139.841 37.9119C138.878 38.4994 137.827 38.7932 136.697 38.7932ZM136.697 36.3954C137.382 36.3954 138.003 36.2128 138.56 35.8555C139.117 35.4903 139.563 35.0218 139.889 34.4343C140.223 33.8468 140.382 33.2354 140.382 32.5923V29.3291C140.382 28.6859 140.215 28.0825 139.889 27.5188C139.555 26.9551 139.109 26.4866 138.56 26.1294C138.003 25.7641 137.382 25.5895 136.697 25.5895C136.013 25.5895 135.4 25.7721 134.851 26.1294C134.31 26.4946 133.864 26.9551 133.538 27.5188C133.203 28.0825 133.044 28.6859 133.044 29.3291V32.5923C133.044 33.2354 133.203 33.8468 133.522 34.4343C133.84 35.0218 134.286 35.4982 134.851 35.8555C135.416 36.2207 136.029 36.3954 136.697 36.3954Z" fill="white"/>
<path d="M152.473 38.7901C151.295 38.7901 150.228 38.5043 149.265 37.9247C148.302 37.3451 147.538 36.5908 146.957 35.654C146.384 34.7171 146.09 33.7167 146.09 32.6448V24.324C146.09 24.0858 146.225 23.8714 146.488 23.665C146.75 23.4586 147.069 23.3633 147.435 23.3633C147.801 23.3633 148.111 23.4665 148.366 23.665C148.621 23.8714 148.748 24.0858 148.748 24.324V32.6448C148.748 33.2879 148.915 33.8913 149.242 34.4551C149.576 35.0188 150.014 35.4872 150.571 35.8445C151.128 36.2097 151.749 36.3844 152.433 36.3844C153.118 36.3844 153.738 36.2018 154.295 35.8445C154.853 35.4793 155.29 35.0188 155.609 34.4551C155.927 33.8913 156.086 33.2879 156.086 32.6448V24.2922C156.086 24.0382 156.222 23.8158 156.5 23.6332C156.779 23.4506 157.089 23.3633 157.431 23.3633C157.837 23.3633 158.156 23.4506 158.394 23.6332C158.633 23.8158 158.745 24.0302 158.745 24.2922V32.6448C158.745 33.7325 158.458 34.7409 157.893 35.6698C157.328 36.5988 156.564 37.3531 155.601 37.9247C154.638 38.5043 153.587 38.7901 152.457 38.7901H152.473Z" fill="white"/>
<path d="M163.688 38.539C163.322 38.539 163.019 38.4358 162.773 38.2373C162.526 38.0308 162.398 37.8165 162.398 37.5783V24.3031C162.398 24.0252 162.526 23.8029 162.773 23.6282C163.019 23.4615 163.322 23.3741 163.688 23.3741C164.054 23.3741 164.348 23.4615 164.587 23.6282C164.818 23.8029 164.937 24.0252 164.937 24.3031V25.8037C165.176 25.3591 165.494 24.9383 165.9 24.5413C166.306 24.1443 166.784 23.8188 167.325 23.5647C167.866 23.3106 168.471 23.1836 169.14 23.1836H170.23C170.509 23.1836 170.747 23.3027 170.954 23.5329C171.161 23.7632 171.257 24.057 171.257 24.3984C171.257 24.716 171.153 24.9938 170.954 25.232C170.747 25.4702 170.509 25.5814 170.23 25.5814H169.14C168.455 25.5814 167.803 25.7719 167.182 26.161C166.561 26.5421 166.052 27.082 165.654 27.7807C165.256 28.4714 165.065 29.313 165.065 30.2896V37.5862C165.065 37.8244 164.929 38.0388 164.667 38.2452C164.404 38.4517 164.07 38.5469 163.688 38.5469V38.539Z" fill="white"/>
<path d="M174.694 38.5391C174.312 38.5391 173.994 38.4359 173.747 38.2374C173.5 38.031 173.373 37.8166 173.373 37.5784V24.3032C173.373 24.0253 173.5 23.803 173.747 23.6284C173.994 23.4616 174.304 23.3743 174.694 23.3743C175.036 23.3743 175.323 23.4616 175.562 23.6284C175.793 23.803 175.912 24.0253 175.912 24.3032V25.6133C176.254 24.994 176.787 24.4382 177.52 23.9301C178.244 23.4299 179.143 23.1758 180.218 23.1758C181.292 23.1758 182.184 23.4616 183.043 24.0253C183.895 24.5891 184.579 25.3354 185.097 26.2485C185.606 27.1695 185.869 28.1937 185.869 29.3211V37.5784C185.869 37.896 185.733 38.1421 185.455 38.3009C185.176 38.4597 184.866 38.5391 184.523 38.5391C184.205 38.5391 183.903 38.4597 183.624 38.3009C183.346 38.1421 183.21 37.9039 183.21 37.5784V29.3211C183.21 28.7018 183.043 28.1064 182.717 27.5268C182.383 26.9472 181.945 26.4787 181.388 26.1214C180.831 25.7562 180.226 25.5815 179.557 25.5815C178.976 25.5815 178.427 25.7403 177.886 26.042C177.352 26.3517 176.915 26.7804 176.572 27.3203C176.23 27.8602 176.063 28.5272 176.063 29.3211V37.5784C176.063 37.8166 175.928 38.031 175.665 38.2374C175.403 38.4439 175.084 38.5391 174.718 38.5391H174.694Z" fill="white"/>
<path d="M192.817 38.7932C191.615 38.7932 190.596 38.4438 189.753 37.7531C188.909 37.0623 188.487 35.9905 188.487 34.5375C188.487 33.3624 188.806 32.4494 189.45 31.7983C190.095 31.1473 190.97 30.7026 192.093 30.4565C193.215 30.2104 194.512 30.0913 195.985 30.0913H197.529V29.4164C197.529 28.7733 197.409 28.154 197.178 27.5426C196.94 26.9313 196.574 26.4311 196.072 26.042C195.571 25.645 194.878 25.4545 194.003 25.4545C193.255 25.4545 192.658 25.5259 192.22 25.6768C191.782 25.8277 191.432 25.9785 191.177 26.1373C190.923 26.2961 190.7 26.3755 190.501 26.3755C190.183 26.3755 189.936 26.2167 189.761 25.915C189.586 25.6053 189.506 25.3116 189.506 25.0337C189.506 24.6923 189.737 24.3826 190.214 24.1047C190.684 23.8268 191.273 23.6045 191.981 23.4299C192.69 23.2552 193.382 23.1758 194.067 23.1758C195.563 23.1758 196.765 23.4775 197.656 24.073C198.555 24.6685 199.2 25.4386 199.598 26.3755C199.996 27.3124 200.195 28.3128 200.195 29.3846V37.5784C200.195 37.8325 200.068 38.0548 199.829 38.2533C199.582 38.4439 199.272 38.5391 198.882 38.5391C198.539 38.5391 198.253 38.4439 198.014 38.2533C197.775 38.0627 197.664 37.8404 197.664 37.5784V36.3001C197.107 36.9432 196.438 37.5149 195.642 38.031C194.846 38.5391 193.907 38.8011 192.817 38.8011V38.7932ZM193.653 36.6495C194.273 36.6495 194.878 36.4827 195.467 36.1413C196.056 35.7999 196.55 35.3712 196.94 34.863C197.33 34.3549 197.537 33.8626 197.537 33.3942V31.7269H196.414C195.515 31.7269 194.663 31.7824 193.868 31.8856C193.072 31.9889 192.419 32.2191 191.926 32.5764C191.432 32.9258 191.185 33.4895 191.185 34.2517C191.185 35.0854 191.416 35.6888 191.894 36.0778C192.371 36.4669 192.952 36.6574 193.661 36.6574L193.653 36.6495Z" fill="white"/>
<path d="M205.416 38.5381C205.034 38.5381 204.715 38.4349 204.469 38.2364C204.222 38.0379 204.103 37.8156 204.103 37.5774V15.1477C204.103 14.8698 204.23 14.6475 204.469 14.4728C204.707 14.2982 205.034 14.2188 205.416 14.2188C205.782 14.2188 206.092 14.3061 206.363 14.4728C206.633 14.6396 206.761 14.8698 206.761 15.1477V37.5774C206.761 37.8156 206.625 38.0299 206.363 38.2364C206.092 38.4428 205.782 38.5381 205.416 38.5381Z" fill="white"/>
<path d="M223.215 38.79C221.846 38.79 220.652 38.5836 219.625 38.1628C218.599 37.742 217.811 37.2576 217.254 36.6939C216.697 36.1302 216.418 35.6221 216.418 35.1774C216.418 34.9631 216.474 34.7487 216.593 34.5184C216.712 34.2961 216.864 34.1056 217.047 33.9388C217.23 33.7801 217.413 33.7007 217.604 33.7007C217.859 33.7007 218.113 33.8277 218.36 34.0818C218.607 34.3358 218.917 34.6455 219.291 34.9948C219.665 35.3442 220.151 35.6538 220.748 35.9079C221.345 36.162 222.125 36.289 223.088 36.289C223.987 36.289 224.767 36.1461 225.427 35.8603C226.088 35.5744 226.605 35.1377 226.979 34.5502C227.354 33.9627 227.537 33.2243 227.537 32.3271C227.537 31.4299 227.346 30.6597 226.964 30.0881C226.582 29.5085 226.072 29.0321 225.435 28.651C224.799 28.2699 224.122 27.9285 223.382 27.6268C222.642 27.3251 221.894 27.0234 221.138 26.7137C220.382 26.4041 219.689 26.023 219.068 25.5624C218.448 25.1019 217.946 24.5144 217.564 23.7839C217.182 23.0614 216.983 22.1404 216.983 21.0368C216.983 19.8617 217.198 18.8931 217.628 18.1229C218.058 17.3528 218.623 16.7494 219.331 16.2968C220.039 15.8522 220.803 15.5346 221.623 15.352C222.443 15.1694 223.255 15.082 224.043 15.082C224.624 15.082 225.228 15.1217 225.873 15.2091C226.51 15.2964 227.123 15.4234 227.704 15.5902C228.277 15.7569 228.746 15.9792 229.112 16.2492C229.479 16.5191 229.654 16.8288 229.654 17.194C229.654 17.3687 229.614 17.5592 229.526 17.7895C229.439 18.0118 229.311 18.2182 229.144 18.4008C228.969 18.5834 228.762 18.6708 228.5 18.6708C228.261 18.6708 227.974 18.5676 227.632 18.3691C227.29 18.1626 226.836 17.9641 226.271 17.7577C225.706 17.5513 224.966 17.456 224.043 17.456C223.271 17.456 222.554 17.5592 221.878 17.7736C221.201 17.988 220.668 18.3373 220.278 18.8296C219.88 19.3218 219.681 19.9729 219.681 20.7827C219.681 21.5529 219.872 22.1801 220.254 22.6724C220.636 23.1647 221.138 23.5696 221.758 23.8872C222.379 24.2048 223.064 24.4985 223.812 24.7685C224.56 25.0384 225.308 25.3481 226.056 25.6974C226.804 26.0468 227.497 26.4835 228.126 26.9916C228.754 27.4997 229.264 28.1667 229.646 28.9924C230.028 29.8181 230.227 30.8424 230.227 32.0809C230.227 33.6133 229.924 34.8837 229.311 35.8682C228.699 36.8527 227.871 37.599 226.828 38.0754C225.786 38.5518 224.576 38.7979 223.207 38.7979L223.215 38.79Z" fill="white"/>
<path d="M234.664 45.8675C234.298 45.8675 233.996 45.7643 233.749 45.5658C233.502 45.3593 233.383 45.145 233.383 44.9068V24.3032C233.383 24.0253 233.51 23.803 233.749 23.6284C233.996 23.4616 234.298 23.3743 234.664 23.3743C235.03 23.3743 235.325 23.4616 235.564 23.6284C235.802 23.803 235.914 24.0253 235.914 24.3032V25.6133C236.28 24.994 236.821 24.4382 237.545 23.9301C238.27 23.4299 239.161 23.1758 240.204 23.1758C241.246 23.1758 242.249 23.4616 243.125 24.0253C244 24.5891 244.692 25.3354 245.21 26.2485C245.727 27.1695 245.982 28.1937 245.982 29.3211V32.5843C245.982 33.6483 245.719 34.6566 245.194 35.6094C244.669 36.5621 243.984 37.3244 243.125 37.9119C242.265 38.4994 241.326 38.7932 240.299 38.7932C239.336 38.7932 238.469 38.5391 237.704 38.0389C236.932 37.5387 236.375 36.9591 236.033 36.2922V44.8988C236.033 45.137 235.898 45.3514 235.635 45.5578C235.365 45.7563 235.046 45.8595 234.656 45.8595L234.664 45.8675ZM239.67 36.3954C240.315 36.3954 240.912 36.2128 241.469 35.8555C242.026 35.4903 242.472 35.0139 242.814 34.4184C243.156 33.8229 243.331 33.2116 243.331 32.5923V29.3291C243.331 28.7098 243.156 28.1143 242.814 27.5347C242.472 26.9551 242.026 26.4866 241.469 26.1294C240.912 25.7641 240.291 25.5895 239.607 25.5895C239.034 25.5895 238.469 25.7483 237.919 26.05C237.378 26.3596 236.925 26.7884 236.574 27.3283C236.224 27.8682 236.041 28.5351 236.041 29.3291V33.4577C236.041 33.7356 236.192 34.1088 236.503 34.5772C236.813 35.0457 237.243 35.4665 237.784 35.8396C238.325 36.2128 238.954 36.4033 239.662 36.4033L239.67 36.3954Z" fill="white"/>
<path d="M255.771 38.7908C254.386 38.7908 253.153 38.5287 252.086 38.0047C251.02 37.4807 250.176 36.7582 249.555 35.8292C248.934 34.9003 248.624 33.8205 248.624 32.5819V29.2234C248.624 28.1357 248.918 27.1352 249.507 26.2142C250.096 25.3012 250.868 24.5628 251.831 24.007C252.794 23.4512 253.853 23.1733 255.007 23.1733C256.161 23.1733 257.14 23.4274 258.071 23.9435C259.002 24.4516 259.751 25.1503 260.316 26.0237C260.881 26.8971 261.167 27.9133 261.167 29.0646C261.167 29.9142 261.032 30.5334 260.753 30.9066C260.475 31.2798 260.125 31.51 259.695 31.5974C259.265 31.6847 258.819 31.7244 258.35 31.7244H251.298V32.6851C251.298 33.884 251.728 34.8209 252.58 35.5196C253.439 36.2103 254.537 36.5597 255.883 36.5597C256.67 36.5597 257.307 36.4565 257.777 36.2421C258.246 36.0277 258.636 35.8213 258.931 35.6149C259.225 35.4084 259.496 35.3132 259.735 35.3132C259.973 35.3132 260.164 35.3846 260.332 35.5196C260.491 35.6625 260.618 35.8213 260.698 36.0198C260.785 36.2103 260.825 36.385 260.825 36.5279C260.825 36.8058 260.618 37.1234 260.212 37.4728C259.806 37.8221 259.225 38.1318 258.461 38.4017C257.697 38.6717 256.806 38.7987 255.779 38.7987L255.771 38.7908ZM251.282 29.93H257.212C257.793 29.93 258.167 29.8586 258.35 29.7236C258.533 29.5886 258.62 29.3107 258.62 28.9058C258.62 28.2627 258.461 27.6752 258.159 27.1273C257.856 26.5795 257.419 26.1428 256.861 25.8014C256.304 25.46 255.676 25.2932 254.967 25.2932C254.307 25.2932 253.694 25.452 253.137 25.7537C252.58 26.0554 252.134 26.4842 251.792 27.0162C251.449 27.5481 251.282 28.1357 251.282 28.7788V29.93ZM253.718 19.8545C253.463 19.8545 253.24 19.7354 253.041 19.5052C252.842 19.2749 252.755 19.0288 252.755 18.7668C252.755 18.4254 252.89 18.1872 253.169 18.0602L256.925 16.0752C257.053 16.0355 257.156 16.0117 257.244 16.0117C257.522 16.0117 257.737 16.1229 257.904 16.3452C258.071 16.5675 258.143 16.8216 258.143 17.0995C258.143 17.4409 257.992 17.6949 257.689 17.8696L254.068 19.7275C254.004 19.7513 253.941 19.7751 253.893 19.8069C253.837 19.8387 253.781 19.8545 253.718 19.8545Z" fill="white"/>
<path d="M270.009 38.7932C268.537 38.7932 267.319 38.5153 266.372 37.9595C265.417 37.4038 264.717 36.6654 264.255 35.7364C263.793 34.8075 263.562 33.7594 263.562 32.5843V29.3846C263.562 28.2334 263.793 27.1853 264.255 26.2485C264.717 25.3116 265.417 24.5652 266.372 24.0095C267.327 23.4537 268.529 23.1758 269.977 23.1758C270.917 23.1758 271.744 23.2949 272.445 23.5251C273.153 23.7633 273.694 24.0491 274.076 24.3906C274.458 24.732 274.649 25.0654 274.649 25.383C274.649 25.5498 274.602 25.7403 274.506 25.9388C274.411 26.1452 274.283 26.3199 274.124 26.4708C273.965 26.6216 273.774 26.6931 273.559 26.6931C273.344 26.6931 273.113 26.5978 272.866 26.4072C272.62 26.2167 272.285 26.0261 271.872 25.8435C271.458 25.6609 270.869 25.5736 270.121 25.5736C268.815 25.5736 267.836 25.915 267.184 26.5978C266.531 27.2806 266.205 28.2096 266.205 29.3846V32.5843C266.205 33.7594 266.531 34.6884 267.184 35.3712C267.836 36.054 268.823 36.3954 270.152 36.3954C270.924 36.3954 271.521 36.2922 271.951 36.0937C272.381 35.8873 272.715 35.6967 272.962 35.5141C273.209 35.3315 273.447 35.2442 273.678 35.2442C273.909 35.2442 274.116 35.3156 274.291 35.4506C274.458 35.5935 274.594 35.7523 274.689 35.9508C274.785 36.1413 274.832 36.3319 274.832 36.5304C274.832 36.848 274.625 37.1894 274.219 37.5387C273.814 37.8881 273.249 38.1898 272.516 38.4359C271.792 38.682 270.948 38.8011 269.985 38.8011L270.009 38.7932Z" fill="white"/>
<path d="M278.824 19.2127C278.378 19.2127 277.988 19.0618 277.654 18.7522C277.319 18.4425 277.16 18.0852 277.16 17.6803C277.16 17.2754 277.327 16.926 277.654 16.6243C277.988 16.3226 278.378 16.1797 278.824 16.1797C279.269 16.1797 279.683 16.3305 279.994 16.6243C280.304 16.926 280.455 17.2754 280.455 17.6803C280.455 18.0852 280.304 18.4425 279.994 18.7522C279.683 19.0618 279.293 19.2127 278.824 19.2127ZM278.824 38.5379C278.442 38.5379 278.123 38.4347 277.876 38.2362C277.63 38.0298 277.502 37.8154 277.502 37.5772V24.302C277.502 24.0241 277.63 23.8018 277.876 23.6271C278.123 23.4604 278.434 23.3731 278.824 23.3731C279.19 23.3731 279.5 23.4604 279.771 23.6271C280.041 23.8018 280.169 24.0241 280.169 24.302V37.5772C280.169 37.8154 280.033 38.0298 279.771 38.2362C279.508 38.4426 279.19 38.5379 278.824 38.5379Z" fill="white"/>
<path d="M287.265 38.7932C286.063 38.7932 285.045 38.4438 284.201 37.7531C283.357 37.0623 282.936 35.9905 282.936 34.5375C282.936 33.3624 283.254 32.4494 283.899 31.7983C284.543 31.1473 285.419 30.7026 286.541 30.4565C287.663 30.2104 288.96 30.0913 290.433 30.0913H291.977V29.4164C291.977 28.7733 291.857 28.154 291.627 27.5426C291.388 26.9313 291.022 26.4311 290.52 26.042C290.019 25.645 289.327 25.4545 288.451 25.4545C287.703 25.4545 287.106 25.5259 286.668 25.6768C286.231 25.8277 285.88 25.9785 285.626 26.1373C285.371 26.2961 285.148 26.3755 284.949 26.3755C284.631 26.3755 284.384 26.2167 284.209 25.915C284.034 25.6053 283.954 25.3116 283.954 25.0337C283.954 24.6923 284.185 24.3826 284.663 24.1047C285.132 23.8268 285.721 23.6045 286.43 23.4299C287.138 23.2552 287.83 23.1758 288.515 23.1758C290.011 23.1758 291.213 23.4775 292.104 24.073C293.004 24.6685 293.648 25.4386 294.046 26.3755C294.444 27.3124 294.643 28.3128 294.643 29.3846V37.5784C294.643 37.8325 294.516 38.0548 294.277 38.2533C294.03 38.4439 293.72 38.5391 293.33 38.5391C292.988 38.5391 292.701 38.4439 292.462 38.2533C292.224 38.0627 292.112 37.8404 292.112 37.5784V36.3001C291.555 36.9432 290.886 37.5149 290.091 38.031C289.295 38.5391 288.356 38.8011 287.265 38.8011V38.7932ZM288.093 36.6495C288.714 36.6495 289.319 36.4827 289.908 36.1413C290.497 35.7999 290.99 35.3712 291.38 34.863C291.77 34.3549 291.977 33.8626 291.977 33.3942V31.7269H290.855C289.955 31.7269 289.104 31.7824 288.308 31.8856C287.512 31.9889 286.859 32.2191 286.366 32.5764C285.872 32.9258 285.626 33.4895 285.626 34.2517C285.626 35.0854 285.856 35.6888 286.334 36.0778C286.812 36.4669 287.393 36.6574 288.101 36.6574L288.093 36.6495Z" fill="white"/>
<path d="M299.863 38.5381C299.481 38.5381 299.163 38.4349 298.916 38.2364C298.669 38.0379 298.55 37.8156 298.55 37.5774V15.1477C298.55 14.8698 298.677 14.6475 298.916 14.4728C299.155 14.2982 299.481 14.2188 299.863 14.2188C300.229 14.2188 300.54 14.3061 300.81 14.4728C301.081 14.6396 301.208 14.8698 301.208 15.1477V37.5774C301.208 37.8156 301.073 38.0299 300.81 38.2364C300.54 38.4428 300.229 38.5381 299.863 38.5381Z" fill="white"/>
<path d="M118.015 74.4887C117.243 74.4887 116.535 74.2664 115.866 73.8139C115.206 73.3613 114.673 72.7738 114.275 72.0512C113.877 71.3287 113.678 70.5506 113.678 69.7408V67.2477C113.678 66.3823 113.877 65.6042 114.275 64.8976C114.673 64.1989 115.206 63.6272 115.866 63.1985C116.527 62.7697 117.259 62.5474 118.063 62.5474C118.867 62.5474 119.512 62.738 120.061 63.1191C120.61 63.5002 121.016 63.9289 121.271 64.4053V56.4021C121.271 56.1877 121.374 56.021 121.573 55.886C121.772 55.751 122.027 55.6875 122.321 55.6875C122.616 55.6875 122.854 55.751 123.029 55.886C123.213 56.013 123.3 56.1877 123.3 56.4021V73.5519C123.3 73.7345 123.213 73.9012 123.029 74.052C122.846 74.2108 122.616 74.2823 122.321 74.2823C122.058 74.2823 121.836 74.2029 121.645 74.052C121.454 73.8933 121.366 73.7265 121.366 73.5519V72.5753C121.119 73.0834 120.69 73.528 120.069 73.9091C119.448 74.2902 118.763 74.4808 118.007 74.4808L118.015 74.4887ZM118.509 72.6547C119.034 72.6547 119.504 72.5117 119.918 72.2259C120.331 71.9401 120.666 71.6146 120.912 71.2573C121.159 70.9 121.279 70.6142 121.279 70.3998V67.2398C121.279 66.6364 121.143 66.1282 120.873 65.7074C120.602 65.2945 120.252 64.9611 119.83 64.7308C119.4 64.4926 118.97 64.3735 118.533 64.3735C118.007 64.3735 117.538 64.5085 117.108 64.7864C116.678 65.0643 116.344 65.4216 116.089 65.8662C115.835 66.3029 115.707 66.7634 115.707 67.2398V69.7328C115.707 70.2092 115.835 70.6697 116.089 71.1302C116.344 71.5907 116.686 71.956 117.108 72.2339C117.53 72.5117 117.999 72.6467 118.509 72.6467V72.6547Z" fill="white"/>
<path d="M131.257 74.4882C130.198 74.4882 129.251 74.2897 128.439 73.8927C127.619 73.4957 126.975 72.94 126.505 72.2333C126.028 71.5267 125.797 70.693 125.797 69.7482V67.1757C125.797 66.3421 126.02 65.5798 126.473 64.8732C126.919 64.1745 127.516 63.6108 128.248 63.182C128.98 62.7612 129.792 62.5469 130.676 62.5469C131.559 62.5469 132.307 62.7454 133.016 63.1344C133.724 63.5235 134.297 64.0554 134.735 64.7223C135.165 65.3893 135.387 66.1674 135.387 67.0487C135.387 67.6997 135.284 68.1682 135.069 68.454C134.854 68.7398 134.584 68.9145 134.257 68.978C133.931 69.0416 133.589 69.0733 133.223 69.0733H127.826V69.8038C127.826 70.7168 128.153 71.4393 128.805 71.9713C129.458 72.5033 130.302 72.7653 131.328 72.7653C131.933 72.7653 132.419 72.6859 132.777 72.5192C133.135 72.3524 133.429 72.1936 133.66 72.0428C133.891 71.884 134.09 71.8125 134.273 71.8125C134.456 71.8125 134.607 71.8681 134.727 71.9713C134.846 72.0745 134.942 72.2016 135.005 72.3524C135.069 72.5033 135.101 72.6303 135.101 72.7415C135.101 72.9558 134.95 73.194 134.639 73.464C134.329 73.7339 133.883 73.9721 133.302 74.1706C132.721 74.377 132.037 74.4723 131.257 74.4723V74.4882ZM127.826 67.7156H132.363C132.801 67.7156 133.095 67.66 133.231 67.5568C133.366 67.4536 133.437 67.2392 133.437 66.9296C133.437 66.4373 133.318 65.9848 133.079 65.5719C132.841 65.159 132.514 64.8176 132.084 64.5556C131.655 64.2936 131.177 64.1666 130.636 64.1666C130.127 64.1666 129.665 64.2857 129.235 64.5239C128.805 64.762 128.463 65.0796 128.2 65.4925C127.938 65.8974 127.81 66.35 127.81 66.8343V67.7156H127.826Z" fill="white"/>
<path d="M140.965 74.488C140.177 74.488 139.484 74.3847 138.879 74.1862C138.275 73.9798 137.797 73.7416 137.455 73.4637C137.113 73.1858 136.938 72.908 136.938 72.6301C136.938 72.503 136.969 72.368 137.033 72.2251C137.097 72.0902 137.184 71.9631 137.288 71.8599C137.391 71.7567 137.511 71.7011 137.646 71.7011C137.845 71.7011 138.052 71.7964 138.283 71.9869C138.513 72.1775 138.824 72.3681 139.214 72.5586C139.604 72.7571 140.169 72.8524 140.909 72.8524C141.777 72.8524 142.381 72.6936 142.724 72.376C143.066 72.0584 143.241 71.7011 143.241 71.3121C143.241 70.8039 143.098 70.4228 142.795 70.1529C142.501 69.8829 142.127 69.6686 141.665 69.5177C141.203 69.3668 140.726 69.208 140.217 69.0651C139.707 68.9222 139.23 68.7317 138.768 68.5173C138.306 68.295 137.94 67.9853 137.654 67.5883C137.367 67.1914 137.224 66.6515 137.224 65.9845C137.224 65.4446 137.351 64.9127 137.614 64.3966C137.877 63.8726 138.298 63.4359 138.887 63.0865C139.476 62.7372 140.264 62.5625 141.243 62.5625C141.816 62.5625 142.365 62.626 142.899 62.7451C143.432 62.8642 143.862 63.0309 144.196 63.2374C144.53 63.4438 144.697 63.6582 144.697 63.8884C144.697 63.9837 144.666 64.1187 144.602 64.2775C144.538 64.4442 144.451 64.5871 144.331 64.7142C144.22 64.8412 144.069 64.9127 143.894 64.9127C143.766 64.9127 143.575 64.8491 143.344 64.7301C143.106 64.611 142.819 64.4918 142.485 64.3728C142.151 64.2616 141.745 64.1981 141.275 64.1981C140.734 64.1981 140.304 64.2934 139.978 64.476C139.651 64.6665 139.413 64.8809 139.269 65.135C139.126 65.389 139.047 65.6431 139.047 65.9051C139.047 66.31 139.19 66.6276 139.476 66.8579C139.763 67.0881 140.137 67.2708 140.607 67.4057C141.068 67.5407 141.562 67.6836 142.063 67.8186C142.572 67.9536 143.05 68.1521 143.512 68.4061C143.973 68.6602 144.347 69.0016 144.642 69.4462C144.936 69.8909 145.079 70.4705 145.079 71.2088C145.079 72.2013 144.721 72.9953 144.005 73.5908C143.289 74.1862 142.27 74.48 140.965 74.48V74.488Z" fill="white"/>
<path d="M160.15 74.5517C158.782 74.5517 157.588 74.3453 156.561 73.9245C155.534 73.5037 154.746 73.0194 154.189 72.4556C153.632 71.8919 153.354 71.3838 153.354 70.9392C153.354 70.7248 153.409 70.5104 153.529 70.2802C153.648 70.0578 153.799 69.8673 153.982 69.7006C154.165 69.5418 154.348 69.4624 154.539 69.4624C154.794 69.4624 155.049 69.5894 155.295 69.8435C155.542 70.0975 155.853 70.4072 156.227 70.7565C156.601 71.1059 157.086 71.4155 157.683 71.6696C158.28 71.9237 159.06 72.0507 160.023 72.0507C160.922 72.0507 161.702 71.9078 162.363 71.622C163.024 71.3361 163.541 70.8995 163.915 70.3119C164.289 69.7244 164.472 68.986 164.472 68.0888C164.472 67.1916 164.281 66.4215 163.899 65.8498C163.517 65.2702 163.008 64.7938 162.371 64.4127C161.734 64.0316 161.058 63.6902 160.318 63.3885C159.577 63.0868 158.829 62.7851 158.073 62.4754C157.317 62.1658 156.625 61.7847 156.004 61.3242C155.383 60.8637 154.882 60.2761 154.5 59.5457C154.118 58.8232 153.919 57.9022 153.919 56.7985C153.919 55.6235 154.134 54.6548 154.563 53.8847C154.993 53.1145 155.558 52.5111 156.266 52.0585C156.975 51.6139 157.739 51.2963 158.559 51.1137C159.378 50.9311 160.19 50.8438 160.978 50.8438C161.559 50.8438 162.164 50.8835 162.809 50.9708C163.445 51.0581 164.058 51.1852 164.639 51.3519C165.212 51.5186 165.682 51.7409 166.048 52.0109C166.414 52.2808 166.589 52.5905 166.589 52.9557C166.589 53.1304 166.549 53.3209 166.462 53.5512C166.374 53.7735 166.247 53.9799 166.08 54.1625C165.905 54.3452 165.698 54.4325 165.435 54.4325C165.196 54.4325 164.91 54.3293 164.568 54.1308C164.225 53.9244 163.772 53.7259 163.207 53.5194C162.642 53.313 161.901 53.2177 160.978 53.2177C160.206 53.2177 159.49 53.3209 158.813 53.5353C158.137 53.7497 157.604 54.099 157.214 54.5913C156.816 55.0836 156.617 55.7346 156.617 56.5445C156.617 57.3146 156.808 57.9419 157.19 58.4341C157.572 58.9264 158.073 59.3313 158.694 59.6489C159.315 59.9665 159.999 60.2602 160.747 60.5302C161.495 60.8001 162.244 61.1098 162.992 61.4591C163.74 61.8085 164.432 62.2452 165.061 62.7533C165.69 63.2615 166.199 63.9284 166.581 64.7541C166.963 65.5799 167.162 66.6041 167.162 67.8427C167.162 69.375 166.86 70.6454 166.247 71.6299C165.634 72.6224 164.806 73.3608 163.764 73.8372C162.721 74.3135 161.511 74.5597 160.142 74.5597L160.15 74.5517Z" fill="white"/>
<path d="M176.021 74.5549C174.89 74.5549 173.84 74.2691 172.877 73.6895C171.914 73.1099 171.15 72.3477 170.569 71.4028C169.996 70.4501 169.701 69.4338 169.701 68.3461V65.0828C169.701 63.9951 169.988 62.9867 170.553 62.0578C171.118 61.1289 171.882 60.3746 172.845 59.8029C173.808 59.2313 174.867 58.9375 176.021 58.9375C177.175 58.9375 178.201 59.2154 179.164 59.7712C180.127 60.327 180.899 61.0653 181.488 61.9943C182.077 62.9232 182.372 63.9475 182.372 65.0828V68.3461C182.372 69.41 182.077 70.4183 181.488 71.3711C180.899 72.3239 180.127 73.0861 179.164 73.6736C178.201 74.2611 177.151 74.5549 176.021 74.5549ZM176.021 72.1571C176.705 72.1571 177.326 71.9745 177.883 71.6172C178.44 71.252 178.886 70.7835 179.212 70.196C179.546 69.6085 179.706 68.9971 179.706 68.354V65.0908C179.706 64.4477 179.538 63.8442 179.212 63.2805C178.878 62.7168 178.432 62.2484 177.883 61.8911C177.326 61.5258 176.705 61.3512 176.021 61.3512C175.336 61.3512 174.723 61.5338 174.174 61.8911C173.633 62.2563 173.187 62.7168 172.861 63.2805C172.527 63.8442 172.367 64.4477 172.367 65.0908V68.354C172.367 68.9971 172.527 69.6085 172.845 70.196C173.163 70.7835 173.609 71.2599 174.174 71.6172C174.739 71.9824 175.352 72.1571 176.021 72.1571Z" fill="white"/>
<path d="M191.478 74.5549C190.006 74.5549 188.788 74.277 187.841 73.7212C186.886 73.1655 186.185 72.4271 185.724 71.4981C185.262 70.5692 185.031 69.5211 185.031 68.3461V65.1463C185.031 63.9951 185.262 62.9471 185.724 62.0102C186.185 61.0733 186.886 60.327 187.841 59.7712C188.796 59.2154 189.998 58.9375 191.446 58.9375C192.385 58.9375 193.213 59.0566 193.913 59.2868C194.622 59.525 195.163 59.8109 195.545 60.1523C195.927 60.4937 196.118 60.8272 196.118 61.1447C196.118 61.3115 196.07 61.502 195.975 61.7005C195.879 61.9069 195.752 62.0816 195.593 62.2325C195.434 62.3833 195.243 62.4548 195.028 62.4548C194.813 62.4548 194.582 62.3595 194.335 62.169C194.089 61.9784 193.754 61.7879 193.34 61.6052C192.926 61.4226 192.338 61.3353 191.589 61.3353C190.284 61.3353 189.305 61.6767 188.653 62.3595C188 63.0423 187.674 63.9713 187.674 65.1463V68.3461C187.674 69.5211 188 70.4501 188.653 71.1329C189.305 71.8157 190.292 72.1571 191.621 72.1571C192.393 72.1571 192.99 72.0539 193.42 71.8554C193.85 71.649 194.184 71.4584 194.431 71.2758C194.677 71.0932 194.916 71.0059 195.147 71.0059C195.378 71.0059 195.585 71.0773 195.76 71.2123C195.927 71.3552 196.062 71.514 196.158 71.7125C196.253 71.903 196.301 72.0936 196.301 72.2921C196.301 72.6097 196.094 72.9511 195.688 73.3004C195.282 73.6498 194.717 73.9515 193.985 74.1976C193.261 74.4438 192.417 74.5628 191.454 74.5628L191.478 74.5549Z" fill="white"/>
<path d="M200.292 54.9744C199.847 54.9744 199.457 54.8235 199.122 54.5139C198.788 54.2042 198.629 53.8469 198.629 53.442C198.629 53.0371 198.796 52.6877 199.122 52.386C199.457 52.0843 199.847 51.9414 200.292 51.9414C200.738 51.9414 201.152 52.0923 201.462 52.386C201.773 52.6877 201.924 53.0371 201.924 53.442C201.924 53.8469 201.773 54.2042 201.462 54.5139C201.152 54.8235 200.762 54.9744 200.292 54.9744ZM200.292 74.2917C199.91 74.2917 199.592 74.1885 199.345 73.99C199.098 73.7835 198.971 73.5692 198.971 73.331V60.0558C198.971 59.7779 199.098 59.5556 199.345 59.3809C199.592 59.2142 199.902 59.1268 200.292 59.1268C200.658 59.1268 200.969 59.2142 201.239 59.3809C201.51 59.5556 201.637 59.7779 201.637 60.0558V73.331C201.637 73.5692 201.502 73.7835 201.239 73.99C200.977 74.1964 200.658 74.2917 200.292 74.2917Z" fill="white"/>
<path d="M211.974 74.5526C210.589 74.5526 209.356 74.2906 208.289 73.7666C207.223 73.2425 206.379 72.52 205.758 71.5911C205.138 70.6621 204.827 69.5823 204.827 68.3437V64.9852C204.827 63.8975 205.122 62.8971 205.711 61.9761C206.3 61.063 207.072 60.3246 208.035 59.7689C208.998 59.2131 210.056 58.9352 211.21 58.9352C212.364 58.9352 213.343 59.1893 214.274 59.7053C215.206 60.2135 215.954 60.9122 216.519 61.7855C217.084 62.6589 217.37 63.6752 217.37 64.8265C217.37 65.676 217.235 66.2953 216.957 66.6685C216.678 67.0416 216.328 67.2719 215.898 67.3592C215.468 67.4466 215.023 67.4863 214.553 67.4863H207.501V68.447C207.501 69.6459 207.931 70.5827 208.783 71.2814C209.642 71.9722 210.741 72.3215 212.086 72.3215C212.874 72.3215 213.51 72.2183 213.98 72.0039C214.449 71.7896 214.839 71.5831 215.134 71.3767C215.428 71.1703 215.699 71.075 215.938 71.075C216.177 71.075 216.368 71.1465 216.535 71.2814C216.694 71.4244 216.821 71.5831 216.901 71.7816C216.988 71.9722 217.028 72.1469 217.028 72.2898C217.028 72.5677 216.821 72.8853 216.415 73.2346C216.009 73.584 215.428 73.8936 214.664 74.1635C213.9 74.4335 213.009 74.5605 211.982 74.5605L211.974 74.5526ZM207.485 65.6919H213.415C213.996 65.6919 214.37 65.6204 214.553 65.4854C214.736 65.3505 214.824 65.0726 214.824 64.6677C214.824 64.0245 214.664 63.437 214.362 62.8892C214.06 62.3413 213.622 61.9046 213.065 61.5632C212.508 61.2218 211.879 61.0551 211.17 61.0551C210.51 61.0551 209.897 61.2139 209.34 61.5156C208.783 61.8252 208.337 62.246 207.995 62.778C207.653 63.31 207.485 63.8975 207.485 64.5406V65.6919ZM209.921 55.6084C209.666 55.6084 209.443 55.4893 209.244 55.2591C209.045 55.0288 208.958 54.7827 208.958 54.5207C208.958 54.1793 209.093 53.9411 209.372 53.8141L213.128 51.8291C213.256 51.7894 213.359 51.7656 213.447 51.7656C213.725 51.7656 213.94 51.8768 214.107 52.0991C214.274 52.3214 214.346 52.5755 214.346 52.8534C214.346 53.1948 214.195 53.4488 213.892 53.6235L210.271 55.4814C210.207 55.5052 210.144 55.529 210.096 55.5608C210.048 55.5926 209.985 55.6084 209.921 55.6084Z" fill="white"/>
<path d="M225.57 74.2898C223.835 74.2898 222.521 73.9087 221.606 73.1385C220.699 72.3684 220.245 71.1457 220.245 69.4624V52.9875C220.245 52.7096 220.38 52.4873 220.659 52.3127C220.938 52.138 221.24 52.0586 221.558 52.0586C221.901 52.0586 222.211 52.1459 222.49 52.3127C222.768 52.4794 222.903 52.7096 222.903 52.9875V59.1329H226.947C227.201 59.1329 227.4 59.2361 227.536 59.4505C227.671 59.6648 227.742 59.911 227.742 60.1889C227.742 60.4668 227.671 60.7049 227.536 60.9114C227.4 61.1178 227.201 61.2131 226.947 61.2131H222.903V69.4704C222.903 70.3914 223.102 71.0345 223.5 71.4077C223.898 71.7808 224.583 71.9635 225.57 71.9635H226.564C226.947 71.9635 227.241 72.0825 227.432 72.3128C227.623 72.551 227.719 72.813 227.719 73.1147C227.719 73.4164 227.623 73.6864 227.432 73.9325C227.241 74.1786 226.954 74.2977 226.564 74.2977H225.57V74.2898Z" fill="white"/>
<path d="M236.497 74.5526C235.112 74.5526 233.878 74.2906 232.812 73.7666C231.745 73.2425 230.902 72.52 230.281 71.5911C229.66 70.6621 229.35 69.5823 229.35 68.3437V64.9852C229.35 63.8975 229.644 62.8971 230.233 61.9761C230.822 61.063 231.594 60.3246 232.557 59.7689C233.52 59.2131 234.579 58.9352 235.733 58.9352C236.887 58.9352 237.866 59.1893 238.797 59.7053C239.728 60.2135 240.476 60.9122 241.041 61.7855C241.606 62.6589 241.893 63.6752 241.893 64.8265C241.893 65.676 241.758 66.2953 241.479 66.6685C241.2 67.0416 240.85 67.2719 240.42 67.3592C239.991 67.4466 239.545 67.4863 239.075 67.4863H232.024V68.447C232.024 69.6459 232.454 70.5827 233.305 71.2814C234.165 71.9722 235.263 72.3215 236.608 72.3215C237.396 72.3215 238.033 72.2183 238.502 72.0039C238.972 71.7896 239.362 71.5831 239.656 71.3767C239.951 71.1703 240.222 71.075 240.46 71.075C240.699 71.075 240.89 71.1465 241.057 71.2814C241.216 71.4244 241.344 71.5831 241.423 71.7816C241.511 71.9722 241.551 72.1469 241.551 72.2898C241.551 72.5677 241.344 72.8853 240.938 73.2346C240.532 73.584 239.951 73.8936 239.187 74.1635C238.423 74.4335 237.531 74.5605 236.505 74.5605L236.497 74.5526ZM232.008 65.6919H237.937C238.518 65.6919 238.892 65.6204 239.075 65.4854C239.258 65.3505 239.346 65.0726 239.346 64.6677C239.346 64.0245 239.187 63.437 238.884 62.8892C238.582 62.3413 238.144 61.9046 237.587 61.5632C237.03 61.2218 236.401 61.0551 235.693 61.0551C235.032 61.0551 234.419 61.2139 233.862 61.5156C233.305 61.8173 232.86 62.246 232.517 62.778C232.175 63.31 232.008 63.8975 232.008 64.5406V65.6919ZM234.443 55.6084C234.189 55.6084 233.966 55.4893 233.767 55.2591C233.568 55.0288 233.48 54.7827 233.48 54.5207C233.48 54.1793 233.616 53.9411 233.894 53.8141L237.651 51.8291C237.778 51.7894 237.882 51.7656 237.969 51.7656C238.248 51.7656 238.463 51.8768 238.63 52.0991C238.797 52.3214 238.868 52.5755 238.868 52.8534C238.868 53.1948 238.717 53.4488 238.415 53.6235L234.794 55.4814C234.73 55.5052 234.666 55.529 234.618 55.5608C234.571 55.5926 234.507 55.6084 234.443 55.6084Z" fill="white"/>
<path d="M249.206 74.5511C248.179 74.5511 247.272 74.4162 246.484 74.1542C245.688 73.8842 245.075 73.5746 244.622 73.2093C244.168 72.8441 243.945 72.4868 243.945 72.1216C243.945 71.9549 243.985 71.7722 244.073 71.5896C244.16 71.407 244.272 71.2482 244.407 71.1132C244.542 70.9783 244.701 70.9068 244.869 70.9068C245.123 70.9068 245.402 71.0338 245.704 71.272C245.999 71.5182 246.413 71.7722 246.922 72.0263C247.431 72.2804 248.172 72.4074 249.135 72.4074C250.265 72.4074 251.061 72.201 251.506 71.7802C251.96 71.3673 252.183 70.8989 252.183 70.3907C252.183 69.7317 251.992 69.2236 251.61 68.8743C251.228 68.5249 250.734 68.247 250.137 68.0406C249.54 67.8341 248.912 67.6436 248.243 67.4451C247.583 67.2545 246.946 67.0164 246.349 66.7226C245.752 66.4368 245.266 66.0318 244.892 65.5078C244.518 64.9838 244.335 64.2851 244.335 63.4117C244.335 62.7051 244.502 62.0143 244.845 61.3315C245.187 60.6487 245.744 60.077 246.516 59.6165C247.288 59.156 248.315 58.9258 249.596 58.9258C250.344 58.9258 251.069 59.0052 251.761 59.164C252.453 59.3228 253.026 59.5371 253.464 59.8071C253.902 60.077 254.125 60.3549 254.125 60.6566C254.125 60.7837 254.085 60.9584 253.997 61.1648C253.91 61.3712 253.79 61.5697 253.647 61.7444C253.504 61.9191 253.305 61.9985 253.074 61.9985C252.899 61.9985 252.66 61.9191 252.35 61.7603C252.04 61.6015 251.665 61.4427 251.228 61.2998C250.79 61.1489 250.265 61.0774 249.644 61.0774C248.936 61.0774 248.37 61.1965 247.941 61.4427C247.511 61.6888 247.2 61.9746 247.009 62.3081C246.818 62.6416 246.723 62.975 246.723 63.3165C246.723 63.8484 246.914 64.2692 247.288 64.563C247.662 64.8647 248.156 65.1029 248.76 65.2855C249.373 65.4681 250.002 65.6507 250.671 65.8333C251.331 66.016 251.96 66.27 252.565 66.6035C253.162 66.937 253.655 67.3895 254.037 67.9612C254.419 68.5408 254.61 69.303 254.61 70.2637C254.61 71.5658 254.141 72.6059 253.202 73.384C252.262 74.1621 250.933 74.5511 249.222 74.5511H249.206Z" fill="white"/>
<path d="M97.5918 1.29297V87.4785" stroke="white" stroke-width="1.52" stroke-miterlimit="10" stroke-linecap="round"/>
<path d="M78.9733 3.99267C72.638 5.58061 66.0321 6.32695 59.4978 5.64413C55.9083 5.18363 52.4462 4.08795 49.0159 5.44564C44.0575 7.24001 41.6857 12.9725 42.3622 17.9586C45.3309 45.5729 27.3676 67.7247 0.482422 73.0205C25.4734 63.3261 39.6642 45.8985 37.6665 18.4271C36.7114 10.7097 41.7653 2.09507 49.9232 1.15819C54.038 0.459493 57.8583 2.26975 61.8218 2.80965C67.401 3.65126 73.1075 3.59568 78.83 3.18282C79.0608 3.159 79.2757 3.32573 79.2916 3.56392C79.3075 3.77035 79.1722 3.94503 78.9812 3.99267H78.9733Z" fill="white"/>
<path d="M79.1193 4.22226C71.4549 8.66849 64.9206 15.5364 63.1139 24.3018C62.3419 28.5416 62.0952 33.3689 61.6972 37.7755L61.5619 39.5063C61.3232 43.9129 60.1771 48.3432 57.8212 52.1146C47.9363 67.5415 23.6775 72.2815 6.75684 74.449C22.1096 69.5502 44.6731 63.6907 53.5155 49.5183C55.7678 45.8581 56.6274 41.6024 56.906 37.3467C57.4472 32.6544 57.6461 27.8667 58.7922 23.2458C61.4425 13.6229 69.5368 6.39773 78.8726 3.56326C79.2466 3.48386 79.5252 3.97613 79.1193 4.21432V4.22226Z" fill="white"/>
<path d="M45.7188 33.9729C48.0985 38.8955 50.6931 44.0563 53.9006 48.4946C61.3262 58.9433 72.4369 71.1863 61.0318 83.3976C57.2354 87.1531 51.5527 88.3917 46.4829 88.225C43.0924 88.1297 39.7815 87.5342 36.582 86.645C36.4944 86.6211 36.4387 86.5259 36.4626 86.4306C36.4865 86.3512 36.5661 86.2956 36.6456 86.3036C39.9247 86.7005 43.2117 86.9229 46.4431 86.6847C52.5873 86.375 59.1535 83.747 61.4297 77.7525C67.6058 64.1835 39.0094 47.0417 45.7029 33.957L45.7188 33.9729Z" fill="#CEB793"/>
<path d="M33.692 23.6668C27.5716 20.9118 27.6193 11.0745 19.9469 13.5913C18.0607 14.2742 16.2222 15.5366 14.893 17.1007C11.9562 20.4751 9.65608 24.4687 7.88124 28.5895C6.06661 32.7657 4.78522 37.1961 3.9177 41.7059C3.89382 41.825 3.78239 41.8964 3.663 41.8726C3.55158 41.8488 3.47995 41.7456 3.48791 41.6344C4.03707 37.0452 5.07173 32.5037 6.568 28.0813C8.30305 23.0714 10.6271 18.1805 14.121 14.0915C15.49 12.7418 16.9942 11.5826 18.8088 10.7648C25.9957 7.04902 37.0905 15.9653 33.692 23.651V23.6668Z" fill="#CEB793"/>
</svg>
