<svg width="85" height="34" viewBox="0 0 85 34" fill="none" xmlns="http://www.w3.org/2000/svg">
<path d="M43.5871 20.7757C43.4487 20.7757 43.3295 20.7404 43.2232 20.6729C43.117 20.6054 43.0654 20.5026 43.0654 20.3645V9.76924C43.0654 9.57969 43.117 9.44798 43.2232 9.3773C43.3295 9.30341 43.4487 9.26807 43.5871 9.26807C43.7127 9.26807 43.8254 9.30341 43.9253 9.37087C44.0251 9.43834 44.1185 9.5283 44.2022 9.63753C44.286 9.74676 44.36 9.87206 44.4244 10.007L47.1392 15.2179L49.8379 10.007C49.9217 9.86884 50.0054 9.74676 50.0827 9.63753C50.16 9.5283 50.2534 9.43834 50.3596 9.37087C50.4659 9.30341 50.5754 9.26807 50.6913 9.26807C50.8395 9.26807 50.9618 9.30663 51.0617 9.3773C51.1615 9.44798 51.213 9.5829 51.213 9.76924V20.3645C51.213 20.5026 51.1615 20.6022 51.0552 20.6729C50.949 20.7404 50.8298 20.7757 50.6913 20.7757C50.5657 20.7757 50.4466 20.7404 50.3371 20.6729C50.2276 20.6054 50.1728 20.5026 50.1728 20.3645V11.5169L47.5514 16.4611C47.4903 16.5864 47.4194 16.6764 47.3453 16.7278C47.2713 16.7792 47.1972 16.8081 47.1231 16.8081C47.0587 16.8081 46.9911 16.7824 46.917 16.7278C46.843 16.6764 46.7689 16.5864 46.6948 16.4611L44.1056 11.4848V20.3645C44.1056 20.5026 44.0509 20.6022 43.9414 20.6729C43.8319 20.7404 43.7127 20.7757 43.5871 20.7757Z" fill="white" stroke="white" stroke-width="0.45" stroke-miterlimit="10"/>
<path d="M53.1199 24.4284C52.9814 24.4284 52.8687 24.3931 52.7721 24.3256C52.6787 24.2581 52.6304 24.1393 52.6304 23.9722C52.6304 23.8469 52.6561 23.7345 52.7077 23.6413C52.7592 23.5482 52.8461 23.5 52.9621 23.5C53.2133 23.5 53.458 23.4229 53.6867 23.2622C53.9185 23.1048 54.1343 22.8832 54.334 22.594C54.5336 22.3049 54.714 21.9804 54.8718 21.6174C55.0296 21.2543 55.1552 20.8688 55.2518 20.4608L52.6626 13.8782C52.64 13.8171 52.6304 13.7625 52.6304 13.7207C52.6304 13.6276 52.6658 13.544 52.7334 13.4766C52.8011 13.4091 52.8848 13.3513 52.9846 13.3031C53.0844 13.2549 53.1778 13.2324 53.2616 13.2324C53.3453 13.2324 53.4226 13.2517 53.4902 13.287C53.5578 13.3256 53.6029 13.3802 53.6255 13.4541L55.7864 19.2464L57.8217 13.4541C57.8539 13.3802 57.9022 13.3256 57.9634 13.287C58.0278 13.2517 58.0954 13.2324 58.1695 13.2324C58.2532 13.2324 58.3466 13.2549 58.4464 13.2935C58.5462 13.3352 58.63 13.393 58.7008 13.4669C58.7684 13.5408 58.8039 13.6308 58.8039 13.7336C58.8039 13.785 58.7942 13.8332 58.7717 13.8749L56.3242 20.4737C56.1664 20.8945 55.9989 21.3347 55.8186 21.7973C55.6382 22.2599 55.4321 22.6872 55.1938 23.0791C54.9555 23.4743 54.6689 23.7955 54.334 24.0493C53.9958 24.2999 53.5933 24.4284 53.1199 24.4284Z" fill="white" stroke="white" stroke-width="0.45" stroke-miterlimit="10"/>
<path d="M64.671 20.8721C63.9979 20.8721 63.415 20.7532 62.9191 20.5187C62.4231 20.281 62.0399 19.9533 61.7662 19.5356C61.4924 19.1148 61.3572 18.6393 61.3572 18.1028C61.3572 17.894 61.4023 17.7526 61.4924 17.6787C61.5826 17.6048 61.7114 17.5695 61.8789 17.5695C62.0045 17.5695 62.1236 17.6016 62.2331 17.6627C62.3426 17.7237 62.3974 17.8297 62.3974 17.9775C62.407 18.3662 62.5036 18.7068 62.6808 19.0023C62.8579 19.2947 63.1187 19.5228 63.4537 19.6802C63.7886 19.8376 64.1847 19.9147 64.6355 19.9147C65.3408 19.9147 65.8915 19.7188 66.2844 19.3236C66.6773 18.9285 66.8769 18.3245 66.8769 17.5052V10.2319H64.6516C64.5357 10.2319 64.4423 10.1837 64.3747 10.0809C64.3071 9.98128 64.2716 9.86884 64.2716 9.74355C64.2716 9.62789 64.3006 9.52187 64.3586 9.41907C64.4166 9.31948 64.5132 9.26807 64.6516 9.26807H67.4437C67.5597 9.26807 67.6659 9.30341 67.769 9.37087C67.8688 9.43834 67.9171 9.54115 67.9171 9.67929V17.5052C67.9171 18.3245 67.7722 18.9798 67.4824 19.4746C67.1925 19.9693 66.8029 20.3259 66.3134 20.5444C65.8239 20.7629 65.2732 20.8753 64.6645 20.8753L64.671 20.8721Z" fill="white" stroke="white" stroke-width="0.45" stroke-miterlimit="10"/>
<path d="M72.8605 20.8854C72.1874 20.8854 71.6077 20.7826 71.1247 20.577C70.6416 20.3714 70.2681 20.1369 70.0136 19.867C69.756 19.6004 69.6272 19.3723 69.6272 19.1827C69.6272 19.0992 69.6497 19.0092 69.698 18.9161C69.7463 18.8229 69.8075 18.7458 69.8784 18.688C69.9525 18.6301 70.0265 18.6012 70.1006 18.6012C70.2069 18.6012 70.3131 18.6655 70.4259 18.7972C70.5353 18.9289 70.6835 19.0799 70.867 19.2534C71.0506 19.4269 71.2954 19.5779 71.6013 19.7096C71.9072 19.8413 72.3066 19.9056 72.8025 19.9056C73.2984 19.9056 73.7171 19.8252 74.0649 19.6614C74.4127 19.4975 74.68 19.2566 74.87 18.9385C75.06 18.6173 75.1534 18.2157 75.1534 17.7338C75.1534 17.2519 75.06 16.8246 74.87 16.5226C74.68 16.2174 74.432 15.9669 74.1196 15.7677C73.8073 15.5685 73.4691 15.4014 73.102 15.2633C72.7317 15.1284 72.3613 14.9838 71.991 14.8392C71.6174 14.6915 71.2728 14.5115 70.9572 14.2963C70.6416 14.0811 70.3872 13.7983 70.2004 13.4449C70.0104 13.0948 69.917 12.645 69.917 12.0989C69.917 11.5527 70.0233 11.0612 70.2326 10.6885C70.442 10.3159 70.7125 10.0235 71.0442 9.81468C71.3759 9.60586 71.7366 9.45488 72.1262 9.36492C72.5159 9.27497 72.8927 9.22998 73.263 9.22998C73.5561 9.22998 73.8588 9.25248 74.1712 9.30067C74.4836 9.34886 74.7669 9.41311 75.031 9.49663C75.2951 9.58016 75.5076 9.68297 75.6719 9.80505C75.8361 9.92713 75.9166 10.0589 75.9166 10.2066C75.9166 10.2709 75.8973 10.3448 75.8619 10.4347C75.8265 10.5247 75.7749 10.605 75.7137 10.6789C75.6493 10.7528 75.5656 10.7881 75.4593 10.7881C75.3659 10.7881 75.2339 10.7399 75.0664 10.6403C74.899 10.5407 74.6703 10.4411 74.3805 10.3416C74.0907 10.242 73.7139 10.1938 73.2534 10.1938C72.8734 10.1938 72.5094 10.2452 72.1552 10.3512C71.801 10.4572 71.5143 10.6435 71.2954 10.9102C71.0764 11.1768 70.9637 11.5431 70.9637 12.0057C70.9637 12.4265 71.0603 12.7639 71.2567 13.0209C71.4499 13.2779 71.7043 13.4867 72.0135 13.6441C72.3227 13.8015 72.664 13.9461 73.0312 14.0778C73.3983 14.2096 73.7686 14.3573 74.1422 14.518C74.5158 14.6818 74.8571 14.8842 75.1695 15.1316C75.4787 15.3789 75.7298 15.7002 75.9198 16.1018C76.1099 16.5002 76.2032 17.0142 76.2032 17.6439C76.2032 18.3892 76.0615 18.9996 75.7782 19.4783C75.4948 19.957 75.1019 20.3103 74.6027 20.5416C74.1035 20.773 73.5271 20.8886 72.8734 20.8886L72.8605 20.8854Z" fill="white" stroke="white" stroke-width="0.45" stroke-miterlimit="10"/>
<path d="M80.6576 20.8854C79.9845 20.8854 79.4049 20.7826 78.9218 20.577C78.4387 20.3714 78.0652 20.1369 77.8108 19.867C77.5531 19.6004 77.4243 19.3723 77.4243 19.1827C77.4243 19.0992 77.4469 19.0092 77.4952 18.9161C77.5435 18.8229 77.6047 18.7458 77.6755 18.688C77.7496 18.6301 77.8236 18.6012 77.8977 18.6012C78.004 18.6012 78.1103 18.6655 78.223 18.7972C78.3325 18.9289 78.4806 19.0799 78.6642 19.2534C78.8477 19.4269 79.0925 19.5779 79.3984 19.7096C79.7044 19.8413 80.1037 19.9056 80.5996 19.9056C81.0956 19.9056 81.5142 19.8252 81.862 19.6614C82.2098 19.4975 82.4771 19.2566 82.6671 18.9385C82.8571 18.6173 82.9505 18.2157 82.9505 17.7338C82.9505 17.2519 82.8571 16.8246 82.6671 16.5226C82.4771 16.2174 82.2291 15.9669 81.9168 15.7677C81.6044 15.5685 81.2663 15.4014 80.8991 15.2633C80.5288 15.1284 80.1584 14.9838 79.7881 14.8392C79.4145 14.6915 79.0699 14.5115 78.7543 14.2963C78.4387 14.0811 78.1843 13.7983 77.9975 13.4449C77.8075 13.0948 77.7142 12.645 77.7142 12.0989C77.7142 11.5527 77.8204 11.0612 78.0298 10.6885C78.2391 10.3159 78.5096 10.0235 78.8413 9.81468C79.173 9.60586 79.5337 9.45488 79.9233 9.36492C80.313 9.27497 80.6898 9.22998 81.0601 9.22998C81.3532 9.22998 81.6559 9.25248 81.9683 9.30067C82.2807 9.34886 82.5641 9.41311 82.8281 9.49663C83.0922 9.58016 83.3048 9.68297 83.469 9.80505C83.6332 9.92713 83.7138 10.0589 83.7138 10.2066C83.7138 10.2709 83.6944 10.3448 83.659 10.4347C83.6236 10.5247 83.5721 10.605 83.5109 10.6789C83.4465 10.7528 83.3627 10.7881 83.2565 10.7881C83.1631 10.7881 83.031 10.7399 82.8636 10.6403C82.6961 10.5407 82.4675 10.4411 82.1776 10.3416C81.8878 10.242 81.511 10.1938 81.0505 10.1938C80.6705 10.1938 80.3066 10.2452 79.9523 10.3512C79.5981 10.4572 79.3115 10.6435 79.0925 10.9102C78.8703 11.1768 78.7608 11.5431 78.7608 12.0057C78.7608 12.4265 78.8574 12.7639 79.0538 13.0209C79.2471 13.2779 79.5015 13.4867 79.8106 13.6441C80.1198 13.8015 80.4612 13.9461 80.8283 14.0778C81.1954 14.2096 81.5657 14.3573 81.9393 14.518C82.3129 14.6818 82.6542 14.8842 82.9666 15.1316C83.2758 15.3789 83.527 15.7002 83.717 16.1018C83.907 16.5002 84.0004 17.0142 84.0004 17.6439C84.0004 18.3892 83.8587 18.9996 83.5753 19.4783C83.2919 19.957 82.899 20.3103 82.3998 20.5416C81.9007 20.773 81.3242 20.8886 80.6705 20.8886L80.6576 20.8854Z" fill="white" stroke="white" stroke-width="0.45" stroke-miterlimit="10"/>
<path d="M37.156 1.63818V32.0264" stroke="white" stroke-width="1.67" stroke-miterlimit="10" stroke-linecap="round"/>
<path d="M3.11952 6.04695C3.06477 6.08871 3.00358 6.11441 2.93596 6.12083C2.86833 6.13368 2.81358 6.11119 2.77172 6.05658L0.0665827 2.51949C0.00539513 2.43596 -0.0139272 2.36206 0.00861553 2.29139C0.0311583 2.22071 0.0698031 2.1693 0.12455 2.12754C0.182517 2.08256 0.240484 2.05686 0.298451 2.04722C0.356418 2.03759 0.417606 2.04081 0.482014 2.05687C0.546422 2.07293 0.620491 2.09862 0.701001 2.14038L2.7846 3.10739L2.39815 0.84892C2.38527 0.758967 2.37883 0.678654 2.38205 0.611189C2.38205 0.543724 2.39815 0.482685 2.42391 0.431283C2.44968 0.379881 2.48832 0.33169 2.54307 0.289926C2.60425 0.244949 2.66866 0.219238 2.73951 0.219238C2.81036 0.219238 2.87477 0.257788 2.93918 0.338104L5.64431 3.87521C5.68617 3.92982 5.69262 3.98764 5.66685 4.04868C5.64109 4.10972 5.59922 4.16436 5.54126 4.20612C5.48329 4.2511 5.4221 4.2768 5.35447 4.28643C5.28685 4.29607 5.23532 4.27358 5.19345 4.21896L3.04223 1.4047L3.39003 3.54751C3.39647 3.61177 3.39325 3.66317 3.38037 3.70493C3.36749 3.74669 3.34495 3.77884 3.31274 3.80454C3.28698 3.82382 3.25478 3.83666 3.20969 3.83987C3.1646 3.8463 3.11308 3.83344 3.05189 3.80774L1.06169 2.8825L3.22901 5.71604C3.27088 5.77065 3.27732 5.82849 3.25155 5.88953C3.22579 5.95057 3.18393 6.00518 3.12596 6.04695H3.11952Z" fill="white"/>
<path d="M6.81043 5.30402C6.7428 5.32972 6.67839 5.33614 6.62364 5.32329C6.56568 5.31044 6.51737 5.25583 6.48194 5.16588C6.4594 5.10805 6.44974 5.05021 6.45296 4.9956C6.4594 4.94099 6.48839 4.90244 6.54313 4.87995C6.6333 4.84461 6.71703 4.78035 6.78788 4.69361C6.85873 4.60366 6.9167 4.49122 6.96178 4.35629C7.00687 4.22136 7.03263 4.07036 7.04229 3.90973C7.05196 3.74589 7.03585 3.57563 7.00043 3.39572L4.94904 1.26896C4.92649 1.24968 4.91039 1.23041 4.90395 1.20792C4.88785 1.16294 4.88785 1.11153 4.91039 1.06013C4.93293 1.00873 4.96514 0.960537 5.01022 0.91556C5.05531 0.873796 5.10039 0.841677 5.14548 0.822401C5.17768 0.80955 5.21633 0.806342 5.25497 0.806342C5.29362 0.809554 5.32582 0.828828 5.35159 0.864167L7.05195 2.71464L6.9328 0.2377C6.9328 0.195936 6.94246 0.160592 6.965 0.131678C6.98755 0.102765 7.01975 0.080292 7.05195 0.0674415C7.09382 0.0513783 7.14535 0.0449539 7.20653 0.0481665C7.26772 0.0481665 7.32569 0.0642281 7.37721 0.0867164C7.42874 0.109205 7.46739 0.144533 7.48671 0.195935C7.49637 0.221636 7.49959 0.244131 7.49959 0.263407L7.55112 3.19332C7.55756 3.38929 7.56078 3.59491 7.56078 3.80373C7.56078 4.01576 7.54468 4.21814 7.50925 4.41411C7.47383 4.61009 7.39976 4.78678 7.29348 4.94099C7.18721 5.09841 7.02619 5.21728 6.81365 5.3008L6.81043 5.30402Z" fill="white"/>
<path d="M30.2772 3.62371C28.0165 4.18913 25.6173 4.46543 23.2664 4.21806C21.9718 4.05421 20.732 3.65905 19.4921 4.14737C17.708 4.79311 16.8546 6.85883 17.0962 8.65148C18.2265 18.5046 11.5732 26.6647 2.02148 28.4734C10.8647 25.0423 16.0044 18.8837 15.4344 9.15265C15.3893 8.65469 15.3475 8.1471 15.3958 7.64914C15.5439 5.09831 17.5535 2.66635 20.2103 2.56354C21.7979 2.46717 23.2246 3.1868 24.7639 3.29282C26.548 3.48879 28.3933 3.47594 30.2193 3.33458C30.3803 3.31852 30.4705 3.56588 30.274 3.62692L30.2772 3.62371Z" fill="white"/>
<path d="M30.3283 3.70394C27.5685 5.30382 25.2176 7.77755 24.5671 10.9323C24.3159 12.2238 24.1871 14.4116 24.055 15.7834C24.0293 16.0983 23.9777 16.7376 23.9455 17.0556C23.7298 20.265 21.469 23.0825 18.8154 24.6503C14.4228 27.3232 9.27984 28.3544 4.27856 28.9873C9.80154 27.2268 17.933 25.1129 21.1084 20.0112C21.9167 18.6941 22.2387 17.1616 22.3353 15.6292C22.5124 14.1193 22.6252 12.0118 23.0084 10.5533C23.9616 7.08683 26.8761 4.48782 30.2382 3.46942C30.3734 3.44051 30.47 3.62041 30.3283 3.70394Z" fill="white"/>
<path d="M18.307 14.415C19.0381 15.9153 19.8367 17.5409 20.7642 18.9288C23.4178 22.8899 28.1743 27.5611 23.8204 32.2098C21.4759 34.4426 17.8916 34.1663 15.019 33.3824C14.9482 33.3631 14.9707 33.2507 15.0448 33.2603C16.2235 33.4017 17.4086 33.482 18.5711 33.3952C20.7835 33.2828 23.1473 32.3383 23.9653 30.1794C26.1713 25.2159 15.9207 19.2243 18.3038 14.415H18.307Z" fill="#CEB793"/>
<path d="M13.9754 10.7037C12.2719 9.81385 12.143 8.31354 10.9 7.26302C9.96283 6.55945 8.66502 7.08632 7.81483 7.76097C6.97753 8.44205 6.37853 9.38014 5.79886 10.299C4.52681 12.4129 3.72493 14.7741 3.25797 17.1997C3.24831 17.2414 3.20966 17.2703 3.1678 17.2607C3.12915 17.2543 3.10017 17.2157 3.10661 17.174C3.30628 15.5227 3.67662 13.8875 4.21443 12.294C4.83918 10.4885 5.67649 8.72799 6.93244 7.2566C7.42516 6.7715 7.96619 6.35063 8.61993 6.0615C11.1834 4.73147 15.196 7.89912 13.9787 10.7005L13.9754 10.7037Z" fill="#CEB793"/>
</svg>
