<?xml version="1.0" encoding="UTF-8"?>
<svg id="Calque_2" data-name="Calque 2" xmlns="http://www.w3.org/2000/svg" viewBox="0 0 864.26 864.26">
  <defs>
    <style>
      .cls-1 {
        fill: #ff5757;
      }

      .cls-2 {
        fill: #1c3d58;
      }

      .cls-3 {
        fill: #eee8e7;
      }

      .cls-4 {
        fill: #efe3dd;
      }
    </style>
  </defs>
  <g id="Calque_1-2" data-name="Calque 1">
    <g>
      <path class="cls-4" d="M864.26,0v864.26H0V0h864.26ZM441.7,175.11c20.26-5.55,27.77-35.06,11.75-49.02-7.48-6.52-36.66-14.09-47.52-16.97-1.5-.4-3-.97-4.58-.85l-22.4,77.64,24.66,6.96c1.08-2.9,5.74-21.95,6.91-22.78.48-.34,4.45.87,4.64,1.32l5.16,26.96,53.32,15.86c.46.02.86.1,1.28-.15.53-.31,4.39-7.46,5.59-8.53.52-.46.81-.74,1.56-.49l25.21,7.68c1.56,1.3-.3,11.03.91,11.88l26.14,7.42-6.71-86.42-26.67-7.75-52.12,67.09-7.13-29.86ZM564.24,241.23l23.06-76.88-.98-1.28-23.52-7.02-23.88,76.86,1.01,1.32,24.32,7ZM598.25,166.98l-22.4,77.36,1.34.99c21.74,5.51,45.69,18.81,66.97,4.69,14.5-9.62,21.41-32.73,15.23-48.89-9.37-24.52-39.43-26.99-61.13-34.16ZM191.16,320.72c-8.89,8.81-12.6,22.25-11.52,34.55l-7.49,22.46c-1.21-.03-2.41-1.96-3.18-2.87-1.22-1.45-7.88-10.13-8.71-10.28-10.62,7.44-26.18,6.03-30.32-7.69-5.84-19.35,14.38-32.33,29.93-20.11l.76-.17,14.33-17.43c.45-1.7-4.04-4.52-5.39-5.37-21.89-13.85-55.01-4.5-64.66,20.02-15.73,39.96,27.07,74.24,63.2,54.28l-11.52,35.7h-29.37c.2,1.7,1.8,3.56,2.9,4.88,28.74,34.64,103.75,36.64,144.7,30.15,8.14-1.29,16.11-3.35,23.99-5.66-.04,7.8.75,17.53,0,25.04-.55,5.44-3.46,8.02-9.05,6.19-4.01-1.32-4.28-6.97-6.17-7.03l-21.58,8.1c4.47,27.34,49.8,31.48,60.51,6.67,4.89-11.34,2.84-39.84,2.78-53.36,4.85-2.49,7.44-7.59,10.94-11.52,1.21,16.61-1.69,35.61.16,51.95,3.73,33.03,51.78,39.61,70.33,15.95,2.63-3.36,6.67-12.21,6.67-16.36v-52.4c0-.48-.39-.86-.86-.86h-25.62v49.23c0,.23-1.2,3.79-1.44,4.32-3.81,8.38-17.41,8.4-21.34.03-.3-.64-1.41-3.39-1.41-3.77v-49.81h-25.91c.17-.53.84-.87.57-1.72-3.07-.49-17.89.88-19.3-.56l-14.67-43.2c-1.29-9.44-.24-19.23-.57-28.79,1.34-.36.96.32,1.32.73,3.1,3.6,18.67,27.41,20.38,27.95,1.28.4,3.82.41,4.81-.73,6.68-8.39,12.47-19.2,19.39-27.22.35-.41-.03-1.08,1.32-.73v39.73h25.91v-81.19h-23.9c-4.15,3.22-23.29,33.45-25.34,33.97-.75.19-1-.48-1.42-.87l-23.86-32.56c-.5-.47-1.11-.48-1.74-.56-4.03-.53-15.77-.44-19.89.03l-40.03-122.07,197.14,58.24-4.53,92.05c-6.89-9.46-14.22-18.67-21.02-28.21h-23.9v81.19h25.91v-39.73c6.11,6.76,10.75,14.77,16.39,21.93l.31,1.68-2.88,58.15c-5.52,5.64-6.79,14.78-4.58,22.14.69,2.28,2.54,4.49,2.85,6.65.33,2.33-.58,4.55-.58,6.05v9.79c0,.19-.54.97-.6,1.7-.14,1.62.12,3.29.02,4.92-1.29.36-2.54,1.27-4.03,1.16-.32.34,2.97,7.8,3.46,8.63l-2.88,56.71c-1.67,25.69-3.02,51.44-4.62,77.14-1.23,19.71,2.05,32.83-21.04,39.42-29.78,8.5-87.52,2.18-105.97,31.64-1.09,1.74-2.49,3.76-2.52,5.83h310.35c-9.62-22.69-36.1-27.14-57.95-30.43-16.77-2.52-53.69-3-65.29-14.74-7.37-7.46-5.66-16.49-6.29-25.96-2.71-41.17-4.67-82.66-6.93-124.06,17.56-1.46,34.17-12.55,29.1-32.27-3.7-14.4-19.59-19.06-31.98-23l-.58-9.21c3.1.74,4,1.6,6.03,4.06.5.61.77,2.07.96,2.19,1.9,1.24,20.24-6.32,23.71-6.93,2.5-1.45-2.28-8.28-3.65-9.96-7.02-8.62-17.65-10.63-28.2-10.67l-3.45-62.19c2.45-3.39,4.26-7.61,7.49-10.36v39.73h25.91v-81.19h-23.9c-3.43,5.21-7.56,9.96-11.23,14.97l-3.74-76.6,192.01,38.62-14.38,43.16c-.03-6.71.02-13.44,0-20.15h-26.49v81.19c1.91.02,3.85-.03,5.76,0l-10.94,34.55c-2.48-.25-21.57-.39-22.49.25-.24.17-.39.41-.46.69.04,22.9-.33,45.83-.08,68.73l-10.65,29.94h-21.02c.57,1.94,2.15,3.96,3.44,5.48,31.07,36.59,118.06,37.59,160.78,26.02,17.43-4.72,38.49-13.97,45.94-31.5h-26.77c-2.58-5.61-4.45-11.82-6.05-17.85,8.97.13,22.35,1.02,30.83.03.58-.07,1.99-.26,1.99-.89v-21.02h-36.27v-8.64h29.94v-21.3h-29.94v-8.06h36.27v-21.02l-60.46-.86-11.52-34.55c2.85-.04,5.73.09,8.58-.06l3.27-10.91,27.52.11c1.14.39,3.48,9.05,3.82,10.86h27.64l-30.87-81.22-28.36.12c-6.51,18.17-13.96,36.01-20.81,54.04l-25.34-76.28c1.46-.05,11.65,1.59,12.04,2.06.22.26,0,3.09.19,4.13,1.12,6.1,9.82,8.29,14.28,3.61,7.34-7.69-2.88-19.1-11.51-12.66-1.62,1.21-1.47,3.24-3.61,2.43l-207.97-61.42c-1.04-.73-.54-13.29-.92-15.32-.35-1.91-2.36-1.52-4.08-1.43-.63.03-1.12.54-1.15,1.17l-.53,13.79-213.25-42.58c-1.23-13.01-19.65-10.76-16.93,2.43,1.24,6.04,9.86,7.73,14.21,3.53,1.02-.99,1.84-3.64,3.19-3.68.44-.01,7.98,2.13,8.55,2.42.62.31,1.06.46.98,1.28l-44.33,133.34ZM732.98,229.74l5.67-19.44-.48-1.58-58.76-17.33-22.97,77.13,59.25,18.22c.47-3.04,6.66-19.23,5.52-20.77-1.01-1.38-28.96-8.12-32.77-9.84-2.58-1.55.86-6.12.81-8.5,9.94,1.49,19.43,5.83,29.3,8l5.78-20.14-28.16-8.12c-.53-2.84,1.08-5.34,1.7-7.98l35.08,10.34ZM523.39,331.66h35.99c.06,0,.86-.8.86-.86v-20.15c0-.06-.8-.86-.86-.86h-61.03c-.06,0-.86.8-.86.86v80.32h62.76v-21.3h-36.85v-8.35c0-.06.8-.86.86-.86h29.65v-20.73h-30.52v-8.06ZM561.97,425.51h-65.93c-.06,0-.86.8-.86.86v22.17h20.15v57.87c0,.06.8.86.86.86h25.33c.06,0,.86-.8.86-.86v-57.87h19.58v-23.03ZM578.53,766.51c-3.3.88-5.94,5.47-5.64,8.79.49,5.47,8.88,5.99,7.45,10.29-.92,2.75-6.23-.43-7.67-.24-4.9.66-1.46,6.29,2.3,6.9,4.95.8,10.44-1.09,11.15-6.64,1-7.83-6.84-8.9-7.38-10.99s3.08-2.98,3.7-4.2c1.46-2.91-1.12-4.64-3.89-3.9ZM605.23,775.52c-1.82-2.9,5-3.76,3.86-7.59-1.36-4.57-10.7.66-9.65,7.9.72,5,7.16,5.19,7.46,8.12.61,6.03-7.86-.56-9.84,2.39-1.59,2.38,1.68,5.33,3.9,5.82,10.25,2.29,16.16-8.65,7.61-15.1-.82-.61-3.25-1.39-3.35-1.54ZM553.91,770.12c-.43,1.53,0,7.1,0,9.21,0,.72-1.29,5.15-2.08,5.42-2.8.95-2.9-4.63-7.13-2.54-3.8,1.88,2.03,11.16,8.97,8.39,3.01-1.2,6-7.14,6-10.12v-10.36c0-1.55-5.12-2.28-5.76,0ZM351.06,772.83c-7.63,1.75-7.83,19.01,1.6,18.34,10.01-.72,10.9-21.2-1.6-18.34ZM370.07,773.38c-.66.19-1.26.8-1.45,1.46.17,2.67-1.79,14.89-.15,16.04,3.3,2.33,15.23-3.92,11.98-11.98-1.25-3.1-7.18-6.43-10.37-5.53ZM439.21,776.63c2.47-4.25-5.5-4.9-7.1,1.25-1.5,5.75,5.24,5.72,5.52,8.38.48,4.54-5.19-.57-6.99,1.67-2.57,3.18,5.46,7.34,9.88,2.37,5.37-6.04-3.03-8.62-3.99-11.06-.77-1.97,2.17-1.74,2.68-2.61ZM483.66,778.18c-.36,3.66,0,8.3,0,12.09,0,2.62,8.23-1.23,9.42-2.1,4.82-3.55,4.2-10.45-.95-13.28-1.37-.75-6.07-2.28-7.36-1.36-.25.18-1.05,4-1.11,4.64ZM328.2,787.1c.33-.32,5.56.78,8.32-2.91,5.89-7.88-9.36-15.28-11.51-6.33-.51,2.13-1.81,14.28-1.32,15.79.42,1.29,2.92,1.37,3.67.38,1.14-1.5.6-6.68.85-6.92ZM420.75,774.6c-3.98-3.65-8.89,6.86-9.8,9.76-.82,2.61-3.13,9.06.59,9.58,3.34.47,1.72-5.23,3.36-5.61.15-.04,2.98.43,3.09.54.19.2-.12,4,.69,4.49.47.28,3.03.31,3.44-.25,1.28-1.78-.04-4.89-.09-6.84-.07-2.79.72-9.84-1.28-11.67ZM457.75,778.47c.44-.44,5.64,1.3,4.52-2.48-.83-2.81-11.74-2.86-12.51-.61-1.06,3.09,1.55,3.43,3.97,3.09.24,3.11-3.04,15.04,2.51,13.18,1.02-.34,1.44-5.15,1.54-6.53.08-1.16-.26-6.41-.03-6.65ZM395.99,774.57c-6.62,1.4-10.64,11.94-3.7,15.53,3.5,1.81,12.19.56,9.09-3.33-1.66-2.08-9.57,2.69-8-4.43.91-4.1,6.8-3.26,7.33-4.8.98-2.88-2.48-3.45-4.73-2.97ZM294.22,788.26c.52.49.91,4.18,2.3,4.91,1.17.62,2.54.28,3.16-.9.73-1.41,2.9-14.33,2.49-15.69-.36-1.18-1.57-1.93-2.77-1.3-1.71.9-1.66,6.97-2.3,8.95-1.41-.82-1.37-3.98-2.45-5.03-.85-.83-2.64-.75-3.35.25-.77,1.09-3.46,12.86-3.16,14.02.39,1.51,1.83,2.28,3.22,1.43,1.2-.73,1.27-4.37,1.69-5.8.19-.66.2-1.74,1.16-.83ZM271.24,786.48c-1.14-.76-.83-9.46-1.45-10.35-.58-.83-2.95-.83-3.53,0-1.54,2.21.32,11.82,2.9,13.86,7.62,6.01,14.21-10.84,10.43-13.88-4.06-3.26-3.03,5.41-4.25,7.95-.61,1.27-2.71,3.36-4.1,2.42ZM509.63,786.47c-1.75-1.22-.68-9.23-1.46-10.34-.58-.83-2.95-.83-3.53,0-.89,1.27-.14,9.19.61,10.97,2.64,6.23,9.28,4.38,11.92-.75,1.13-2.2,3.35-11.04-.99-10.74-2.99.21-1.57,5.59-2.64,8.26-.54,1.36-2.38,3.67-3.92,2.59Z"/>
      <path class="cls-2" d="M460.63,509.57c2.26,41.4,4.23,82.89,6.93,124.06.62,9.47-1.09,18.5,6.29,25.96,11.6,11.74,48.53,12.22,65.29,14.74,21.85,3.29,48.33,7.74,57.95,30.43h-310.35c.03-2.08,1.43-4.1,2.52-5.83,18.45-29.46,76.19-23.14,105.97-31.64,23.09-6.59,19.81-19.71,21.04-39.42,1.61-25.7,2.96-51.45,4.62-77.14l2.88-56.71c7.28,12.36,23.2,16.68,36.85,15.55Z"/>
      <path class="cls-2" d="M194.81,317.54c-1.03.84-2.53-.18-2.11-1.45l42.79-128.71c.08-.82-.36-.97-.98-1.28-.58-.28-8.11-2.43-8.55-2.42-1.34.04-2.17,2.69-3.19,3.68-4.34,4.2-12.96,2.51-14.21-3.53-2.66-12.88,14.86-15.33,16.82-3.3.09.54.51.96,1.05,1.06l210.79,42.08c.8.16,1.56-.44,1.59-1.25l.46-12.13c.03-.68.56-1.24,1.25-1.28,1.7-.1,3.64-.44,3.99,1.43.32,1.76-.01,11.46.58,14.47.1.49.45.89.93,1.03l207.37,61.24c2.14.81,2-1.23,3.61-2.43,8.63-6.44,18.84,4.97,11.51,12.66-4.46,4.68-13.16,2.48-14.28-3.61-.19-1.04.03-3.87-.19-4.13-.31-.37-6.53-1.44-9.97-1.87-.97-.12-1.74.81-1.43,1.74l24.55,73.91c.1.29.09.6-.02.89-.66,1.75-1.32,3.51-1.97,5.27-.44,1.17-2.11,1.14-2.51-.04l-20.62-61.31c-.4-1.2-2.09-1.21-2.52-.02l-12.25,34.57c-.5,1.41-2.59,1.05-2.59-.45,0-4.07.02-8.14,0-12.21,0-.14.02-.29.07-.42l13.84-41.53c.25-.76-.22-1.57-1-1.73l-188.85-37.99c-.85-.17-1.63.5-1.59,1.37l3.63,74.48c.01.27-.07.53-.21.77-.42.74-.71,1.71-1.27,2.48-3.83,5.24-7.71,10.47-11.71,15.58-.55.7-1.62.69-2.13-.03-1.03-1.45-2.28-3.82-2.88-4.8-.14-.23-.21-.49-.19-.76l4.45-90.57c.03-.61-.36-1.17-.95-1.34l-193.7-57.22c-1.03-.3-1.98.67-1.64,1.69l38.85,118.47c.22.66-.11,1.39-.76,1.65-.19.08-.4.15-.61.19-.64.14-1.13.66-1.13,1.31,0,.13,0,.27,0,.4,0,1.5-2.1,1.85-2.59.43l-36.16-105.6c-.41-1.2-2.12-1.2-2.52,0l-35.74,106.38c-.09.28-.27.52-.52.68-1.15.76-2.95,2.13-4.62,3.5Z"/>
      <path class="cls-1" d="M441.7,175.11l7.13,29.86,52.12-67.09,26.67,7.75,6.71,86.42-26.14-7.42c-1.21-.85.65-10.57-.91-11.88l-25.21-7.68c-.75-.25-1.04.03-1.56.49-1.2,1.06-5.06,8.21-5.59,8.53-.42.25-.83.16-1.28.15l-53.32-15.86-5.16-26.96c-.19-.45-4.16-1.66-4.64-1.32-1.17.83-5.83,19.87-6.91,22.78l-24.66-6.96,22.4-77.64c1.58-.12,3.09.45,4.58.85,10.86,2.88,40.04,10.44,47.52,16.97,16.02,13.96,8.51,43.48-11.75,49.02ZM416.29,149.7c6.74,1.58,17.88,8.01,19.92-2.85,1.51-8.02-10.35-9.45-15.87-10.94l-4.06,13.8ZM507.27,190.59v-23.61l-13.82,19.86,13.82,3.75Z"/>
      <path class="cls-2" d="M572.34,507.27l-5.76,17.85h147.98l-5.76-17.85c2.3.05,4.61-.03,6.91,0,1.6,6.03,3.47,12.24,6.05,17.85h26.77c-7.45,17.54-28.51,26.79-45.94,31.5-42.72,11.57-129.71,10.57-160.78-26.02-1.29-1.52-2.87-3.55-3.44-5.48h21.02l10.65-29.94c.03,2.51-.5,9.38.08,11.15.38,1.15,1.33.85,2.22.94Z"/>
      <path class="cls-2" d="M181.95,366.2c-5.48,19.38-13.26,38.18-18.43,57.58h147.98l-10.94-32.82c.76-.05,1.54.04,2.31,0,.57-.59-.86-9.45.57-10.94l14.67,43.2c1.41,1.44,16.23.07,19.3.56.27.85-.4,1.2-.57,1.72-.18.56-.59,1.08-.58,1.73-3.5,3.93-6.09,9.02-10.94,11.52-.02-4.21.01-8.45,0-12.67h-26.49c-.03,9.01.04,18.05,0,27.06-7.89,2.31-15.85,4.37-23.99,5.66-40.95,6.49-115.95,4.49-144.7-30.15-1.1-1.32-2.69-3.18-2.9-4.88h29.37l11.52-35.7c1.19-.65,6.62-4.13,6.88-4.97.5-1.66-3.09-3.25-2.85-5.4l7.49-22.46c.32,3.6,1.84,7.34,2.3,10.94Z"/>
      <path class="cls-1" d="M279.83,309.78c4.13-.46,15.87-.56,19.89-.03.63.08,1.24.09,1.74.56l23.86,32.56c.42.39.67,1.06,1.42.87,2.06-.52,21.19-30.75,25.34-33.97h23.9v81.19h-25.91v-39.73c-1.35-.35-.97.32-1.32.73-6.92,8.02-12.71,18.82-19.39,27.22-.99,1.14-3.53,1.13-4.81.73-1.71-.53-17.28-24.34-20.38-27.95-.35-.41.02-1.09-1.32-.73.34,9.55-.72,19.35.57,28.79-1.44,1.49,0,10.36-.57,10.94-.76.04-1.54-.05-2.31,0-7.71.47-15.85-.35-23.61,0,.13-23.6-.17-47.23,0-70.83.02-3.25-.02-6.53,0-9.78,1.1.47,2.36-.52,2.88-.58Z"/>
      <path class="cls-1" d="M432.42,337.99c.62.85,3.36,6.32,4.32,6.32,4.32-5.48,8.5-11.1,12.62-16.74.65-.89.93-2.06,1.49-2.83,3.67-5.01,7.8-9.76,11.23-14.97h23.9v81.19h-25.91v-39.73c-3.22,2.75-5.03,6.98-7.49,10.36-3.73,5.14-7.76,11.17-11.85,16.07-1.62,1.95-3.18,3.34-5.99,2.06-1.73-.79-2.44-4.61-4.61-4.88l-.31-1.68c-5.64-7.16-10.28-15.16-16.39-21.93v39.73h-25.91v-81.19h23.9c6.8,9.54,14.13,18.75,21.02,28.21Z"/>
      <path class="cls-1" d="M181.95,366.2c-.47-3.6-1.99-7.34-2.3-10.94-1.08-12.3,2.63-25.74,11.52-34.55,1.71-1.7,6.64-5.69,8.64-6.91,20.05-12.21,49.96-6.35,62.43,13.86,16.97,27.52-.83,63.32-33.32,65.62-20.93,1.48-38.5-7.72-46.95-27.09ZM220.39,332.38c-17.65,2.56-18.42,33.02.11,36.44,26.86,4.95,28.48-40.59-.11-36.44Z"/>
      <path class="cls-1" d="M598.25,166.98c21.71,7.17,51.76,9.63,61.13,34.16,6.18,16.16-.73,39.27-15.23,48.89-21.28,14.11-45.23.82-66.97-4.69l-1.34-.99,22.4-77.36ZM607.47,230.87c9.95,3.89,20.01,2.98,24.86-7.64,6.37-13.98-.51-24.78-15.08-26.89l-9.78,34.53Z"/>
      <path class="cls-1" d="M336.84,425.51h25.91v49.81c0,.39,1.11,3.13,1.41,3.77,3.93,8.37,17.52,8.35,21.34-.03.24-.53,1.44-4.09,1.44-4.32v-49.23h25.62c.06,0,.86.8.86.86v52.4c0,4.15-4.04,13-6.67,16.36-18.55,23.66-66.6,17.09-70.33-15.95-1.84-16.34,1.05-35.34-.16-51.95-.02-.65.39-1.17.58-1.73Z"/>
      <path class="cls-1" d="M688.07,425.51l60.46.86v21.02h-36.27v8.06h29.94v21.3h-29.94v8.64h36.27v21.02c0,.63-1.41.82-1.99.89-8.48,1-21.86.1-30.83-.03-2.3-.03-4.61.05-6.91,0-.1,0-.91-.59-1.95-.62-6.83-.15-13.69.2-20.51.05.14-22.44-.18-44.93,0-67.37.02-2.89-.59-10.8-.03-12.88.15-.55,1.43-.42,1.76-.94Z"/>
      <path class="cls-1" d="M523.39,331.66v8.06h30.52v20.73h-29.65c-.06,0-.86.8-.86.86v8.35h36.85v21.3h-62.76v-80.32c0-.06.8-.86.86-.86h61.03c.06,0,.86.8.86.86v20.15c0,.06-.8.86-.86.86h-35.99Z"/>
      <path class="cls-1" d="M732.98,229.74l-35.08-10.34c-.62,2.64-2.23,5.15-1.7,7.98l28.16,8.12-5.78,20.14c-9.86-2.17-19.36-6.51-29.3-8,.05,2.38-3.39,6.95-.81,8.5,3.81,1.72,31.76,8.47,32.77,9.84,1.13,1.54-5.05,17.73-5.52,20.77l-59.25-18.22,22.97-77.13,58.76,17.33.48,1.58-5.67,19.44Z"/>
      <path class="cls-1" d="M667.34,363.9c6.85-18.03,14.3-35.88,20.81-54.04l28.36-.12,30.87,81.22h-27.64c-.35-1.81-2.68-10.48-3.82-10.86l-27.52-.11-3.27,10.91c-2.85.15-5.73.02-8.58.06-2.1.03-4.23,0-6.33,0-4.21-.02-8.45.02-12.67,0,1.83-6.03,4.1-11.96,6.33-17.85,1.16-3.06,2.29-6.16,3.45-9.21ZM694.98,359.29h14.97l-7.2-22.46-7.77,22.46Z"/>
      <path class="cls-1" d="M456.03,423.78c10.55.04,21.18,2.05,28.2,10.67,1.37,1.68,6.15,8.51,3.65,9.96-3.48.61-21.81,8.16-23.71,6.93-.19-.13-.46-1.59-.96-2.19-2.03-2.46-2.93-3.32-6.03-4.06-9.31-2.22-11.68,5.62-1.74,8.96.82.28,1.79.09,2.31.25,12.39,3.95,28.28,8.61,31.98,23,5.07,19.72-11.55,30.81-29.1,32.27-13.65,1.13-29.57-3.18-36.85-15.55-.49-.83-3.77-8.29-3.46-8.63,1.49.11,2.74-.79,4.03-1.16,5.47-1.54,11.05-3.61,16.58-5.02,6.62-1.68,3.79-.35,6.78,3.83,2.71,3.79,6.81,5.38,11.19,4.07,2.36-.71,3.69-1.43,3.51-4.32-.2-3.18-1.92-2.82-3.51-3.74-6.8-3.95-15.29-5.11-22.47-8.91-4.11-2.18-7.54-5.24-10.93-8.36-.31-2.16-2.16-4.37-2.85-6.65-2.21-7.36-.94-16.5,4.58-22.14,7.12-7.28,19.07-9.25,28.79-9.21Z"/>
      <path class="cls-1" d="M168.13,388.08c-36.13,19.96-78.93-14.31-63.2-54.28,9.65-24.52,42.76-33.87,64.66-20.02,1.35.86,5.85,3.67,5.39,5.37l-14.33,17.43-.76.17c-15.55-12.22-35.77.76-29.93,20.11,4.14,13.72,19.7,15.13,30.32,7.69.84.16,7.49,8.84,8.71,10.28.77.91,1.97,2.85,3.18,2.87-.25,2.14,3.35,3.73,2.85,5.4-.25.83-5.69,4.31-6.88,4.97Z"/>
      <path class="cls-1" d="M561.97,425.51v23.03h-19.58v57.87c0,.06-.8.86-.86.86h-25.33c-.06,0-.86-.8-.86-.86v-57.87h-20.15v-22.17c0-.06.8-.86.86-.86h65.93Z"/>
      <path class="cls-1" d="M604,390.96c-1.91-.03-3.85.02-5.76,0v-81.19h26.49c.02,6.71-.03,13.44,0,20.15s-.03,13.44,0,20.15c.03,6.13-.02,12.29,0,18.43h31.09v22.46c-14.96-.05-29.95.06-44.91,0-2.3,0-4.61.04-6.91,0Z"/>
      <path class="cls-1" d="M298.84,453.15c.04-9.01-.03-18.05,0-27.06h26.49c.01,4.21-.02,8.45,0,12.67.06,13.52,2.12,42.02-2.78,53.36-10.7,24.81-56.04,20.67-60.51-6.67l21.58-8.1c1.88.05,2.16,5.71,6.17,7.03,5.58,1.83,8.5-.75,9.05-6.19.76-7.51-.03-17.24,0-25.04Z"/>
      <path class="cls-1" d="M593.06,425.51c.83.08,2.55,1.15,4.03.57.02,2.1-.03,4.23,0,6.34.37,24.61-.21,49.29-.08,73.91-.07.29-.22.52-.46.69-.99.69-21.59.52-24.22.25-.89-.09-1.85.2-2.22-.94-.58-1.77-.05-8.64-.08-11.15-.25-22.89.12-45.83.08-68.73.07-.29.22-.52.46-.69.92-.64,20.01-.5,22.49-.25Z"/>
      <polygon class="cls-1" points="564.24 241.23 539.92 234.23 538.91 232.91 562.8 156.05 586.32 163.07 587.3 164.35 564.24 241.23"/>
      <path class="cls-2" d="M456.03,423.78c-9.72-.04-21.67,1.94-28.79,9.21l2.88-58.15c2.18.27,2.88,4.09,4.61,4.88,2.81,1.28,4.37-.11,5.99-2.06,4.09-4.9,8.13-10.93,11.85-16.07l3.45,62.19Z"/>
      <path class="cls-2" d="M458.91,479.06v8.06c-4.39,1.31-8.48-.28-11.19-4.07-2.99-4.18-.16-5.51-6.78-3.83-5.52,1.4-11.1,3.47-16.58,5.02.1-1.62-.16-3.29-.02-4.92.06-.74.6-1.51.6-1.7v-9.79c0-1.49.91-3.72.58-6.05,3.39,3.11,6.82,6.18,10.93,8.36,7.18,3.8,15.67,4.96,22.47,8.91Z"/>
      <path class="cls-2" d="M676.55,390.96l11.52,34.55c-.32.52-1.61.39-1.76.94-.56,2.07.05,9.98.03,12.88l-16.12-48.37c2.1,0,4.23.03,6.33,0Z"/>
      <path class="cls-2" d="M610.91,390.96l-13.82,41.46c-.03-2.1.02-4.23,0-6.34-1.48.58-3.2-.49-4.03-.57l10.94-34.55c2.3.04,4.61,0,6.91,0Z"/>
      <path class="cls-2" d="M605.23,775.52c.1.16,2.53.93,3.35,1.54,8.55,6.45,2.64,17.39-7.61,15.1-2.22-.5-5.5-3.44-3.9-5.82,1.97-2.95,10.44,3.64,9.84-2.39-.3-2.93-6.73-3.12-7.46-8.12-1.05-7.24,8.29-12.47,9.65-7.9,1.14,3.83-5.68,4.69-3.86,7.59Z"/>
      <path class="cls-2" d="M578.53,766.51c2.77-.74,5.35,1,3.89,3.9-.62,1.23-4.25,2.04-3.7,4.2s8.39,3.17,7.38,10.99c-.71,5.55-6.2,7.44-11.15,6.64-3.75-.61-7.2-6.24-2.3-6.9,1.44-.19,6.75,2.98,7.67.24,1.44-4.3-6.95-4.82-7.45-10.29-.3-3.32,2.34-7.91,5.64-8.79Z"/>
      <path class="cls-2" d="M553.91,770.12c.64-2.28,5.76-1.55,5.76,0v10.36c0,2.98-2.99,8.92-6,10.12-6.94,2.77-12.77-6.51-8.97-8.39,4.23-2.09,4.33,3.49,7.13,2.54.79-.27,2.08-4.7,2.08-5.42,0-2.12-.43-7.69,0-9.21Z"/>
      <path class="cls-2" d="M420.75,774.6c2,1.83,1.2,8.88,1.28,11.67.05,1.94,1.37,5.06.09,6.84-.4.56-2.97.53-3.44.25-.81-.49-.5-4.29-.69-4.49-.11-.11-2.94-.58-3.09-.54-1.64.38-.02,6.09-3.36,5.61-3.71-.53-1.4-6.98-.59-9.58.91-2.89,5.82-13.4,9.8-9.76ZM418.02,784.23l-.28-4.03c-1.19,1.05-2.19,2.34-2.02,4.02h2.3Z"/>
      <path class="cls-2" d="M351.06,772.83c12.5-2.87,11.61,17.62,1.6,18.34-9.42.68-9.23-16.59-1.6-18.34ZM352.22,776.85c-3.45,1-3.55,10.18-.14,10.25,4.74.1,5.81-11.89.14-10.25Z"/>
      <path class="cls-1" d="M294.22,788.26c-.96-.9-.97.18-1.16.83-.42,1.43-.49,5.07-1.69,5.8-1.39.85-2.83.08-3.22-1.43-.3-1.16,2.39-12.93,3.16-14.02.71-1,2.5-1.07,3.35-.25,1.08,1.05,1.03,4.21,2.45,5.03.65-1.98.6-8.05,2.3-8.95,1.19-.63,2.41.12,2.77,1.3.41,1.36-1.76,14.28-2.49,15.69-.61,1.18-1.99,1.52-3.16.9-1.39-.74-1.79-4.43-2.3-4.91Z"/>
      <path class="cls-2" d="M328.2,787.1c-.25.25.29,5.42-.85,6.92-.75.99-3.25.91-3.67-.38-.49-1.51.81-13.65,1.32-15.79,2.15-8.95,17.4-1.55,11.51,6.33-2.76,3.69-7.99,2.59-8.32,2.91ZM328.78,783.08c2.74.54,7.06-1.71,4-4.3-3.61-3.05-4.65,1.04-4,4.3Z"/>
      <path class="cls-2" d="M370.07,773.38c3.19-.9,9.12,2.43,10.37,5.53,3.25,8.06-8.67,14.3-11.98,11.98-1.64-1.15.33-13.38.15-16.04.19-.66.79-1.28,1.45-1.46ZM371.96,785.95c5.3-.32,7.17-6.37,1.41-8.04-1.08-.31-.76.16-.84.83-.28,2.35.03,4.86-.57,7.21Z"/>
      <path class="cls-1" d="M483.66,778.18c.06-.65.86-4.47,1.11-4.64,1.29-.92,5.98.61,7.36,1.36,5.15,2.83,5.77,9.73.95,13.28-1.18.87-9.42,4.72-9.42,2.1,0-3.8-.36-8.44,0-12.09ZM487.69,785.95c6.05-.42,6.23-7.73,0-8.06v8.06Z"/>
      <path class="cls-1" d="M509.63,786.47c1.53,1.08,3.38-1.23,3.92-2.59,1.06-2.67-.36-8.05,2.64-8.26,4.34-.31,2.12,8.54.99,10.74-2.64,5.12-9.28,6.97-11.92.75-.76-1.78-1.5-9.7-.61-10.97.58-.83,2.94-.83,3.53,0,.78,1.12-.29,9.12,1.46,10.34Z"/>
      <path class="cls-1" d="M271.24,786.48c1.39.93,3.49-1.16,4.1-2.42,1.23-2.53.2-11.21,4.25-7.95,3.78,3.04-2.81,19.89-10.43,13.88-2.59-2.04-4.45-11.65-2.9-13.86.58-.83,2.95-.83,3.53,0,.62.89.31,9.59,1.45,10.35Z"/>
      <path class="cls-2" d="M439.21,776.63c-.51.88-3.46.64-2.68,2.61.96,2.44,9.36,5.02,3.99,11.06-4.42,4.97-12.44.81-9.88-2.37,1.8-2.23,7.47,2.88,6.99-1.67-.28-2.67-7.02-2.63-5.52-8.38,1.61-6.16,9.57-5.5,7.1-1.25Z"/>
      <path class="cls-2" d="M395.99,774.57c2.25-.48,5.71.1,4.73,2.97-.53,1.54-6.42.7-7.33,4.8-1.58,7.11,6.33,2.34,8,4.43,3.1,3.89-5.59,5.14-9.09,3.33-6.94-3.59-2.92-14.13,3.7-15.53Z"/>
      <path class="cls-2" d="M457.75,778.47c-.24.23.11,5.49.03,6.65-.1,1.39-.52,6.19-1.54,6.53-5.55,1.86-2.27-10.07-2.51-13.18-2.42.35-5.03,0-3.97-3.09.77-2.25,11.68-2.2,12.51.61,1.12,3.78-4.08,2.04-4.52,2.48Z"/>
      <path class="cls-2" d="M457.18,445.09l.58,9.21c-.53-.17-1.49.02-2.31-.25-9.94-3.34-7.58-11.18,1.74-8.96Z"/>
      <path class="cls-4" d="M663.89,373.11c-2.23,5.88-4.5,11.82-6.33,17.85,4.21.02,8.45-.02,12.67,0l16.12,48.37c-.19,22.44.14,44.93,0,67.37,6.82.15,13.69-.2,20.51-.05,1.04.02,1.84.62,1.95.62l5.76,17.85h-147.98l5.76-17.85c2.63.27,23.23.44,24.22-.25.24-.17.39-.41.46-.69-.13-24.62.45-49.29.08-73.91l13.82-41.46c14.96.06,29.95-.05,44.91,0v-22.46h-31.09c-.02-6.13.03-12.29,0-18.43l16.12-45.49,23.04,68.52ZM642.45,423.94c-17.05,1.81-31.96,14.95-35.76,31.61-7.34,32.18,17.79,57.91,49.93,53.38,7.98-1.12,16.68-4.52,22.13-10.58l-15.15-18.01c-3.27,1.93-6.48,4.07-10.38,4.46-27.93,2.85-27.38-40.51.43-36.7,3.89.53,6.78,2.72,10.23,4.19l14.82-17.88c-8.92-9.74-23.6-11.83-36.26-10.49Z"/>
      <path class="cls-4" d="M276.96,320.14c-.17,23.6.13,47.23,0,70.83,7.76-.35,15.9.46,23.61,0l10.94,32.82h-147.98c5.17-19.4,12.94-38.2,18.43-57.58,8.46,19.37,26.03,28.57,46.95,27.09,32.5-2.3,50.3-38.1,33.32-65.62-12.46-20.21-42.38-26.07-62.43-13.86l37.14-110.55,40.02,116.88Z"/>
      <path class="cls-3" d="M416.29,149.7l4.06-13.8c5.52,1.5,17.38,2.92,15.87,10.94-2.05,10.87-13.18,4.44-19.92,2.85Z"/>
      <polygon class="cls-3" points="507.27 190.59 493.45 186.84 507.27 166.98 507.27 190.59"/>
      <path class="cls-3" d="M220.39,332.38c28.59-4.15,26.97,41.39.11,36.44-18.53-3.42-17.76-33.88-.11-36.44Z"/>
      <path class="cls-3" d="M607.47,230.87l9.78-34.53c14.57,2.11,21.45,12.91,15.08,26.89-4.84,10.62-14.91,11.53-24.86,7.64Z"/>
      <polygon class="cls-3" points="694.98 359.29 702.75 336.83 709.95 359.29 694.98 359.29"/>
      <path class="cls-3" d="M458.91,479.06c1.59.92,3.31.57,3.51,3.74.18,2.89-1.14,3.61-3.51,4.32v-8.06Z"/>
      <path class="cls-3" d="M418.02,784.23h-2.3c-.18-1.69.82-2.98,2.02-4.03l.28,4.03Z"/>
      <path class="cls-3" d="M352.22,776.85c5.67-1.64,4.6,10.34-.14,10.25-3.41-.07-3.31-9.25.14-10.25Z"/>
      <path class="cls-3" d="M328.78,783.08c-.65-3.26.4-7.35,4-4.3,3.06,2.59-1.26,4.83-4,4.3Z"/>
      <path class="cls-3" d="M371.96,785.95c.6-2.34.29-4.86.57-7.21.08-.68-.23-1.14.84-.83,5.76,1.67,3.89,7.72-1.41,8.04Z"/>
      <path class="cls-3" d="M487.69,785.95v-8.06c6.23.33,6.05,7.64,0,8.06Z"/>
      <path class="cls-1" d="M642.45,423.94c12.66-1.34,27.35.74,36.26,10.49l-14.82,17.88c-3.46-1.48-6.35-3.66-10.23-4.19-27.81-3.82-28.36,39.55-.43,36.7,3.9-.4,7.11-2.54,10.38-4.46l15.15,18.01c-5.45,6.06-14.15,9.45-22.13,10.58-32.13,4.53-57.26-21.2-49.93-53.38,3.8-16.66,18.7-29.8,35.76-31.61Z"/>
    </g>
  </g>
</svg>