<svg width="1920" height="1024" viewBox="0 0 1920 1024" fill="none" xmlns="http://www.w3.org/2000/svg">
<g opacity="0.4">
<path d="M-169.1 324.334C-86.3329 281.244 -12.0745 225.749 79.2007 195.062C284.903 125.905 213.86 281.976 192.777 361.183C187.695 380.274 51.4672 691.612 77.5066 750.352C119.462 844.996 351.8 689.324 462.162 623.009C744.462 453.378 1029.64 241.48 1291.07 56.5674C1406.6 -25.1533 1735.8 -270.858 1910.79 -354.397C2037.37 -414.826 2061.67 -387.173 2017.92 -292.536C1960.46 -168.24 1808.4 -5.43242 1719.27 96.7361C1648.06 178.363 1570.99 257.349 1502.54 340.192C1438.94 417.183 1264.08 626.978 1260.18 736.526C1256.23 847.518 1405.98 879.713 1526.53 864.299C1713.62 840.379 1929.33 756.477 2115.5 669.429" stroke="#DEEDFF" stroke-width="2" stroke-linecap="round"/>
<path d="M-130.272 194.893C-47.5048 151.802 26.7536 96.3078 118.029 65.6209C323.731 -3.5367 252.688 152.535 231.605 231.741C226.524 250.833 90.2953 562.171 116.335 620.911C158.29 715.554 390.628 559.883 500.991 493.567C783.29 323.937 1068.46 112.038 1329.89 -72.874C1445.43 -154.595 1774.62 -400.3 1949.62 -483.838C2076.2 -544.268 2100.5 -516.614 2056.75 -421.978C1999.29 -297.681 1847.22 -134.874 1758.1 -32.7054C1686.89 48.9221 1609.82 127.908 1541.37 210.751C1477.76 287.741 1302.91 497.536 1299.01 607.084C1295.06 718.077 1444.8 750.271 1565.36 734.857C1754.35 710.694 1972.55 625.322 2160 537.33" stroke="#DEEDFF" stroke-width="2" stroke-linecap="round"/>
<path d="M-217.822 358.221C-135.056 315.13 -60.7972 259.636 30.4781 228.949C236.181 159.791 165.137 315.863 144.054 395.069C138.973 414.161 2.74455 725.499 28.7839 784.239C70.7395 878.882 303.077 723.211 413.44 656.895C695.74 487.265 980.913 275.366 1242.34 90.4542C1357.88 8.73345 1687.07 -236.971 1862.07 -320.51C1988.65 -380.94 2012.95 -353.286 1969.2 -258.65C1911.74 -134.353 1759.67 28.4543 1670.55 130.623C1599.34 212.25 1522.26 291.236 1453.82 374.079C1390.21 451.069 1215.36 660.865 1211.46 770.413C1207.51 881.405 1357.25 913.599 1477.81 898.186C1665.64 874.17 1882.33 789.694 2069 702.275" stroke="#DEEDFF" stroke-width="2" stroke-linecap="round"/>
<path d="M-143.217 259.612C-60.4501 216.521 13.8083 161.027 105.084 130.34C310.786 61.182 239.743 217.254 218.66 296.46C213.578 315.551 77.35 626.89 103.389 685.629C145.345 780.273 377.683 624.602 488.045 558.286C770.345 388.655 1055.52 176.757 1316.95 -8.15522C1432.49 -89.8759 1761.68 -335.581 1936.67 -419.12C2063.26 -479.549 2087.55 -451.895 2043.8 -357.259C1986.34 -232.963 1834.28 -70.1551 1745.15 32.0134C1673.94 113.641 1596.87 192.626 1528.43 275.47C1464.82 352.46 1289.96 562.255 1286.06 671.803C1282.12 782.796 1431.86 814.99 1552.41 799.576C1707.17 779.791 1881.5 718.967 2042.5 649.269" stroke="#DEEDFF" stroke-width="51" stroke-linecap="round"/>
</g>
</svg>
