<svg width="1920" height="3679" viewBox="0 0 1920 3679" fill="none" xmlns="http://www.w3.org/2000/svg">
<g clip-path="url(#clip0_1521_42742)">
<g opacity="0.05">
<path d="M2345.81 1344C2102.47 1485.35 1895.19 1703.91 1837.84 1982.64C1815.69 2096.75 1804.33 2290.05 1792.69 2411.25C1790.42 2439.06 1785.88 2495.55 1783.04 2523.65C1764.01 2807.21 1564.68 3056.14 1330.72 3194.65C943.418 3430.81 489.962 3521.93 49 3577.84C535.961 3422.3 1252.92 3235.53 1532.88 2784.78C1604.15 2668.41 1632.55 2533.02 1641.06 2397.62C1656.68 2264.22 1666.62 2078.01 1700.41 1949.15C1784.46 1642.88 2041.42 1413.25 2337.86 1323.27C2349.78 1320.72 2358.3 1336.62 2345.81 1344Z" fill="#DEEDFF"/>
<path d="M2337.81 1464C2094.47 1605.35 1887.19 1823.91 1829.84 2102.64C1807.69 2216.75 1796.33 2410.05 1784.69 2531.25C1782.42 2559.06 1777.88 2615.55 1775.04 2643.65C1756.01 2927.21 1556.68 3176.14 1322.72 3314.66C935.418 3550.81 481.962 3641.93 41 3697.84" stroke="#DEEDFF" stroke-width="8"/>
<path d="M2281.81 1195C2038.47 1336.35 1831.19 1554.91 1773.84 1833.65C1751.69 1947.75 1740.33 2141.05 1728.69 2262.25C1726.42 2290.07 1721.88 2346.55 1719.04 2374.65C1700.01 2658.21 1500.68 2907.14 1266.72 3045.66C879.418 3281.82 425.962 3372.93 -15 3428.85" stroke="#DEEDFF" stroke-width="8"/>
</g>
</g>
<g clip-path="url(#clip1_1521_42742)">
<g opacity="0.05">
<path d="M690.896 122.496C447.557 263.85 240.279 482.409 182.923 761.143C160.775 875.248 149.418 1068.55 137.776 1189.75C135.505 1217.56 130.961 1274.05 128.122 1302.15C109.098 1585.71 -90.2296 1834.64 -324.198 1973.15C-711.496 2209.31 -1164.95 2300.43 -1605.91 2356.34C-1118.95 2200.8 -401.998 2014.03 -122.031 1563.28C-50.7616 1446.91 -22.3674 1311.52 -13.8491 1176.12C1.7677 1042.72 11.7058 856.515 45.4949 727.65C129.542 421.383 386.51 191.753 682.946 101.775C694.871 99.2204 703.389 115.116 690.896 122.496Z" fill="#DEEDFF"/>
<path d="M691 104C469.36 253.59 280.566 484.883 228.324 779.858C208.151 900.611 197.806 1105.17 187.203 1233.43C185.134 1262.87 180.996 1322.65 178.409 1352.38C161.082 1652.47 -20.4714 1915.9 -233.577 2062.49C-586.338 2312.4 -999.359 2408.82 -1401 2468" stroke="#DEEDFF" stroke-width="8" stroke-linecap="round"/>
<path d="M686.31 115.451C486.983 165.407 275.446 189.818 68.1675 167.962C-45.9773 153.486 -155.295 118.573 -264.613 161.717C-421.917 218.77 -497.161 401.281 -475.866 559.666C-376.202 1430.21 -962.827 2151.18 -1805 2310.98C-1025.29 2007.84 -572.122 1463.71 -622.38 603.945C-626.355 559.95 -630.047 515.102 -625.787 471.107C-612.726 245.735 -435.546 30.8656 -201.294 21.7826C-61.3101 13.2673 64.4763 76.8482 200.201 86.215C357.505 103.53 520.204 102.394 681.199 89.905C695.396 88.4858 703.347 110.342 686.026 115.735L686.31 115.451Z" fill="#DEEDFF"/>
<path d="M-201 -47.38C-61.0946 -65.0075 64.6215 66.6116 200.27 86.0019C357.486 121.845 520.095 119.494 681 93.6405" stroke="#DEEDFF" stroke-width="8" stroke-linecap="round"/>
</g>
</g>
<defs>
<clipPath id="clip0_1521_42742">
<rect width="1920" height="2385" fill="white" transform="translate(0 1294)"/>
</clipPath>
<clipPath id="clip1_1521_42742">
<rect width="1920" height="1841" fill="white"/>
</clipPath>
</defs>
</svg>
