<svg width="20" height="21" viewBox="0 0 20 21" fill="none" xmlns="http://www.w3.org/2000/svg">
<rect y="0.5" width="20" height="20" rx="2" fill="#F8EB83"/>
<path d="M16.1419 3.99676C14.9585 4.68493 13.9502 5.74835 13.6709 7.1043C13.5522 7.7601 13.5138 8.50821 13.4527 9.18918L13.4311 9.45773C13.3939 10.1387 13.2177 10.8257 12.8532 11.4095C11.3269 13.7977 7.58147 14.5303 4.96899 14.866C7.33929 14.1083 10.8222 13.2019 12.1878 11.0079C12.5355 10.4408 12.6685 9.78263 12.7117 9.12444C12.7956 8.39791 12.8268 7.65699 13.0031 6.94245C13.4119 5.45342 14.6624 4.33485 16.1035 3.89725C16.1622 3.88527 16.2042 3.962 16.1419 3.99796V3.99676Z" fill="#1C2D41" stroke="#1C2D41" stroke-width="0.5" stroke-linejoin="round"/>
<path d="M16.1188 3.96204C15.1405 4.20781 14.1202 4.32291 13.1119 4.2186C12.558 4.14787 12.0233 3.97882 11.4933 4.18863C10.7284 4.46677 10.3627 5.35396 10.4659 6.12485C10.9238 10.3989 8.15071 13.8266 4 14.6454C7.85937 13.1444 10.0486 10.4493 9.7405 6.19678C9.59303 5.00268 10.3735 3.66951 11.6324 3.52444C12.2678 3.41654 12.8577 3.69588 13.4692 3.77981C14.3312 3.91049 15.2136 3.90209 16.0972 3.83735C16.132 3.83496 16.1632 3.86133 16.1656 3.8961C16.168 3.92727 16.1476 3.95485 16.1176 3.96324L16.1188 3.96204Z" fill="#1C2D41" stroke="#1C2D41" stroke-width="0.5" stroke-linejoin="round"/>
<path d="M10.985 8.60059C11.353 9.36188 11.7535 10.1615 12.2486 10.8485C13.396 12.467 15.1105 14.3565 13.3505 16.2507C12.7642 16.8322 11.8878 17.0228 11.1049 16.9977C10.5821 16.9821 10.0714 16.891 9.57622 16.7543C9.56184 16.7507 9.55344 16.7363 9.55824 16.7219C9.56184 16.7087 9.57382 16.7015 9.58701 16.7027C10.093 16.7639 10.6013 16.7986 11.0989 16.7615C12.0472 16.7135 13.0615 16.3071 13.4128 15.3791C14.366 13.2811 9.95149 10.6231 10.985 8.60178V8.60059Z" fill="#1C2D41" stroke="#1C2D41" stroke-width="0.5" stroke-linejoin="round"/>
<path d="M9.12807 7.00587C8.18211 6.58026 8.1905 5.05766 7.00596 5.4473C6.71461 5.5528 6.43047 5.74822 6.22545 5.9904C5.77225 6.51192 5.41737 7.13055 5.14281 7.76836C4.86226 8.41457 4.66444 9.10034 4.53136 9.79809C4.52776 9.81608 4.51097 9.82807 4.49299 9.82447C4.47621 9.82087 4.46422 9.80529 4.46661 9.7873C4.55174 9.07756 4.7112 8.37381 4.94139 7.69043C5.20875 6.91475 5.56843 6.15705 6.10796 5.52523C6.32017 5.31662 6.55156 5.13679 6.83091 5.0109C7.94113 4.43663 9.6532 5.81536 9.12927 7.00587H9.12807Z" fill="#1C2D41" stroke="#1C2D41" stroke-width="0.5" stroke-linejoin="round"/>
</svg>
