<svg width="22" height="21" viewBox="0 0 22 21" fill="none" xmlns="http://www.w3.org/2000/svg">
<path d="M7.29129 9.13264L5.84302 10.512L9.10164 13.6154L15.2568 7.75333L13.8085 6.37402L9.10164 10.8568L7.29129 9.13264Z" stroke="#CCE1FA" stroke-width="0.5"/>
<path d="M5.11876 1.89201H8.73945L10.5498 0.512695L13.0843 2.23683L15.9808 1.89201L17.7912 5.80005L16.3429 8.44373L13.8084 6.37476L9.10152 10.8575L7.29118 9.13338L5.8429 10.5127L9.10152 13.6161L17.067 6.02994L17.4291 4.3058L19.2395 5.34028L18.8774 7.06442L20.6877 10.1679L18.8774 11.892L19.2395 14.3058V15.3403L17.067 15.6851L15.9808 18.4437L13.0843 17.7541L10.5498 19.823L8.37738 18.0989L5.11876 18.4437L4.39462 15.6851L1.49807 15.3403L2.22221 12.2368L0.411865 10.1679L1.86014 8.44373V5.34028L4.03255 4.3058L5.11876 1.89201Z" fill="#CCE1FA"/>
<path d="M12.3411 1.8732L11.1888 0.775798C10.8238 0.428202 10.2572 0.406549 9.86675 0.725275L8.39858 1.92378C8.15718 2.12084 7.83772 2.1941 7.53458 2.12193L6.06973 1.77315C5.54117 1.6473 5.00883 1.96653 4.87088 2.49206L4.54713 3.7254C4.45341 4.08244 4.17062 4.35881 3.81152 4.44431L2.46675 4.76449C1.9312 4.892 1.59944 5.4284 1.72453 5.96452L2.09251 7.54157C2.17303 7.88664 2.06492 8.24856 1.80832 8.49293L0.810394 9.44334C0.396601 9.83743 0.396601 10.4975 0.810394 10.8916L1.75501 11.7913C2.03957 12.0623 2.13903 12.4748 2.00921 12.8457L1.55342 14.148C1.34038 14.7567 1.75072 15.4049 2.39205 15.4728L3.68783 15.6099C4.11115 15.6547 4.45971 15.9626 4.55644 16.3771L4.86434 17.6967C5.00005 18.2783 5.61204 18.6121 6.17451 18.4112L7.43556 17.9608C7.79121 17.8338 8.18808 17.918 8.46155 18.1784L9.8052 19.4581C10.2131 19.8466 10.8613 19.8216 11.2381 19.4029L12.2911 18.2329C12.5538 17.9411 12.9628 17.83 13.337 17.9488L14.9504 18.461C15.5061 18.6374 16.0943 18.3029 16.2268 17.7351L16.5459 16.3676C16.6415 15.9577 16.9836 15.6516 17.4015 15.6018L18.4922 15.472C19.0841 15.4015 19.4833 14.8322 19.3479 14.2518L19.0076 12.7934C18.9271 12.4483 19.0352 12.0864 19.2918 11.842L20.346 10.838C20.738 10.4646 20.7618 9.8472 20.3997 9.44486L19.2386 8.15471C19.0133 7.90441 18.9291 7.55755 19.0146 7.23185L19.342 5.98477C19.4845 5.44189 19.1524 4.88807 18.6064 4.75806L17.2886 4.44431C16.9295 4.35881 16.6467 4.08244 16.553 3.7254L16.223 2.46854C16.0876 1.95245 15.5708 1.63363 15.0488 1.74411L13.2378 2.12739C12.9152 2.19565 12.5798 2.10056 12.3411 1.8732Z" stroke="#263238"/>
<rect x="7.17358" y="9.17725" width="4.55227" height="1.73774" transform="rotate(44.7127 7.17358 9.17725)" fill="#263238"/>
<rect x="7.17358" y="9.17725" width="4.55227" height="1.73774" transform="rotate(44.7127 7.17358 9.17725)" fill="#263238"/>
<rect x="9.02466" y="11.1948" width="6.96296" height="1.8253" transform="rotate(-44.068 9.02466 11.1948)" fill="#263238"/>
<rect x="9.02466" y="11.1948" width="6.96296" height="1.8253" transform="rotate(-44.068 9.02466 11.1948)" fill="#263238"/>
</svg>
