<svg width="194" height="141" viewBox="0 0 194 141" fill="none" xmlns="http://www.w3.org/2000/svg">
<rect x="-87" y="100.859" width="304" height="48" rx="8" transform="rotate(-33.2894 -87 100.859)" fill="#1C2D41"/>
<path d="M30.0026 59.9224L22.7854 53.9413L22.7267 53.9799C22.8526 54.1526 23.0429 54.414 23.2976 54.7639C23.5537 55.1066 23.8235 55.4747 24.1067 55.8682C24.39 56.2616 24.6389 56.6216 24.8533 56.9481L27.7691 61.3889L25.9602 62.5767L19.6911 53.029L22.4469 51.2195L29.5005 57.037L29.5397 57.0112L27.1424 48.1364L29.8983 46.3268L36.1674 55.8745L34.2801 57.1137L31.3127 52.5946C31.1155 52.2942 30.8926 51.9452 30.644 51.5477C30.3998 51.1473 30.1706 50.765 29.9565 50.4009C29.7395 50.0325 29.5767 49.7562 29.4682 49.5719L29.4094 49.6105L31.8572 58.7046L30.0026 59.9224ZM44.0759 50.6817L38.5772 54.2922L32.308 44.7446L37.8068 41.134L38.8959 42.7928L35.4217 45.074L36.7981 47.1703L40.0307 45.0477L41.1199 46.7065L37.8873 48.8291L39.5039 51.2911L42.9781 49.0099L44.0759 50.6817ZM54.5443 43.8079L51.9713 45.4974L43.0753 41.0019L43.0165 41.0404C43.2312 41.3294 43.4451 41.622 43.6583 41.9182C43.8714 42.2144 44.0846 42.5105 44.2978 42.8067C44.5081 43.0985 44.7198 43.3926 44.933 43.6887L47.8832 48.1817L46.0742 49.3695L39.8051 39.8219L42.3585 38.1453L51.2008 42.5733L51.2465 42.5433C51.0434 42.2529 50.8396 41.9662 50.635 41.6831C50.4304 41.4 50.2258 41.1169 50.0212 40.8337C49.821 40.5478 49.6207 40.2618 49.4205 39.9758L46.4532 35.4567L48.2752 34.2603L54.5443 43.8079ZM60.849 35.8737C61.2206 36.4397 61.4065 37.0217 61.4067 37.6197C61.4068 38.2178 61.2178 38.803 60.8397 39.3753C60.4659 39.9447 59.9046 40.4753 59.1557 40.9669C58.8249 41.1842 58.4862 41.3754 58.1398 41.5406C57.7978 41.7028 57.4537 41.8384 57.1077 41.9472C56.7632 42.0488 56.4189 42.1222 56.0747 42.1675L54.8398 40.2867C55.4241 40.1897 56.0129 40.0616 56.6063 39.9025C57.1997 39.7434 57.7358 39.5067 58.2147 39.1922C58.5456 38.975 58.7826 38.757 58.9257 38.5385C59.0731 38.317 59.1426 38.1001 59.1339 37.8877C59.1253 37.6753 59.0567 37.4711 58.928 37.2752C58.7708 37.0358 58.5559 36.884 58.2833 36.82C58.0107 36.756 57.6844 36.7429 57.3042 36.7806C56.9284 36.8156 56.5084 36.8639 56.0442 36.9257C55.7536 36.967 55.429 36.9994 55.0706 37.0229C54.7094 37.042 54.3397 37.0199 53.9617 36.9566C53.5836 36.8933 53.2169 36.7571 52.8616 36.5481C52.5077 36.3318 52.1879 36.006 51.902 35.5706C51.5275 35.0003 51.338 34.4269 51.3333 33.8505C51.3287 33.2741 51.498 32.7205 51.8411 32.1899C52.1858 31.652 52.689 31.1658 53.3508 30.7313C53.8471 30.4054 54.3581 30.154 54.8837 29.9771C55.4108 29.793 55.9918 29.6483 56.6267 29.543L57.0071 31.5456C56.4502 31.6559 55.9661 31.7774 55.5549 31.9103C55.1409 32.0389 54.7532 32.2218 54.3918 32.4591C54.1393 32.6249 53.951 32.8078 53.8268 33.0077C53.6997 33.2033 53.6391 33.4051 53.6449 33.6131C53.6478 33.8168 53.7121 34.0145 53.8379 34.206C53.9865 34.4324 54.1776 34.5811 54.4112 34.6521C54.6462 34.7158 54.9436 34.7324 55.3035 34.7016C55.6678 34.6681 56.1131 34.6156 56.6394 34.5441C57.2786 34.4547 57.853 34.4233 58.3627 34.45C58.874 34.4695 59.3347 34.5875 59.7449 34.8042C60.1522 35.0165 60.5202 35.373 60.849 35.8737ZM65.8228 22.7383L69.8792 28.9162C70.3109 29.5736 70.5553 30.2637 70.6123 30.9864C70.6709 31.7018 70.5078 32.4071 70.123 33.1021C69.7426 33.7943 69.1083 34.432 68.2201 35.0151C66.9576 35.8442 65.7838 36.1538 64.699 35.9439C63.6141 35.7341 62.723 35.0981 62.0254 34.0358L57.9861 27.884L60.004 26.559L63.8418 32.4038C64.3593 33.1918 64.8834 33.639 65.4143 33.7453C65.9451 33.8515 66.5262 33.6974 67.1575 33.2829C67.6016 32.9913 67.9107 32.6793 68.0849 32.3468C68.2635 32.0115 68.3138 31.642 68.2357 31.2384C68.1576 30.8349 67.9571 30.3871 67.634 29.8951L63.8048 24.0633L65.8228 22.7383ZM79.9285 27.1403L74.4298 30.7509L68.1607 21.2032L73.6594 17.5927L74.7486 19.2515L71.2743 21.5327L72.6508 23.629L75.8834 21.5064L76.9725 23.1652L73.7399 25.2877L75.3565 27.7498L78.8308 25.4685L79.9285 27.1403ZM81.9268 25.8282L75.6577 16.2806L77.6822 14.9513L82.8536 22.8271L86.7262 20.2843L87.8239 21.9561L81.9268 25.8282Z" fill="white"/>
</svg>
