<svg width="194" height="141" viewBox="0 0 194 141" fill="none" xmlns="http://www.w3.org/2000/svg">
<rect x="-87" y="100.859" width="304" height="48" rx="8" transform="rotate(-33.2894 -87 100.859)" fill="#F8EB83"/>
<path d="M35.1487 56.5433L32.9643 54.7252L29.4835 57.0108L30.2835 59.7379L28.1023 61.1701L25.1772 49.3707L27.6523 47.7455L37.3299 55.1111L35.1487 56.5433ZM31.3661 53.3446L29.216 51.5788C29.0752 51.4593 28.8921 51.3085 28.6666 51.1264C28.4425 50.937 28.2149 50.7469 27.9837 50.5561C27.7539 50.358 27.5587 50.184 27.3979 50.0341C27.4716 50.2412 27.5564 50.5032 27.6525 50.8203C27.75 51.1301 27.8411 51.4254 27.9258 51.7063C28.0105 51.9871 28.0705 52.1876 28.1058 52.3077L28.878 54.9784L31.3661 53.3446ZM47.0082 48.7563L44.4352 50.4457L35.5392 45.9502L35.4804 45.9888C35.6951 46.2777 35.909 46.5703 36.1221 46.8665C36.3353 47.1627 36.5485 47.4589 36.7617 47.755C36.972 48.0469 37.1837 48.3409 37.3969 48.6371L40.347 53.1301L38.5381 54.3178L32.269 44.7702L34.8224 43.0936L43.6647 47.5216L43.7104 47.4916C43.5073 47.2013 43.3035 46.9145 43.0989 46.6314C42.8943 46.3483 42.6897 46.0652 42.4851 45.7821C42.2849 45.4961 42.0846 45.2101 41.8844 44.9241L38.9171 40.405L40.7391 39.2086L47.0082 48.7563ZM57.8881 41.6124L55.315 43.3019L46.419 38.8063L46.3603 38.8449C46.5749 39.1339 46.7889 39.4264 47.002 39.7226C47.2152 40.0188 47.4284 40.315 47.6415 40.6112C47.8518 40.903 48.0636 41.197 48.2768 41.4932L51.2269 45.9862L49.418 47.174L43.1489 37.6263L45.7023 35.9497L54.5446 40.3777L54.5903 40.3477C54.3872 40.0574 54.1834 39.7707 53.9788 39.4875C53.7742 39.2044 53.5696 38.9213 53.365 38.6382C53.1647 38.3522 52.9645 38.0662 52.7643 37.7802L49.7969 33.2611L51.619 32.0647L57.8881 41.6124ZM61.8001 25.3797L65.8565 31.5576C66.2882 32.215 66.5326 32.905 66.5896 33.6277C66.6482 34.3432 66.4851 35.0484 66.1003 35.7435C65.7199 36.4357 65.0856 37.0733 64.1974 37.6565C62.9349 38.4855 61.7611 38.7951 60.6763 38.5853C59.5915 38.3755 58.7003 37.7394 58.0027 36.6771L53.9634 30.5253L55.9814 29.2003L59.8191 35.0452C60.3366 35.8332 60.8607 36.2803 61.3916 36.3866C61.9224 36.4929 62.5035 36.3388 63.1348 35.9243C63.5789 35.6327 63.888 35.3206 64.0622 34.9882C64.2408 34.6528 64.2911 34.2834 64.213 33.8798C64.1349 33.4762 63.9344 33.0284 63.6113 32.5365L59.7821 26.7047L61.8001 25.3797ZM75.9058 29.7817L70.4071 33.3922L64.138 23.8446L69.6367 20.234L70.7259 21.8928L67.2516 24.174L68.6281 26.2703L71.8607 24.1478L72.9499 25.8065L69.7172 27.9291L71.3338 30.3911L74.8081 28.1099L75.9058 29.7817ZM77.9042 28.4696L71.635 18.9219L73.6595 17.5926L78.8309 25.4684L82.7035 22.9256L83.8012 24.5975L77.9042 28.4696Z" fill="#1C2D41"/>
</svg>
