<svg width="210" height="202" viewBox="0 0 210 202" fill="none" xmlns="http://www.w3.org/2000/svg">
<path d="M6.92188 93.3633C23.4219 77.6966 65.3219 45.9633 100.922 44.3633C117.089 42.6966 157.422 47.8633 189.422 81.8633C173.589 96.0299 134.922 124.063 106.922 122.863C91.5885 122.863 55.8219 116.963 35.4219 93.3633" stroke="#1B2735"/>
<path d="M6.92188 92.8632C15.2552 110.197 47.9219 148.863 115.422 152.863C135.922 153.363 184.022 142.163 202.422 103.363C185.255 117.53 141.322 143.463 102.922 133.863C64.5219 124.263 41.9219 102.863 35.4219 93.3632" stroke="#1B2735"/>
<path d="M206.922 68.3635L189.922 81.3632C157.122 39.7635 107.422 31.6967 86.9219 32.8632C58.9219 32.8632 17.0885 57.3632 0.421875 72.3632C30.8219 24.7632 81.0885 13.5301 102.422 13.8635C148.822 13.4635 191.422 50.0302 206.922 68.3635Z" fill="#CEB793" stroke="#CEB793"/>
<path d="M6.94149 93.19L16.4422 84.695L27.4416 76.6924L37.9424 69.1953L49.0233 61.6797L68.9219 52.3632L82.9219 47.3632L92.9219 45.3632L100.422 44.8632L107.422 43.8632L119.922 44.8632L130.922 47.3632L143.195 51.3632L131.422 74.8632L128.922 68.8632L121.922 61.3632L113.422 56.8632L105.922 55.8632L95.9219 56.3632L88.9219 59.3632L84.4219 62.8632L80.9219 67.3632L77.9219 73.3632L75.9219 79.8632L76.4219 92.8632L80.4219 100.363L87.4219 107.363L97.4219 111.363L107.922 111.863L119.922 107.863L127.422 101.363L128.922 98.3632L130.922 95.8632L133.422 89.3632L133.422 85.8632L133.422 80.8632L126.422 52.8632L141.922 50.8632L155.922 56.3632L168.922 64.3632L179.422 72.3632L189.422 81.8632L178.422 90.8632L167.422 98.3632L151.922 108.363L136.922 115.863L126.922 119.863L117.922 121.863L107.922 123.363L97.9219 122.363L87.4219 120.863L76.9219 117.863L65.4219 113.863L54.4219 108.363L44.9219 102.363L39.9219 97.917L35.9219 93.19L46.9219 106.189L67.4219 120.363L94.9219 131.863L115.922 136.863L111.422 135.792L127.422 135.863L143.422 133.363L166.422 125.363L181.422 117.863L195.422 108.863L201.922 103.863L201.922 104.863L198.422 110.863L193.422 117.363L184.922 126.863L174.422 135L161.922 142L151.422 146L140.922 149.363L129.422 152L121.422 152.5L110.422 152.363L97.9219 151L86.9219 148.863L69.9219 143.863L56.9219 138.363L46.4219 132.863L35.9219 125.863L24.9219 116.363L15.4421 106.189L10.9415 100.19L6.94149 93.19Z" fill="#1B2735"/>
<path d="M122.422 84.8632C122.422 93.1475 115.639 101.363 105.422 101.363C95.2046 101.363 88.4219 91.1475 88.4219 82.8632C88.4219 74.5789 94.7046 66.3632 104.922 66.3632C115.139 66.3632 122.422 76.5789 122.422 84.8632Z" fill="#CEB793"/>
<path d="M75.9221 87.8632C75.1221 62.2632 93.2554 55.8632 102.422 55.8632C128.822 55.8632 134.922 77.5 133.422 87.8632C129.422 107.5 110.589 112.53 102.422 111.863C82.8223 110.663 76.5888 95.3632 75.9221 87.8632Z" stroke="#CEB793"/>
<path d="M115.422 83.8632C116.422 91.8628 109.721 95.8632 103.922 95.8632C98.1229 95.8632 93.4219 90.2145 93.4219 83.8632C93.4219 77.5119 97.4219 72.3636 103.922 72.3632C109.721 72.3632 115.422 77.8628 115.422 83.8632Z" fill="#1B2735"/>
</svg>
