<svg width="36" height="36" viewBox="0 0 36 36" fill="none" xmlns="http://www.w3.org/2000/svg">
<rect x="0.5" y="0.5" width="35" height="35" rx="17.5" fill="white" fill-opacity="0.06"/>
<rect x="0.5" y="0.5" width="35" height="35" rx="17.5" stroke="white"/>
<g clip-path="url(#clip0_1813_15712)">
<path fill-rule="evenodd" clip-rule="evenodd" d="M15.8335 12.9987C15.8335 11.8021 16.8035 10.832 18.0002 10.832C19.1968 10.832 20.1668 11.8021 20.1668 12.9987C20.1668 14.1953 19.1968 15.1654 18.0002 15.1654C16.8035 15.1654 15.8335 14.1953 15.8335 12.9987ZM18.0002 9.83203C16.2513 9.83203 14.8335 11.2498 14.8335 12.9987C14.8335 14.7476 16.2513 16.1654 18.0002 16.1654C19.7491 16.1654 21.1668 14.7476 21.1668 12.9987C21.1668 11.2498 19.7491 9.83203 18.0002 9.83203ZM13.3335 22.4154C13.3335 20.3443 15.0124 18.6654 17.0835 18.6654H18.9168C20.9879 18.6654 22.6668 20.3443 22.6668 22.4154C22.6668 22.7375 22.4057 22.9987 22.0835 22.9987H13.9168C13.5947 22.9987 13.3335 22.7375 13.3335 22.4154ZM12.3335 22.4154C12.3335 19.792 14.4601 17.6654 17.0835 17.6654H18.9168C21.5402 17.6654 23.6668 19.792 23.6668 22.4154C23.6668 23.2898 22.9579 23.9987 22.0835 23.9987H13.9168C13.0424 23.9987 12.3335 23.2898 12.3335 22.4154Z" fill="white"/>
</g>
<defs>
<clipPath id="clip0_1813_15712">
<rect width="16" height="16" fill="white" transform="translate(10 10)"/>
</clipPath>
</defs>
</svg>
