<svg width="24" height="25" viewBox="0 0 24 25" fill="none" xmlns="http://www.w3.org/2000/svg">
<path d="M6 19.5L4 21.5M18 19.5L20 21.5" stroke="white" stroke-opacity="0.7" stroke-width="1.5" stroke-linecap="round" stroke-linejoin="round"/>
<path d="M9 15.5H9.00896M14.991 15.5H15" stroke="white" stroke-opacity="0.7" stroke-width="2" stroke-linecap="round" stroke-linejoin="round"/>
<path d="M5 9.5C9 13.5 15.5 13.5 19 9.5" stroke="white" stroke-opacity="0.7" stroke-width="1.5" stroke-linejoin="round"/>
<path d="M5.27322 8.39427C6.09442 4.21577 7.23046 3.5 11.4545 3.5H12.5455C16.7695 3.5 17.9056 4.21577 18.7268 8.39427L19.2802 11.21C20.0349 15.0503 20.4123 16.9705 19.312 18.2352C18.2118 19.5 16.1412 19.5 12 19.5C7.85879 19.5 5.78819 19.5 4.68796 18.2352C3.58773 16.9705 3.9651 15.0503 4.71984 11.21L5.27322 8.39427Z" stroke="white" stroke-opacity="0.7" stroke-width="1.5" stroke-linejoin="round"/>
</svg>
