<svg width="24" height="25" viewBox="0 0 24 25" fill="none" xmlns="http://www.w3.org/2000/svg">
<path d="M2.5 12.5C2.5 8.27027 2.5 6.1554 3.69797 4.75276C3.86808 4.55358 4.05358 4.36808 4.25276 4.19797C5.6554 3 7.77027 3 12 3C16.2297 3 18.3446 3 19.7472 4.19797C19.9464 4.36808 20.1319 4.55358 20.302 4.75276C21.5 6.1554 21.5 8.27027 21.5 12.5C21.5 16.7297 21.5 18.8446 20.302 20.2472C20.1319 20.4464 19.9464 20.6319 19.7472 20.802C18.3446 22 16.2297 22 12 22C7.77027 22 5.6554 22 4.25276 20.802C4.05358 20.6319 3.86808 20.4464 3.69797 20.2472C2.5 18.8446 2.5 16.7297 2.5 12.5Z" stroke="white" stroke-opacity="0.7" stroke-width="1.5"/>
<path d="M9 13.5V8.9C9 8.52774 9 8.34162 9.04894 8.19098C9.14786 7.88655 9.38655 7.64786 9.69098 7.54894C9.84162 7.5 10.0277 7.5 10.4 7.5H13C14.6569 7.5 16 8.84315 16 10.5C16 12.1569 14.6569 13.5 13 13.5H9ZM9 13.5V18.5" stroke="white" stroke-opacity="0.7" stroke-width="1.5" stroke-linecap="round" stroke-linejoin="round"/>
</svg>
