<svg width="36" height="34" viewBox="0 0 36 34" fill="none" xmlns="http://www.w3.org/2000/svg">
<path d="M21.6174 31.8179C28.589 31.3544 34.1423 25.7224 34.5993 18.6518C34.6887 17.2681 34.6887 15.8352 34.5993 14.4515C34.1423 7.38095 28.589 1.74888 21.6174 1.28545C19.2389 1.12735 16.7556 1.12767 14.382 1.28545C7.41032 1.74888 1.85702 7.38095 1.40007 14.4515C1.31065 15.8352 1.31065 17.2681 1.40007 18.6518C1.5665 21.227 2.70539 23.6113 4.04619 25.6247C4.82469 27.0342 4.31091 28.7934 3.50003 30.33C2.91536 31.438 2.62302 31.992 2.85775 32.3922C3.09247 32.7924 3.61677 32.8051 4.66538 32.8306C6.73912 32.8811 8.13748 32.2932 9.24747 31.4747C9.87701 31.0105 10.1918 30.7784 10.4087 30.7517C10.6257 30.725 11.0526 30.9008 11.9064 31.2525C12.6737 31.5685 13.5646 31.7635 14.382 31.8179C16.7556 31.9757 19.2389 31.976 21.6174 31.8179Z" stroke="#4B6380" stroke-width="1.5" stroke-linejoin="round"/>
<path d="M15.5 12.8981C15.5 11.482 16.6193 10.334 18 10.334C19.3807 10.334 20.5 11.482 20.5 12.8981C20.5 13.4085 20.3546 13.8841 20.1039 14.2837C19.3568 15.4746 18 16.6102 18 18.0263V18.6673" stroke="#4B6380" stroke-width="1.5" stroke-linecap="round"/>
<path d="M18 22H18.015" stroke="#4B6380" stroke-width="1.5" stroke-linecap="round" stroke-linejoin="round"/>
</svg>
