<svg width="135" height="137" viewBox="0 0 135 137" fill="none" xmlns="http://www.w3.org/2000/svg">
<path d="M134.242 126.194C127.812 123.032 121.229 120.397 114.396 118.167L114.38 118.154C114.274 118.119 114.168 118.083 114.062 118.047C112.548 117.566 112.032 119.768 113.222 120.459C117.533 122.952 123.412 124.48 127.722 126.974C105.752 127.115 80.8923 127.553 61.6411 116.215C42.2355 104.786 32.5051 84.9605 38.4629 64.4034C57.1096 64.2958 76.0147 54.7897 87.4591 40.9893C92.1092 35.3694 98.7235 23.1999 87.6381 20.0501C77.1862 17.0708 63.2917 27.5582 56.1936 33.6516C47.3588 41.2298 40.2829 51.18 36.6197 61.894C35.2142 61.8781 33.8339 61.8032 32.4787 61.6691C20.4008 60.4681 7.60002 54.5416 3.70413 42.5668C-1.24689 27.3529 9.81427 12.7762 18.8749 1.49592C19.3616 0.887942 18.4469 0.120426 17.9444 0.715173C9.1117 11.0902 -0.123894 22.7988 0.63069 37.0458C1.25531 48.7632 9.62629 57.325 20.5573 61.375C25.4826 63.1942 30.6391 64.1508 35.8294 64.3736C32.3421 76.4521 33.3063 89.3505 41.0546 100.853C59.2752 127.87 94.2831 130.498 124.779 130.503L117.721 134.17C116.227 134.949 117.729 137.052 119.21 136.288C122.939 134.362 126.666 132.421 130.381 130.496C130.558 130.498 131.783 129.684 131.96 129.671C133.078 128.818 130.381 130.496 132.031 129.634C132.814 129.235 133.596 128.821 134.379 128.422C135.318 127.926 135.055 126.581 134.242 126.194ZM41.0872 57.3913C45.724 47.4407 53.2614 38.7203 62.2182 32.1805C66.7596 28.8632 71.8139 25.8826 77.1162 23.8457C79.214 23.0382 81.5786 22.2407 83.8538 22.224C90.7381 22.1698 92.0812 28.2715 89.5724 33.4682C81.3575 50.5266 58.6692 61.2314 39.2488 61.8667C39.7881 60.3801 40.3862 58.8893 41.0872 57.3913Z" fill="#F3E3CA"/>
</svg>
